<svg width="405" height="37" viewBox="0 0 405 37" fill="none" xmlns="http://www.w3.org/2000/svg">
<path d="M14.1 13.1998C15.6333 13.5331 16.9167 14.2998 17.95 15.4998C19.0167 16.6998 19.55 18.1831 19.55 19.9498C19.55 22.3831 18.7833 24.2998 17.25 25.6998C15.7167 27.0998 13.5167 27.7998 10.65 27.7998H0.400003C0.133337 27.7998 3.20375e-06 27.6498 3.20375e-06 27.3498V0.449802C3.20375e-06 0.149802 0.133337 -0.000198007 0.400003 -0.000198007H9.8C12.5 -0.000198007 14.6 0.616469 16.1 1.8498C17.6 3.08314 18.35 4.83314 18.35 7.0998C18.35 8.83314 17.9167 10.1665 17.05 11.0998C16.1833 12.0331 15.2 12.7331 14.1 13.1998ZM3.8 11.5498H10.35C11.75 11.5498 12.8 11.1665 13.5 10.3998C14.2333 9.5998 14.6 8.58314 14.6 7.3498C14.6 6.11647 14.2167 5.1498 13.45 4.4498C12.6833 3.7498 11.5333 3.3998 10 3.3998H3.8V11.5498ZM3.8 24.3998H10.15C10.9833 24.3998 11.8167 24.2998 12.65 24.0998C13.4833 23.8998 14.1833 23.4665 14.75 22.7998C15.3167 22.0998 15.6 21.0331 15.6 19.5998C15.6 18.2665 15.1667 17.1498 14.3 16.2498C13.4333 15.3498 12.0667 14.8998 10.2 14.8998H3.8V24.3998ZM37.6664 25.1998C36.9331 26.2331 36.0497 26.9998 35.0164 27.4998C33.9831 27.9998 32.8331 28.2498 31.5664 28.2498C29.7331 28.2498 28.1664 27.8165 26.8664 26.9498C25.5997 26.0831 24.6331 24.9165 23.9664 23.4498C23.2997 21.9831 22.9664 20.3665 22.9664 18.5998C22.9664 16.7331 23.3331 15.0831 24.0664 13.6498C24.7997 12.1831 25.8164 11.0331 27.1164 10.1998C28.4497 9.36647 29.9831 8.9498 31.7164 8.9498C33.1164 8.9498 34.3331 9.21647 35.3664 9.7498C36.4331 10.2831 37.2664 10.9831 37.8664 11.8498C38.0331 10.9831 38.3664 10.3665 38.8664 9.9998C39.3664 9.5998 39.9997 9.3998 40.7664 9.3998H41.0164C41.2497 9.3998 41.3664 9.5498 41.3664 9.8498V27.3498C41.3664 27.6498 41.2497 27.7998 41.0164 27.7998H38.0664C37.7997 27.7998 37.6664 27.6498 37.6664 27.3498V25.1998ZM32.1164 24.7498C32.9497 24.7498 33.7831 24.5831 34.6164 24.2498C35.4831 23.8831 36.1997 23.2498 36.7664 22.3498C37.3664 21.4498 37.6664 20.1998 37.6664 18.5998C37.6664 16.9665 37.3664 15.7165 36.7664 14.8498C36.1997 13.9498 35.4997 13.3331 34.6664 12.9998C33.8331 12.6665 33.0331 12.4998 32.2664 12.4998C30.8331 12.4998 29.5664 12.9998 28.4664 13.9998C27.3664 14.9998 26.8164 16.5331 26.8164 18.5998C26.8164 20.0998 27.0831 21.2998 27.6164 22.1998C28.1831 23.0998 28.8664 23.7498 29.6664 24.1498C30.4997 24.5498 31.3164 24.7498 32.1164 24.7498ZM50.2656 11.8998C50.799 11.0665 51.5656 10.3831 52.5656 9.8498C53.5656 9.28314 54.7323 8.9998 56.0656 8.9998C58.399 8.9998 60.2323 9.71647 61.5656 11.1498C62.899 12.5831 63.5656 14.5331 63.5656 16.9998V27.3498C63.5656 27.6498 63.4323 27.7998 63.1656 27.7998H60.2156C59.949 27.7998 59.8156 27.6498 59.8156 27.3498V17.6998C59.8156 15.9331 59.399 14.6165 58.5656 13.7498C57.7323 12.8831 56.6156 12.4498 55.2156 12.4498C53.7156 12.4498 52.5323 12.8998 51.6656 13.7998C50.799 14.6665 50.3656 16.0331 50.3656 17.8998V27.3498C50.3656 27.6498 50.249 27.7998 50.0156 27.7998H47.0656C46.799 27.7998 46.6656 27.6498 46.6656 27.3498V9.8498C46.6656 9.5498 46.799 9.3998 47.0656 9.3998H47.3156C48.0823 9.3998 48.7323 9.61647 49.2656 10.0498C49.799 10.4831 50.1323 11.0998 50.2656 11.8998ZM72.4859 21.0498V27.3498C72.4859 27.6498 72.3693 27.7998 72.1359 27.7998H69.1859C68.9193 27.7998 68.7859 27.6498 68.7859 27.3498V0.449802C68.7859 0.149802 68.9193 -0.000198007 69.1859 -0.000198007H69.4359C71.4693 -0.000198007 72.4859 1.1498 72.4859 3.4498V16.5998L78.9859 9.8998C79.3526 9.56647 79.7359 9.3998 80.1359 9.3998H83.2359C83.4026 9.3998 83.4859 9.4498 83.4859 9.5498C83.5193 9.6498 83.5026 9.73314 83.4359 9.7998L77.3359 16.0998L84.2859 27.3498C84.3526 27.4498 84.3526 27.5498 84.2859 27.6498C84.2526 27.7498 84.1693 27.7998 84.0359 27.7998H80.8859C80.4526 27.7998 80.1359 27.6165 79.9359 27.2498L74.7859 18.7498L72.4859 21.0498ZM94.3168 23.7498C94.3168 23.2165 94.5001 22.9498 94.8668 22.9498C95.0001 22.9498 95.1335 23.0331 95.2668 23.1998C95.8335 23.8331 96.3835 24.3165 96.9168 24.6498C97.4835 24.9498 98.0835 25.0998 98.7168 25.0998C99.7501 25.0998 100.517 24.7998 101.017 24.1998C101.55 23.5998 101.817 22.8498 101.817 21.9498V0.449802C101.817 0.149802 101.95 -0.000198007 102.217 -0.000198007H102.567C103.533 -0.000198007 104.283 0.299802 104.817 0.899802C105.35 1.46647 105.617 2.3498 105.617 3.5498V22.0998C105.617 23.9331 105.1 25.4331 104.067 26.5998C103.033 27.7331 101.533 28.2998 99.5668 28.2998C98.0335 28.2998 96.7668 27.8498 95.7668 26.9498C94.8001 26.0498 94.3168 24.9831 94.3168 23.7498ZM125.166 25.1998C124.433 26.2331 123.55 26.9998 122.516 27.4998C121.483 27.9998 120.333 28.2498 119.066 28.2498C117.233 28.2498 115.666 27.8165 114.366 26.9498C113.1 26.0831 112.133 24.9165 111.466 23.4498C110.8 21.9831 110.466 20.3665 110.466 18.5998C110.466 16.7331 110.833 15.0831 111.566 13.6498C112.3 12.1831 113.316 11.0331 114.616 10.1998C115.95 9.36647 117.483 8.9498 119.216 8.9498C120.616 8.9498 121.833 9.21647 122.866 9.7498C123.933 10.2831 124.766 10.9831 125.366 11.8498C125.533 10.9831 125.866 10.3665 126.366 9.9998C126.866 9.5998 127.5 9.3998 128.266 9.3998H128.516C128.75 9.3998 128.866 9.5498 128.866 9.8498V27.3498C128.866 27.6498 128.75 27.7998 128.516 27.7998H125.566C125.3 27.7998 125.166 27.6498 125.166 27.3498V25.1998ZM119.616 24.7498C120.45 24.7498 121.283 24.5831 122.116 24.2498C122.983 23.8831 123.7 23.2498 124.266 22.3498C124.866 21.4498 125.166 20.1998 125.166 18.5998C125.166 16.9665 124.866 15.7165 124.266 14.8498C123.7 13.9498 123 13.3331 122.166 12.9998C121.333 12.6665 120.533 12.4998 119.766 12.4998C118.333 12.4998 117.066 12.9998 115.966 13.9998C114.866 14.9998 114.316 16.5331 114.316 18.5998C114.316 20.0998 114.583 21.2998 115.116 22.1998C115.683 23.0998 116.366 23.7498 117.166 24.1498C118 24.5498 118.816 24.7498 119.616 24.7498ZM137.916 21.0498V27.3498C137.916 27.6498 137.799 27.7998 137.566 27.7998H134.616C134.349 27.7998 134.216 27.6498 134.216 27.3498V0.449802C134.216 0.149802 134.349 -0.000198007 134.616 -0.000198007H134.866C136.899 -0.000198007 137.916 1.1498 137.916 3.4498V16.5998L144.416 9.8998C144.782 9.56647 145.166 9.3998 145.566 9.3998H148.666C148.832 9.3998 148.916 9.4498 148.916 9.5498C148.949 9.6498 148.932 9.73314 148.866 9.7998L142.766 16.0998L149.716 27.3498C149.782 27.4498 149.782 27.5498 149.716 27.6498C149.682 27.7498 149.599 27.7998 149.466 27.7998H146.316C145.882 27.7998 145.566 27.6165 145.366 27.2498L140.216 18.7498L137.916 21.0498ZM166.573 25.1998C165.839 26.2331 164.956 26.9998 163.923 27.4998C162.889 27.9998 161.739 28.2498 160.473 28.2498C158.639 28.2498 157.073 27.8165 155.773 26.9498C154.506 26.0831 153.539 24.9165 152.873 23.4498C152.206 21.9831 151.873 20.3665 151.873 18.5998C151.873 16.7331 152.239 15.0831 152.973 13.6498C153.706 12.1831 154.723 11.0331 156.023 10.1998C157.356 9.36647 158.889 8.9498 160.623 8.9498C162.023 8.9498 163.239 9.21647 164.273 9.7498C165.339 10.2831 166.173 10.9831 166.773 11.8498C166.939 10.9831 167.273 10.3665 167.773 9.9998C168.273 9.5998 168.906 9.3998 169.673 9.3998H169.923C170.156 9.3998 170.273 9.5498 170.273 9.8498V27.3498C170.273 27.6498 170.156 27.7998 169.923 27.7998H166.973C166.706 27.7998 166.573 27.6498 166.573 27.3498V25.1998ZM161.023 24.7498C161.856 24.7498 162.689 24.5831 163.523 24.2498C164.389 23.8831 165.106 23.2498 165.673 22.3498C166.273 21.4498 166.573 20.1998 166.573 18.5998C166.573 16.9665 166.273 15.7165 165.673 14.8498C165.106 13.9498 164.406 13.3331 163.573 12.9998C162.739 12.6665 161.939 12.4998 161.173 12.4998C159.739 12.4998 158.473 12.9998 157.373 13.9998C156.273 14.9998 155.723 16.5331 155.723 18.5998C155.723 20.0998 155.989 21.2998 156.523 22.1998C157.089 23.0998 157.773 23.7498 158.573 24.1498C159.406 24.5498 160.223 24.7498 161.023 24.7498ZM179.222 12.0498C179.822 11.0165 180.539 10.3165 181.372 9.9498C182.205 9.58314 183.289 9.3998 184.622 9.3998H185.172C185.439 9.3998 185.572 9.53314 185.572 9.7998V12.5498C185.572 12.8498 185.439 12.9998 185.172 12.9998H183.972C182.205 12.9998 180.989 13.4498 180.322 14.3498C179.655 15.2498 179.322 16.6665 179.322 18.5998V27.3498C179.322 27.6498 179.205 27.7998 178.972 27.7998H176.022C175.755 27.7998 175.622 27.6498 175.622 27.3498V9.7998C175.622 9.53314 175.755 9.3998 176.022 9.3998H176.272C177.105 9.3998 177.772 9.63314 178.272 10.0998C178.805 10.5331 179.122 11.1831 179.222 12.0498ZM191.586 12.6998H188.186C187.919 12.6998 187.786 12.5665 187.786 12.2998V9.7998C187.786 9.53314 187.919 9.3998 188.186 9.3998H191.586V3.1998C191.586 2.8998 191.702 2.7498 191.936 2.7498H192.186C193.152 2.7498 193.902 3.0498 194.436 3.6498C195.002 4.21647 195.286 5.08314 195.286 6.2498V9.3998H199.136C199.369 9.3998 199.486 9.53314 199.486 9.7998V12.2998C199.486 12.5665 199.369 12.6998 199.136 12.6998H195.286V27.3498C195.286 27.6498 195.152 27.7998 194.886 27.7998H191.936C191.702 27.7998 191.586 27.6498 191.586 27.3498V12.6998ZM217.061 25.1998C216.328 26.2331 215.444 26.9998 214.411 27.4998C213.378 27.9998 212.228 28.2498 210.961 28.2498C209.128 28.2498 207.561 27.8165 206.261 26.9498C204.994 26.0831 204.028 24.9165 203.361 23.4498C202.694 21.9831 202.361 20.3665 202.361 18.5998C202.361 16.7331 202.728 15.0831 203.461 13.6498C204.194 12.1831 205.211 11.0331 206.511 10.1998C207.844 9.36647 209.378 8.9498 211.111 8.9498C212.511 8.9498 213.728 9.21647 214.761 9.7498C215.828 10.2831 216.661 10.9831 217.261 11.8498C217.428 10.9831 217.761 10.3665 218.261 9.9998C218.761 9.5998 219.394 9.3998 220.161 9.3998H220.411C220.644 9.3998 220.761 9.5498 220.761 9.8498V27.3498C220.761 27.6498 220.644 27.7998 220.411 27.7998H217.461C217.194 27.7998 217.061 27.6498 217.061 27.3498V25.1998ZM211.511 24.7498C212.344 24.7498 213.178 24.5831 214.011 24.2498C214.878 23.8831 215.594 23.2498 216.161 22.3498C216.761 21.4498 217.061 20.1998 217.061 18.5998C217.061 16.9665 216.761 15.7165 216.161 14.8498C215.594 13.9498 214.894 13.3331 214.061 12.9998C213.228 12.6665 212.428 12.4998 211.661 12.4998C210.228 12.4998 208.961 12.9998 207.861 13.9998C206.761 14.9998 206.211 16.5331 206.211 18.5998C206.211 20.0998 206.478 21.2998 207.011 22.1998C207.578 23.0998 208.261 23.7498 209.061 24.1498C209.894 24.5498 210.711 24.7498 211.511 24.7498ZM243.192 22.8498L249.042 0.599803C249.142 0.199802 249.392 -0.000198007 249.792 -0.000198007H250.792C251.592 -0.000198007 252.226 0.166469 252.692 0.499804C253.192 0.833138 253.576 1.5498 253.842 2.6498L259.492 22.8498L264.892 0.599803C264.992 0.199802 265.259 -0.000198007 265.692 -0.000198007H268.542C268.842 -0.000198007 268.942 0.149802 268.842 0.449802L261.792 27.3498C261.659 27.6498 261.459 27.7998 261.192 27.7998H257.992C257.692 27.7998 257.509 27.6498 257.442 27.3498L251.142 5.0998L245.092 27.3498C244.959 27.6498 244.776 27.7998 244.542 27.7998H241.292C240.959 27.7998 240.759 27.6498 240.692 27.3498L233.792 0.499804C233.726 0.166469 233.842 -0.000198007 234.142 -0.000198007H234.992C235.826 -0.000198007 236.509 0.166469 237.042 0.499804C237.576 0.833138 237.992 1.5498 238.292 2.6498L243.192 22.8498ZM280.204 28.2998C277.471 28.2998 275.421 27.4998 274.054 25.8998C272.687 24.2665 272.004 22.0331 272.004 19.1998V9.8498C272.004 9.5498 272.137 9.3998 272.404 9.3998H272.654C274.687 9.3998 275.704 10.5498 275.704 12.8498V19.5998C275.704 21.3665 276.104 22.6831 276.904 23.5498C277.737 24.4165 278.837 24.8498 280.204 24.8498C281.571 24.8498 282.654 24.4665 283.454 23.6998C284.287 22.8998 284.704 21.5831 284.704 19.7498V9.8498C284.704 9.5498 284.837 9.3998 285.104 9.3998H285.354C287.421 9.3998 288.454 10.5498 288.454 12.8498V19.4498C288.454 22.1831 287.754 24.3498 286.354 25.9498C284.987 27.5165 282.937 28.2998 280.204 28.2998ZM293.093 4.4498C293.093 3.78314 293.31 3.23314 293.743 2.7998C294.176 2.36647 294.71 2.1498 295.343 2.1498C295.976 2.1498 296.51 2.36647 296.943 2.7998C297.376 3.23314 297.593 3.78314 297.593 4.4498C297.593 5.08314 297.376 5.61647 296.943 6.0498C296.51 6.48314 295.976 6.6998 295.343 6.6998C294.71 6.6998 294.176 6.48314 293.743 6.0498C293.31 5.61647 293.093 5.08314 293.093 4.4498ZM288.743 31.8498C289.176 32.1831 289.593 32.4665 289.993 32.6998C290.393 32.9665 290.86 33.0998 291.393 33.0998C292.193 33.0998 292.743 32.8165 293.043 32.2498C293.343 31.7165 293.493 30.9331 293.493 29.8998V9.7998C293.493 9.53314 293.61 9.3998 293.843 9.3998H294.093C295.06 9.3998 295.81 9.68314 296.343 10.2498C296.91 10.8165 297.193 11.6831 297.193 12.8498V30.1998C297.193 32.2331 296.776 33.7665 295.943 34.7998C295.11 35.8331 293.96 36.3498 292.493 36.3498C291.426 36.3498 290.56 36.1165 289.893 35.6498C289.193 35.1831 288.693 34.6331 288.393 33.9998C288.06 33.3665 287.893 32.8331 287.893 32.3998C287.893 31.9331 288.043 31.6998 288.343 31.6998C288.51 31.6998 288.643 31.7498 288.743 31.8498ZM310.477 28.2998C307.744 28.2998 305.694 27.4998 304.327 25.8998C302.961 24.2665 302.277 22.0331 302.277 19.1998V9.8498C302.277 9.5498 302.411 9.3998 302.677 9.3998H302.927C304.961 9.3998 305.977 10.5498 305.977 12.8498V19.5998C305.977 21.3665 306.377 22.6831 307.177 23.5498C308.011 24.4165 309.111 24.8498 310.477 24.8498C311.844 24.8498 312.927 24.4665 313.727 23.6998C314.561 22.8998 314.977 21.5831 314.977 19.7498V9.8498C314.977 9.5498 315.111 9.3998 315.377 9.3998H315.627C317.694 9.3998 318.727 10.5498 318.727 12.8498V19.4498C318.727 22.1831 318.027 24.3498 316.627 25.9498C315.261 27.5165 313.211 28.2998 310.477 28.2998ZM337.716 11.7998V0.449802C337.716 0.149802 337.85 -0.000198007 338.116 -0.000198007H338.366C339.333 -0.000198007 340.083 0.283136 340.616 0.849803C341.183 1.41647 341.466 2.28314 341.466 3.4498V27.3498C341.466 27.6498 341.333 27.7998 341.066 27.7998H338.116C337.85 27.7998 337.716 27.6498 337.716 27.3498V25.1998C337.016 26.2331 336.133 26.9998 335.066 27.4998C334.033 27.9998 332.883 28.2498 331.616 28.2498C329.816 28.2498 328.266 27.8165 326.966 26.9498C325.7 26.0831 324.716 24.9165 324.016 23.4498C323.35 21.9831 323.016 20.3665 323.016 18.5998C323.016 16.7331 323.383 15.0831 324.116 13.6498C324.85 12.1831 325.866 11.0331 327.166 10.1998C328.5 9.36647 330.066 8.9498 331.866 8.9498C333.133 8.9498 334.283 9.1998 335.316 9.6998C336.35 10.1998 337.15 10.8998 337.716 11.7998ZM332.166 24.7498C333 24.7498 333.833 24.5831 334.666 24.2498C335.533 23.8831 336.25 23.2498 336.816 22.3498C337.416 21.4498 337.716 20.1998 337.716 18.5998C337.716 16.9665 337.416 15.7165 336.816 14.8498C336.25 13.9498 335.55 13.3331 334.716 12.9998C333.883 12.6665 333.083 12.4998 332.316 12.4998C330.883 12.4998 329.616 12.9998 328.516 13.9998C327.416 14.9998 326.866 16.5331 326.866 18.5998C326.866 20.0998 327.133 21.2998 327.666 22.1998C328.233 23.0998 328.916 23.7498 329.716 24.1498C330.55 24.5498 331.366 24.7498 332.166 24.7498ZM350.416 21.0498V27.3498C350.416 27.6498 350.299 27.7998 350.066 27.7998H347.116C346.849 27.7998 346.716 27.6498 346.716 27.3498V0.449802C346.716 0.149802 346.849 -0.000198007 347.116 -0.000198007H347.366C349.399 -0.000198007 350.416 1.1498 350.416 3.4498V16.5998L356.916 9.8998C357.282 9.56647 357.666 9.3998 358.066 9.3998H361.166C361.332 9.3998 361.416 9.4498 361.416 9.5498C361.449 9.6498 361.432 9.73314 361.366 9.7998L355.266 16.0998L362.216 27.3498C362.282 27.4498 362.282 27.5498 362.216 27.6498C362.182 27.7498 362.099 27.7998 361.966 27.7998H358.816C358.382 27.7998 358.066 27.6165 357.866 27.2498L352.716 18.7498L350.416 21.0498ZM379.073 25.1998C378.339 26.2331 377.456 26.9998 376.423 27.4998C375.389 27.9998 374.239 28.2498 372.973 28.2498C371.139 28.2498 369.573 27.8165 368.273 26.9498C367.006 26.0831 366.039 24.9165 365.373 23.4498C364.706 21.9831 364.373 20.3665 364.373 18.5998C364.373 16.7331 364.739 15.0831 365.473 13.6498C366.206 12.1831 367.223 11.0331 368.523 10.1998C369.856 9.36647 371.389 8.9498 373.123 8.9498C374.523 8.9498 375.739 9.21647 376.773 9.7498C377.839 10.2831 378.673 10.9831 379.273 11.8498C379.439 10.9831 379.773 10.3665 380.273 9.9998C380.773 9.5998 381.406 9.3998 382.173 9.3998H382.423C382.656 9.3998 382.773 9.5498 382.773 9.8498V27.3498C382.773 27.6498 382.656 27.7998 382.423 27.7998H379.473C379.206 27.7998 379.073 27.6498 379.073 27.3498V25.1998ZM373.523 24.7498C374.356 24.7498 375.189 24.5831 376.023 24.2498C376.889 23.8831 377.606 23.2498 378.173 22.3498C378.773 21.4498 379.073 20.1998 379.073 18.5998C379.073 16.9665 378.773 15.7165 378.173 14.8498C377.606 13.9498 376.906 13.3331 376.073 12.9998C375.239 12.6665 374.439 12.4998 373.673 12.4998C372.239 12.4998 370.973 12.9998 369.873 13.9998C368.773 14.9998 368.223 16.5331 368.223 18.5998C368.223 20.0998 368.489 21.2998 369.023 22.1998C369.589 23.0998 370.273 23.7498 371.073 24.1498C371.906 24.5498 372.723 24.7498 373.523 24.7498ZM391.672 11.8998C392.205 11.0665 392.972 10.3831 393.972 9.8498C394.972 9.28314 396.139 8.9998 397.472 8.9998C399.805 8.9998 401.639 9.71647 402.972 11.1498C404.305 12.5831 404.972 14.5331 404.972 16.9998V27.3498C404.972 27.6498 404.839 27.7998 404.572 27.7998H401.622C401.355 27.7998 401.222 27.6498 401.222 27.3498V17.6998C401.222 15.9331 400.805 14.6165 399.972 13.7498C399.139 12.8831 398.022 12.4498 396.622 12.4498C395.122 12.4498 393.939 12.8998 393.072 13.7998C392.205 14.6665 391.772 16.0331 391.772 17.8998V27.3498C391.772 27.6498 391.655 27.7998 391.422 27.7998H388.472C388.205 27.7998 388.072 27.6498 388.072 27.3498V9.8498C388.072 9.5498 388.205 9.3998 388.472 9.3998H388.722C389.489 9.3998 390.139 9.61647 390.672 10.0498C391.205 10.4831 391.539 11.0998 391.672 11.8998Z" fill="white"/>
</svg>
