<svg width="442" height="213" viewBox="0 0 442 213" fill="none" xmlns="http://www.w3.org/2000/svg">
<path d="M76.385 58.2399C73.2383 58.2399 70.6517 58.0266 68.625 57.5999C66.5983 57.2266 64.9717 56.6666 63.745 55.9199C62.5717 55.1199 61.745 54.1333 61.265 52.9599C60.8383 51.7866 60.625 50.3999 60.625 48.7999C60.625 48.3199 60.6517 47.6533 60.705 46.7999C60.7583 45.8933 60.8383 44.6399 60.945 43.0399C61.0517 41.4399 61.185 39.3866 61.345 36.8799C61.5583 34.3199 61.825 31.1199 62.145 27.2799C62.5183 22.5333 62.8117 18.7733 63.025 15.9999C63.2383 13.2266 63.3983 11.0933 63.505 9.59994C63.6117 8.05327 63.665 6.98661 63.665 6.39994C63.7183 5.75994 63.745 5.2266 63.745 4.79994C63.745 3.94661 63.745 3.25327 63.745 2.71994C63.7983 2.18661 63.8517 1.78661 63.905 1.51994C64.0117 1.19994 64.145 0.986605 64.305 0.87994C64.5183 0.719939 64.8117 0.639938 65.185 0.639938C68.3317 0.426605 70.9983 0.266605 73.185 0.15994C75.425 0.0532713 77.3717 -6.29425e-05 79.025 -6.29425e-05C83.0783 -6.29425e-05 86.545 0.346604 89.425 1.03994C92.3583 1.67994 94.7317 2.61327 96.545 3.83994C98.3583 5.06661 99.6917 6.58661 100.545 8.39994C101.398 10.2133 101.825 12.2666 101.825 14.5599C101.825 15.8399 101.692 17.1733 101.425 18.5599C101.158 19.8933 100.705 21.1733 100.065 22.3999C99.425 23.6266 98.545 24.7199 97.425 25.6799C96.3583 26.5866 94.9983 27.2533 93.345 27.6799C96.4383 28.6399 98.625 30.2399 99.905 32.4799C101.185 34.6666 101.825 37.2799 101.825 40.3199C101.825 42.7733 101.425 45.0933 100.625 47.2799C99.825 49.4133 98.4383 51.3066 96.465 52.9599C94.4917 54.5599 91.8783 55.8399 88.625 56.7999C85.3717 57.7599 81.2917 58.2399 76.385 58.2399ZM80.945 33.4399C80.3583 33.4399 79.6383 33.4933 78.785 33.5999C77.9317 33.6533 77.0517 33.7599 76.145 33.9199L75.265 46.9599C77.185 47.5466 78.9183 47.8399 80.465 47.8399C82.1183 47.8399 83.4517 47.5999 84.465 47.1199C85.4783 46.6399 86.2517 46.0533 86.785 45.3599C87.3717 44.6133 87.745 43.8133 87.905 42.9599C88.1183 42.0533 88.225 41.2266 88.225 40.4799C88.225 38.5066 87.665 36.8533 86.545 35.5199C85.4783 34.1333 83.6117 33.4399 80.945 33.4399ZM77.585 11.4399C77.4783 12.8266 77.3717 14.4533 77.265 16.3199C77.2117 18.1866 77.105 20.2133 76.945 22.3999C78.6517 22.8266 80.1717 23.0399 81.505 23.0399C83.105 23.0399 84.385 22.8533 85.345 22.4799C86.305 22.1066 87.0517 21.6266 87.585 21.0399C88.1717 20.4533 88.545 19.8133 88.705 19.1199C88.9183 18.4266 89.025 17.7599 89.025 17.1199C89.025 15.4666 88.465 14.0533 87.345 12.8799C86.2783 11.6533 84.4117 11.0399 81.745 11.0399C81.1583 11.0399 80.4917 11.0933 79.745 11.1999C79.0517 11.2533 78.3317 11.3333 77.585 11.4399ZM126.742 58.2399C124.396 58.2399 122.049 57.9466 119.702 57.3599C117.409 56.7733 115.329 55.7599 113.462 54.3199C111.649 52.8799 110.156 50.9599 108.982 48.5599C107.809 46.1599 107.222 43.1466 107.222 39.5199C107.222 38.1866 107.329 36.5866 107.542 34.7199C107.756 32.8533 108.156 30.9333 108.742 28.9599C109.382 26.9866 110.236 25.0399 111.302 23.1199C112.422 21.1466 113.862 19.3866 115.622 17.8399C117.382 16.2933 119.516 15.0399 122.022 14.0799C124.529 13.1199 127.516 12.6399 130.982 12.6399C133.756 12.6399 136.102 12.9599 138.022 13.5999C139.943 14.2399 141.489 15.1199 142.662 16.2399C143.836 17.3066 144.689 18.5599 145.222 19.9999C145.756 21.4399 146.022 22.9866 146.022 24.6399C146.022 27.0933 145.516 29.1733 144.502 30.8799C143.542 32.5866 142.262 34.0266 140.662 35.1999C139.116 36.3199 137.382 37.1999 135.462 37.8399C133.543 38.4799 131.649 38.9866 129.782 39.3599C127.916 39.6799 126.182 39.8933 124.582 39.9999C123.036 40.0533 121.836 40.0799 120.982 40.0799C120.982 41.0933 121.116 42.1066 121.382 43.1199C121.702 44.0799 122.156 44.9333 122.742 45.6799C123.329 46.4266 124.102 47.0399 125.062 47.5199C126.022 47.9999 127.196 48.2399 128.582 48.2399C129.969 48.2399 131.036 48.0266 131.782 47.5999C132.582 47.1199 133.223 46.6133 133.703 46.0799C134.183 45.4933 134.583 44.9866 134.902 44.5599C135.276 44.0799 135.756 43.8399 136.342 43.8399C136.609 43.8399 137.062 43.9199 137.702 44.0799C138.396 44.1866 139.089 44.4533 139.783 44.8799C140.476 45.3066 141.089 45.8933 141.623 46.6399C142.156 47.3866 142.423 48.3466 142.423 49.5199C142.423 51.0666 141.942 52.3999 140.982 53.5199C140.022 54.6399 138.769 55.5466 137.223 56.2399C135.729 56.9333 134.049 57.4399 132.182 57.7599C130.316 58.0799 128.502 58.2399 126.742 58.2399ZM128.262 23.2799C127.089 23.2799 126.076 23.6266 125.222 24.3199C124.422 24.9599 123.729 25.7866 123.142 26.7999C122.609 27.8133 122.182 28.9333 121.862 30.1599C121.596 31.3866 121.382 32.5599 121.222 33.6799C124.529 33.6266 127.196 33.0666 129.222 31.9999C131.302 30.9333 132.342 29.4133 132.342 27.4399C132.342 26.3733 131.996 25.4133 131.303 24.5599C130.662 23.7066 129.649 23.2799 128.262 23.2799ZM176.681 32.5599C176.361 32.5599 175.987 32.5599 175.561 32.5599C175.187 32.5066 174.814 32.4533 174.441 32.3999C174.067 32.2933 173.747 32.1866 173.481 32.0799C173.214 31.9199 173.081 31.7333 173.081 31.5199C173.081 30.8266 173.107 30.1866 173.161 29.5999C173.214 29.0133 173.241 28.3999 173.241 27.7599C173.241 26.5866 173.081 25.6266 172.761 24.8799C172.441 24.1333 171.801 23.7599 170.841 23.7599C169.347 23.7599 168.094 24.7466 167.081 26.7199C166.121 28.6399 165.507 31.5466 165.241 35.4399C165.134 37.1466 164.974 39.0933 164.761 41.2799C164.601 43.4133 164.441 45.4933 164.281 47.5199C164.121 49.4933 163.987 51.2533 163.881 52.7999C163.774 54.3466 163.721 55.3599 163.721 55.8399C163.721 56.3733 163.534 56.7733 163.161 57.0399C162.787 57.3066 162.387 57.4399 161.961 57.4399H159.081C157.427 57.4399 156.067 57.2799 155.001 56.9599C153.987 56.5866 153.161 56.0799 152.521 55.4399C151.934 54.7999 151.507 54.0266 151.241 53.1199C151.027 52.1599 150.921 51.0666 150.921 49.8399C150.921 49.0399 150.947 47.9199 151.001 46.4799C151.107 44.9866 151.267 42.9599 151.481 40.3999C151.694 37.7866 151.934 34.5066 152.201 30.5599C152.521 26.5599 152.894 21.6266 153.321 15.7599C153.427 14.2133 153.987 13.4399 155.001 13.4399H158.121C159.614 13.4399 160.867 13.5999 161.881 13.9199C162.894 14.2399 163.721 14.6933 164.361 15.2799C165.001 15.8133 165.454 16.4533 165.721 17.1999C166.041 17.9466 166.254 18.7199 166.361 19.5199C167.001 18.2933 167.747 17.2533 168.601 16.3999C169.507 15.4933 170.441 14.7733 171.401 14.2399C172.361 13.6533 173.347 13.2533 174.361 13.0399C175.374 12.7733 176.307 12.6399 177.161 12.6399C178.174 12.6399 179.187 12.8266 180.201 13.1999C181.267 13.5733 182.227 14.1333 183.081 14.8799C183.934 15.6266 184.601 16.5866 185.081 17.7599C185.614 18.9333 185.881 20.3199 185.881 21.9199C185.881 23.3599 185.667 24.7199 185.241 25.9999C184.814 27.2799 184.201 28.4266 183.401 29.4399C182.601 30.3999 181.614 31.1733 180.441 31.7599C179.321 32.2933 178.067 32.5599 176.681 32.5599ZM207.762 12.6399C212.295 12.6399 215.629 13.5466 217.762 15.3599C219.895 17.1199 220.962 19.3866 220.962 22.1599C220.962 24.5066 220.215 26.2933 218.722 27.5199C217.282 28.7466 215.175 29.3599 212.402 29.3599C211.655 29.3599 211.149 29.2799 210.882 29.1199C210.615 28.9599 210.482 28.6666 210.482 28.2399C210.482 27.7599 210.429 27.2266 210.322 26.6399C210.269 25.9999 210.082 25.4133 209.762 24.8799C209.495 24.2933 209.042 23.8133 208.402 23.4399C207.815 23.0666 206.962 22.8799 205.842 22.8799C204.349 22.8799 203.149 23.2533 202.242 23.9999C201.335 24.6933 200.882 25.5733 200.882 26.6399C200.882 27.7599 201.335 28.6666 202.242 29.3599C203.202 29.9999 204.375 30.6133 205.762 31.1999C207.202 31.7866 208.749 32.3999 210.402 33.0399C212.055 33.6266 213.575 34.4266 214.962 35.4399C216.402 36.4533 217.575 37.7333 218.482 39.2799C219.442 40.7733 219.922 42.7199 219.922 45.1199C219.922 48.9599 218.562 52.1066 215.842 54.5599C213.122 57.0133 209.042 58.2399 203.602 58.2399C202.109 58.2399 200.375 58.1066 198.402 57.8399C196.482 57.6266 194.642 57.2799 192.882 56.7999C191.122 56.2666 189.629 55.5733 188.402 54.7199C187.229 53.8666 186.642 52.7999 186.642 51.5199C186.642 51.0399 186.722 50.4533 186.882 49.7599C187.095 49.0666 187.389 48.3999 187.762 47.7599C188.189 47.1199 188.669 46.5866 189.202 46.1599C189.789 45.6799 190.482 45.4399 191.282 45.4399C191.922 45.4399 192.509 45.5999 193.042 45.9199C193.575 46.2399 194.189 46.5866 194.882 46.9599C195.629 47.2799 196.535 47.5999 197.602 47.9199C198.669 48.2399 200.082 48.3999 201.842 48.3999C203.175 48.3999 204.349 48.2399 205.362 47.9199C206.429 47.5999 206.962 46.8799 206.962 45.7599C206.962 44.7466 206.535 43.9466 205.682 43.3599C204.829 42.7199 203.735 42.1333 202.402 41.5999C201.122 41.0666 199.709 40.5066 198.162 39.9199C196.669 39.2799 195.255 38.4533 193.922 37.4399C192.642 36.4266 191.575 35.1466 190.722 33.5999C189.869 31.9999 189.442 29.9466 189.442 27.4399C189.442 24.7199 189.975 22.4266 191.042 20.5599C192.162 18.6399 193.575 17.0933 195.282 15.9199C197.042 14.7466 199.015 13.9199 201.202 13.4399C203.389 12.9066 205.575 12.6399 207.762 12.6399ZM224.3 47.5999C224.3 42.7999 226.46 39.0399 230.78 36.3199C235.1 33.5999 241.473 32.1333 249.9 31.9199C249.953 31.3333 249.98 30.8533 249.98 30.4799C250.033 30.0533 250.06 29.5466 250.06 28.9599C250.06 27.2533 249.74 25.8933 249.1 24.8799C248.46 23.8666 247.127 23.3599 245.1 23.3599C243.98 23.3599 243.073 23.5199 242.38 23.8399C241.687 24.1599 241.127 24.6133 240.7 25.1999C240.273 25.7333 239.927 26.3999 239.66 27.1999C239.393 27.9999 239.153 28.8799 238.94 29.8399C238.833 30.3199 238.593 30.6399 238.22 30.7999C237.847 30.9066 237.26 30.9599 236.46 30.9599C231.02 30.9599 228.3 28.9066 228.3 24.7999C228.3 23.1466 228.673 21.5733 229.42 20.0799C230.22 18.5866 231.367 17.3066 232.86 16.2399C234.407 15.1199 236.327 14.2399 238.62 13.5999C240.913 12.9599 243.58 12.6399 246.62 12.6399C252.54 12.6399 256.833 13.8666 259.5 16.3199C262.167 18.7733 263.5 22.2399 263.5 26.7199C263.5 27.3066 263.42 28.3733 263.26 29.9199C263.153 31.4133 262.993 33.0133 262.78 34.7199C262.62 36.3733 262.46 37.9466 262.3 39.4399C262.193 40.9333 262.14 41.9733 262.14 42.5599C262.14 43.8933 262.38 44.8533 262.86 45.4399C263.34 45.9733 263.873 46.3466 264.46 46.5599C265.1 46.7733 265.66 46.9333 266.14 47.0399C266.62 47.1466 266.86 47.4133 266.86 47.8399C266.86 49.0133 266.7 50.2133 266.38 51.4399C266.06 52.6666 265.527 53.7866 264.78 54.7999C264.087 55.8133 263.1 56.6399 261.82 57.2799C260.593 57.9199 259.073 58.2399 257.26 58.2399C254.7 58.2399 252.78 57.6266 251.5 56.3999C250.22 55.1733 249.367 53.4666 248.94 51.2799C247.66 53.1466 245.98 54.7733 243.9 56.1599C241.873 57.5466 239.207 58.2399 235.9 58.2399C234.3 58.2399 232.78 58.0533 231.34 57.6799C229.953 57.3066 228.727 56.6933 227.66 55.8399C226.647 54.9866 225.82 53.8933 225.18 52.5599C224.593 51.1733 224.3 49.5199 224.3 47.5999ZM249.18 38.4799C247.793 38.4799 246.433 38.5866 245.1 38.7999C243.767 39.0133 242.567 39.3599 241.5 39.8399C240.487 40.2666 239.66 40.8533 239.02 41.5999C238.38 42.3466 238.06 43.2533 238.06 44.3199C238.06 45.5466 238.433 46.3999 239.18 46.8799C239.98 47.3599 240.833 47.5999 241.74 47.5999C242.593 47.5999 243.447 47.4133 244.3 47.0399C245.153 46.6666 245.9 46.1066 246.54 45.3599C247.233 44.5599 247.82 43.5999 248.3 42.4799C248.78 41.3599 249.073 40.0266 249.18 38.4799ZM285.618 43.0399C285.458 45.4933 285.271 47.8399 285.058 50.0799C284.845 52.2666 284.685 54.1866 284.578 55.8399C284.525 56.4799 284.391 56.9066 284.178 57.1199C283.965 57.3333 283.511 57.4399 282.818 57.4399H279.938C278.285 57.4399 276.925 57.2799 275.858 56.9599C274.845 56.5866 274.018 56.0799 273.378 55.4399C272.791 54.7999 272.365 54.0266 272.098 53.1199C271.885 52.1599 271.778 51.0666 271.778 49.8399C271.778 49.0399 271.805 47.9199 271.858 46.4799C271.965 44.9866 272.125 42.9599 272.338 40.3999C272.551 37.7866 272.791 34.5066 273.058 30.5599C273.378 26.5599 273.751 21.6266 274.178 15.7599C274.231 14.5866 274.365 13.8933 274.578 13.6799C274.738 13.5199 275.165 13.4399 275.858 13.4399H278.978C280.578 13.4399 281.885 13.6266 282.898 13.9999C283.911 14.3733 284.738 14.8533 285.378 15.4399C286.018 16.0266 286.471 16.7199 286.738 17.5199C287.005 18.3199 287.165 19.1466 287.218 19.9999C288.765 17.1199 290.525 15.1733 292.498 14.1599C294.471 13.1466 296.791 12.6399 299.458 12.6399C300.898 12.6399 302.285 12.7733 303.618 13.0399C304.951 13.3066 306.151 13.7599 307.218 14.3999C308.285 15.0399 309.191 15.8933 309.938 16.9599C310.685 17.9733 311.218 19.2799 311.538 20.8799C313.191 17.7866 315.005 15.6533 316.978 14.4799C318.951 13.2533 321.431 12.6399 324.418 12.6399C326.071 12.6399 327.645 12.8266 329.138 13.1999C330.685 13.5199 332.018 14.1066 333.138 14.9599C334.258 15.8133 335.138 16.9866 335.778 18.4799C336.471 19.9199 336.818 21.7333 336.818 23.9199C336.818 25.5733 336.738 27.5999 336.578 29.9999C336.418 32.3999 336.231 35.0133 336.018 37.8399C335.805 40.6133 335.565 43.4933 335.298 46.4799C335.031 49.4133 334.818 52.2399 334.658 54.9599C334.605 55.5466 334.551 55.9999 334.498 56.3199C334.445 56.6399 334.338 56.8799 334.178 57.0399C334.071 57.1999 333.885 57.3066 333.618 57.3599C333.351 57.4133 332.978 57.4399 332.498 57.4399H329.938C328.231 57.4399 326.845 57.2799 325.778 56.9599C324.711 56.6399 323.885 56.1866 323.298 55.5999C322.711 55.0133 322.285 54.2933 322.018 53.4399C321.805 52.5333 321.698 51.5199 321.698 50.3999C321.698 49.7066 321.725 48.7199 321.778 47.4399C321.885 46.1599 321.991 44.7733 322.098 43.2799C322.258 41.7866 322.391 40.2399 322.498 38.6399C322.658 37.0399 322.791 35.5733 322.898 34.2399C323.058 32.8533 323.165 31.6533 323.218 30.6399C323.325 29.6266 323.378 28.9599 323.378 28.6399C323.378 27.2533 323.085 26.0266 322.498 24.9599C321.965 23.8933 320.898 23.3599 319.298 23.3599C317.911 23.3599 316.711 23.8133 315.698 24.7199C314.685 25.6266 313.831 26.8799 313.138 28.4799C312.445 30.0799 311.885 31.9733 311.458 34.1599C311.031 36.3466 310.738 38.7199 310.578 41.2799C310.471 42.9333 310.338 44.8266 310.178 46.9599C310.018 49.0933 309.831 51.7599 309.618 54.9599C309.565 55.5466 309.511 55.9999 309.458 56.3199C309.405 56.6399 309.298 56.8799 309.138 57.0399C309.031 57.1999 308.845 57.3066 308.578 57.3599C308.311 57.4133 307.938 57.4399 307.458 57.4399H304.898C303.191 57.4399 301.805 57.2799 300.738 56.9599C299.671 56.6399 298.845 56.1866 298.258 55.5999C297.671 55.0133 297.245 54.2933 296.978 53.4399C296.765 52.5333 296.658 51.5199 296.658 50.3999C296.658 49.3333 296.738 47.7866 296.898 45.7599C297.111 43.6799 297.298 41.5466 297.458 39.3599C297.671 37.1199 297.858 35.0133 298.018 33.0399C298.231 31.0133 298.338 29.5466 298.338 28.6399C298.338 27.2533 298.045 26.0266 297.458 24.9599C296.925 23.8933 295.858 23.3599 294.258 23.3599C292.818 23.3599 291.591 23.8933 290.578 24.9599C289.565 26.0266 288.711 27.4666 288.018 29.2799C287.378 31.0399 286.845 33.1199 286.418 35.5199C286.045 37.9199 285.778 40.4266 285.618 43.0399ZM341.566 47.5999C341.566 42.7999 343.726 39.0399 348.046 36.3199C352.366 33.5999 358.739 32.1333 367.166 31.9199C367.219 31.3333 367.246 30.8533 367.246 30.4799C367.299 30.0533 367.326 29.5466 367.326 28.9599C367.326 27.2533 367.006 25.8933 366.366 24.8799C365.726 23.8666 364.392 23.3599 362.366 23.3599C361.246 23.3599 360.339 23.5199 359.646 23.8399C358.952 24.1599 358.392 24.6133 357.966 25.1999C357.539 25.7333 357.192 26.3999 356.926 27.1999C356.659 27.9999 356.419 28.8799 356.206 29.8399C356.099 30.3199 355.859 30.6399 355.486 30.7999C355.112 30.9066 354.526 30.9599 353.726 30.9599C348.286 30.9599 345.566 28.9066 345.566 24.7999C345.566 23.1466 345.939 21.5733 346.686 20.0799C347.486 18.5866 348.632 17.3066 350.126 16.2399C351.672 15.1199 353.592 14.2399 355.886 13.5999C358.179 12.9599 360.846 12.6399 363.886 12.6399C369.806 12.6399 374.099 13.8666 376.766 16.3199C379.432 18.7733 380.766 22.2399 380.766 26.7199C380.766 27.3066 380.686 28.3733 380.526 29.9199C380.419 31.4133 380.259 33.0133 380.046 34.7199C379.886 36.3733 379.726 37.9466 379.566 39.4399C379.459 40.9333 379.406 41.9733 379.406 42.5599C379.406 43.8933 379.646 44.8533 380.126 45.4399C380.606 45.9733 381.139 46.3466 381.726 46.5599C382.366 46.7733 382.926 46.9333 383.406 47.0399C383.886 47.1466 384.126 47.4133 384.126 47.8399C384.126 49.0133 383.966 50.2133 383.646 51.4399C383.326 52.6666 382.792 53.7866 382.046 54.7999C381.352 55.8133 380.366 56.6399 379.086 57.2799C377.859 57.9199 376.339 58.2399 374.526 58.2399C371.966 58.2399 370.046 57.6266 368.766 56.3999C367.486 55.1733 366.632 53.4666 366.206 51.2799C364.926 53.1466 363.246 54.7733 361.166 56.1599C359.139 57.5466 356.472 58.2399 353.166 58.2399C351.566 58.2399 350.046 58.0533 348.606 57.6799C347.219 57.3066 345.992 56.6933 344.926 55.8399C343.912 54.9866 343.086 53.8933 342.446 52.5599C341.859 51.1733 341.566 49.5199 341.566 47.5999ZM366.446 38.4799C365.059 38.4799 363.699 38.5866 362.366 38.7999C361.032 39.0133 359.832 39.3599 358.766 39.8399C357.752 40.2666 356.926 40.8533 356.286 41.5999C355.646 42.3466 355.326 43.2533 355.326 44.3199C355.326 45.5466 355.699 46.3999 356.446 46.8799C357.246 47.3599 358.099 47.5999 359.006 47.5999C359.859 47.5999 360.712 47.4133 361.566 47.0399C362.419 46.6666 363.166 46.1066 363.806 45.3599C364.499 44.5599 365.086 43.5999 365.566 42.4799C366.046 41.3599 366.339 40.0266 366.446 38.4799ZM63.1247 127.44C60.0847 127.44 57.9247 126.853 56.6447 125.68C55.418 124.453 54.8047 122.667 54.8047 120.32C54.8047 119.627 54.8314 118.533 54.8847 117.04C54.9914 115.493 55.1247 113.68 55.2847 111.6C55.4447 109.52 55.6047 107.253 55.7647 104.8C55.978 102.347 56.1914 99.8399 56.4047 97.2799C56.6714 94.1333 56.8847 91.4399 57.0447 89.1999C57.258 86.9066 57.418 84.9599 57.5247 83.3599C57.6314 81.7066 57.7114 80.3466 57.7647 79.2799C57.8714 78.1599 57.9247 77.1999 57.9247 76.3999C57.978 75.5466 58.0047 74.7733 58.0047 74.0799C58.058 73.3866 58.0847 72.6399 58.0847 71.8399C58.0847 71.4133 58.218 71.1199 58.4847 70.9599C58.7514 70.7466 59.018 70.6399 59.2847 70.6399C60.6714 70.6399 62.1914 70.6133 63.8447 70.5599C65.498 70.4533 67.1514 70.3466 68.8047 70.2399C70.458 70.1333 72.058 70.0533 73.6047 69.9999C75.1514 69.8933 76.5114 69.8399 77.6847 69.8399C81.098 69.8399 84.0314 70.2666 86.4847 71.1199C88.938 71.9199 90.9114 73.1199 92.4047 74.7199C93.9514 76.2666 95.0714 78.1599 95.7647 80.3999C96.5114 82.6399 96.8847 85.1999 96.8847 88.0799C96.8847 91.2266 96.458 94.2666 95.6047 97.1999C94.8047 100.08 93.5247 102.64 91.7647 104.88C90.0047 107.12 87.738 108.907 84.9647 110.24C82.1914 111.573 78.8847 112.24 75.0447 112.24C72.7514 112.24 70.8047 112 69.2047 111.52L68.0847 126.24C68.0314 126.667 67.9247 126.987 67.7647 127.2C67.6047 127.36 67.2847 127.44 66.8047 127.44H63.1247ZM76.0847 81.8399C75.3914 81.8399 74.618 81.8933 73.7647 81.9999C72.9114 82.0533 72.0047 82.1333 71.0447 82.2399C70.938 84.4799 70.8047 87.1999 70.6447 90.3999C70.4847 93.5999 70.2714 96.9599 70.0047 100.48C70.8047 100.693 71.578 100.853 72.3247 100.96C73.1247 101.013 73.8447 101.04 74.4847 101.04C76.3514 101.04 77.8447 100.613 78.9647 99.7599C80.138 98.8533 81.0447 97.7599 81.6847 96.4799C82.3247 95.1999 82.7514 93.8666 82.9647 92.4799C83.178 91.0933 83.2847 89.8933 83.2847 88.8799C83.2847 86.5866 82.7514 84.8533 81.6847 83.6799C80.6714 82.4533 78.8047 81.8399 76.0847 81.8399ZM119.516 128.24C117.169 128.24 114.823 127.947 112.476 127.36C110.183 126.773 108.103 125.76 106.236 124.32C104.423 122.88 102.929 120.96 101.756 118.56C100.583 116.16 99.9959 113.147 99.9959 109.52C99.9959 108.187 100.103 106.587 100.316 104.72C100.529 102.853 100.929 100.933 101.516 98.9599C102.156 96.9866 103.009 95.0399 104.076 93.1199C105.196 91.1466 106.636 89.3866 108.396 87.8399C110.156 86.2933 112.289 85.0399 114.796 84.0799C117.303 83.1199 120.289 82.6399 123.756 82.6399C126.529 82.6399 128.876 82.9599 130.796 83.5999C132.716 84.2399 134.263 85.1199 135.436 86.2399C136.609 87.3066 137.463 88.5599 137.996 89.9999C138.529 91.4399 138.796 92.9866 138.796 94.6399C138.796 97.0933 138.289 99.1733 137.276 100.88C136.316 102.587 135.036 104.027 133.436 105.2C131.889 106.32 130.156 107.2 128.236 107.84C126.316 108.48 124.423 108.987 122.556 109.36C120.689 109.68 118.956 109.893 117.356 110C115.809 110.053 114.609 110.08 113.756 110.08C113.756 111.093 113.889 112.107 114.156 113.12C114.476 114.08 114.929 114.933 115.516 115.68C116.103 116.427 116.876 117.04 117.836 117.52C118.796 118 119.969 118.24 121.356 118.24C122.743 118.24 123.809 118.027 124.556 117.6C125.356 117.12 125.996 116.613 126.476 116.08C126.956 115.493 127.356 114.987 127.676 114.56C128.049 114.08 128.529 113.84 129.116 113.84C129.383 113.84 129.836 113.92 130.476 114.08C131.169 114.187 131.863 114.453 132.556 114.88C133.249 115.307 133.863 115.893 134.396 116.64C134.929 117.387 135.196 118.347 135.196 119.52C135.196 121.067 134.716 122.4 133.756 123.52C132.796 124.64 131.543 125.547 129.996 126.24C128.503 126.933 126.823 127.44 124.956 127.76C123.089 128.08 121.276 128.24 119.516 128.24ZM121.036 93.2799C119.863 93.2799 118.849 93.6266 117.996 94.3199C117.196 94.9599 116.503 95.7866 115.916 96.7999C115.383 97.8133 114.956 98.9333 114.636 100.16C114.369 101.387 114.156 102.56 113.996 103.68C117.303 103.627 119.969 103.067 121.996 102C124.076 100.933 125.116 99.4133 125.116 97.4399C125.116 96.3733 124.769 95.4133 124.076 94.5599C123.436 93.7066 122.423 93.2799 121.036 93.2799ZM157.454 113.04C157.294 115.493 157.107 117.84 156.894 120.08C156.681 122.267 156.521 124.187 156.414 125.84C156.361 126.48 156.227 126.907 156.014 127.12C155.801 127.333 155.347 127.44 154.654 127.44H151.774C150.121 127.44 148.761 127.28 147.694 126.96C146.681 126.587 145.854 126.08 145.214 125.44C144.627 124.8 144.201 124.027 143.934 123.12C143.721 122.16 143.614 121.067 143.614 119.84C143.614 119.04 143.641 117.92 143.694 116.48C143.801 114.987 143.961 112.96 144.174 110.4C144.387 107.787 144.627 104.507 144.894 100.56C145.214 96.5599 145.587 91.6266 146.014 85.7599C146.067 84.5866 146.201 83.8933 146.414 83.6799C146.574 83.5199 147.001 83.4399 147.694 83.4399H150.814C152.414 83.4399 153.721 83.6266 154.734 83.9999C155.747 84.3733 156.574 84.8533 157.214 85.4399C157.854 86.0266 158.307 86.7199 158.574 87.5199C158.841 88.3199 159.001 89.1466 159.054 89.9999C160.601 87.1199 162.361 85.1733 164.334 84.1599C166.307 83.1466 168.627 82.6399 171.294 82.6399C172.734 82.6399 174.121 82.7733 175.454 83.0399C176.787 83.3066 177.987 83.7599 179.054 84.3999C180.121 85.0399 181.027 85.8933 181.774 86.9599C182.521 87.9733 183.054 89.2799 183.374 90.8799C185.027 87.7866 186.841 85.6533 188.814 84.4799C190.787 83.2533 193.267 82.6399 196.254 82.6399C197.907 82.6399 199.481 82.8266 200.974 83.1999C202.521 83.5199 203.854 84.1066 204.974 84.9599C206.094 85.8133 206.974 86.9866 207.614 88.4799C208.307 89.9199 208.654 91.7333 208.654 93.9199C208.654 95.5733 208.574 97.5999 208.414 99.9999C208.254 102.4 208.067 105.013 207.854 107.84C207.641 110.613 207.401 113.493 207.134 116.48C206.867 119.413 206.654 122.24 206.494 124.96C206.441 125.547 206.387 126 206.334 126.32C206.281 126.64 206.174 126.88 206.014 127.04C205.907 127.2 205.721 127.307 205.454 127.36C205.187 127.413 204.814 127.44 204.334 127.44H201.774C200.067 127.44 198.681 127.28 197.614 126.96C196.547 126.64 195.721 126.187 195.134 125.6C194.547 125.013 194.121 124.293 193.854 123.44C193.641 122.533 193.534 121.52 193.534 120.4C193.534 119.707 193.561 118.72 193.614 117.44C193.721 116.16 193.827 114.773 193.934 113.28C194.094 111.787 194.227 110.24 194.334 108.64C194.494 107.04 194.627 105.573 194.734 104.24C194.894 102.853 195.001 101.653 195.054 100.64C195.161 99.6266 195.214 98.9599 195.214 98.6399C195.214 97.2533 194.921 96.0266 194.334 94.9599C193.801 93.8933 192.734 93.3599 191.134 93.3599C189.747 93.3599 188.547 93.8133 187.534 94.7199C186.521 95.6266 185.667 96.8799 184.974 98.4799C184.281 100.08 183.721 101.973 183.294 104.16C182.867 106.347 182.574 108.72 182.414 111.28C182.307 112.933 182.174 114.827 182.014 116.96C181.854 119.093 181.667 121.76 181.454 124.96C181.401 125.547 181.347 126 181.294 126.32C181.241 126.64 181.134 126.88 180.974 127.04C180.867 127.2 180.681 127.307 180.414 127.36C180.147 127.413 179.774 127.44 179.294 127.44H176.734C175.027 127.44 173.641 127.28 172.574 126.96C171.507 126.64 170.681 126.187 170.094 125.6C169.507 125.013 169.081 124.293 168.814 123.44C168.601 122.533 168.494 121.52 168.494 120.4C168.494 119.333 168.574 117.787 168.734 115.76C168.947 113.68 169.134 111.547 169.294 109.36C169.507 107.12 169.694 105.013 169.854 103.04C170.067 101.013 170.174 99.5466 170.174 98.6399C170.174 97.2533 169.881 96.0266 169.294 94.9599C168.761 93.8933 167.694 93.3599 166.094 93.3599C164.654 93.3599 163.427 93.8933 162.414 94.9599C161.401 96.0266 160.547 97.4666 159.854 99.2799C159.214 101.04 158.681 103.12 158.254 105.52C157.881 107.92 157.614 110.427 157.454 113.04ZM243.482 82.6399C248.495 82.6399 252.255 84.1866 254.762 87.2799C257.322 90.3733 258.602 95.2533 258.602 101.92C258.602 106.08 258.122 109.787 257.162 113.04C256.202 116.293 254.868 119.067 253.162 121.36C251.455 123.6 249.455 125.307 247.162 126.48C244.868 127.653 242.388 128.24 239.722 128.24C236.895 128.24 234.682 127.627 233.082 126.4C231.482 125.173 230.228 123.44 229.322 121.2C229.162 123.12 229.028 124.587 228.922 125.6C228.815 126.613 228.735 127.413 228.682 128C228.628 128.64 228.575 129.2 228.522 129.68C228.522 130.16 228.468 130.8 228.362 131.6C228.308 132.4 228.228 133.493 228.122 134.88C228.015 136.267 227.855 138.187 227.642 140.64C227.588 141.28 227.455 141.707 227.242 141.92C227.028 142.133 226.575 142.24 225.882 142.24H223.002C221.348 142.24 219.988 142.053 218.922 141.68C217.908 141.36 217.082 140.88 216.442 140.24C215.855 139.6 215.428 138.8 215.162 137.84C214.948 136.933 214.842 135.867 214.842 134.64C214.842 134.107 214.922 132.667 215.082 130.32C215.242 127.973 215.428 125.173 215.642 121.92C215.908 118.613 216.175 115.067 216.442 111.28C216.762 107.493 217.055 103.893 217.322 100.48C217.588 97.0133 217.802 93.9466 217.962 91.2799C218.175 88.6133 218.335 86.7733 218.442 85.7599C218.495 84.5866 218.628 83.8933 218.842 83.6799C219.002 83.5199 219.428 83.4399 220.122 83.4399H223.242C226.122 83.4399 228.202 84.0533 229.482 85.2799C230.815 86.4533 231.482 87.8666 231.482 89.5199C232.708 87.0666 234.282 85.3066 236.202 84.2399C238.175 83.1733 240.602 82.6399 243.482 82.6399ZM237.642 93.2799C234.922 93.2799 232.922 94.4533 231.642 96.7999C230.362 99.1466 229.722 102.347 229.722 106.4C229.722 107.787 229.802 109.147 229.962 110.48C230.175 111.813 230.522 113.013 231.002 114.08C231.482 115.147 232.122 116 232.922 116.64C233.775 117.28 234.842 117.6 236.122 117.6C238.415 117.6 240.335 116.48 241.882 114.24C243.428 112 244.202 108.48 244.202 103.68C244.202 102.347 244.095 101.067 243.882 99.8399C243.722 98.5599 243.402 97.4399 242.922 96.4799C242.442 95.5199 241.775 94.7466 240.922 94.1599C240.068 93.5733 238.975 93.2799 237.642 93.2799ZM290.626 102.56C290.306 102.56 289.933 102.56 289.506 102.56C289.133 102.507 288.759 102.453 288.386 102.4C288.013 102.293 287.693 102.187 287.426 102.08C287.159 101.92 287.026 101.733 287.026 101.52C287.026 100.827 287.053 100.187 287.106 99.5999C287.159 99.0133 287.186 98.3999 287.186 97.7599C287.186 96.5866 287.026 95.6266 286.706 94.8799C286.386 94.1333 285.746 93.7599 284.786 93.7599C283.293 93.7599 282.039 94.7466 281.026 96.7199C280.066 98.6399 279.453 101.547 279.186 105.44C279.079 107.147 278.919 109.093 278.706 111.28C278.546 113.413 278.386 115.493 278.226 117.52C278.066 119.493 277.933 121.253 277.826 122.8C277.719 124.347 277.666 125.36 277.666 125.84C277.666 126.373 277.479 126.773 277.106 127.04C276.733 127.307 276.333 127.44 275.906 127.44H273.026C271.373 127.44 270.013 127.28 268.946 126.96C267.933 126.587 267.106 126.08 266.466 125.44C265.879 124.8 265.453 124.027 265.186 123.12C264.973 122.16 264.866 121.067 264.866 119.84C264.866 119.04 264.893 117.92 264.946 116.48C265.053 114.987 265.213 112.96 265.426 110.4C265.639 107.787 265.879 104.507 266.146 100.56C266.466 96.5599 266.839 91.6266 267.266 85.7599C267.373 84.2133 267.933 83.4399 268.946 83.4399H272.066C273.559 83.4399 274.813 83.5999 275.826 83.9199C276.839 84.2399 277.666 84.6933 278.306 85.2799C278.946 85.8133 279.399 86.4533 279.666 87.1999C279.986 87.9466 280.199 88.7199 280.306 89.5199C280.946 88.2933 281.693 87.2533 282.546 86.3999C283.453 85.4933 284.386 84.7733 285.346 84.2399C286.306 83.6533 287.293 83.2533 288.306 83.0399C289.319 82.7733 290.253 82.6399 291.106 82.6399C292.119 82.6399 293.133 82.8266 294.146 83.1999C295.213 83.5733 296.173 84.1333 297.026 84.8799C297.879 85.6266 298.546 86.5866 299.026 87.7599C299.559 88.9333 299.826 90.3199 299.826 91.9199C299.826 93.3599 299.613 94.7199 299.186 95.9999C298.759 97.2799 298.146 98.4266 297.346 99.4399C296.546 100.4 295.559 101.173 294.386 101.76C293.266 102.293 292.013 102.56 290.626 102.56ZM320.987 128.24C317.307 128.24 314.241 127.733 311.787 126.72C309.387 125.653 307.467 124.213 306.027 122.4C304.587 120.587 303.574 118.48 302.987 116.08C302.401 113.627 302.107 111.013 302.107 108.24C302.107 105.04 302.481 101.92 303.227 98.8799C304.027 95.7866 305.361 93.0399 307.227 90.6399C309.094 88.2399 311.547 86.3199 314.587 84.8799C317.681 83.3866 321.521 82.6399 326.107 82.6399C332.827 82.6399 337.627 84.2933 340.507 87.5999C343.441 90.8533 344.907 95.4399 344.907 101.36C344.907 103.013 344.774 104.853 344.507 106.88C344.294 108.853 343.841 110.827 343.147 112.8C342.507 114.773 341.601 116.693 340.427 118.56C339.307 120.427 337.867 122.08 336.107 123.52C334.347 124.96 332.214 126.107 329.707 126.96C327.254 127.813 324.347 128.24 320.987 128.24ZM324.747 93.2799C322.721 93.2799 321.094 93.8133 319.867 94.8799C318.694 95.8933 317.787 97.1466 317.147 98.6399C316.561 100.08 316.161 101.627 315.947 103.28C315.787 104.88 315.707 106.24 315.707 107.36C315.707 110.88 316.267 113.467 317.387 115.12C318.507 116.773 320.107 117.6 322.187 117.6C324.054 117.6 325.574 117.013 326.747 115.84C327.974 114.667 328.907 113.253 329.547 111.6C330.241 109.947 330.694 108.213 330.907 106.4C331.174 104.587 331.307 103.067 331.307 101.84C331.307 99.1733 330.801 97.0933 329.787 95.5999C328.827 94.0533 327.147 93.2799 324.747 93.2799ZM368.418 117.28C369.058 115.04 369.645 112.827 370.178 110.64C370.765 108.453 371.325 106.133 371.858 103.68C372.445 101.173 373.058 98.4533 373.698 95.5199C374.392 92.5333 375.192 89.1466 376.098 85.3599C376.258 84.6133 376.498 84.1333 376.818 83.9199C377.138 83.6533 377.832 83.5199 378.898 83.5199C379.698 83.5199 380.765 83.5466 382.098 83.5999C383.432 83.6533 384.738 83.8399 386.018 84.1599C387.298 84.4799 388.392 84.9599 389.298 85.5999C390.258 86.2399 390.738 87.1199 390.738 88.2399C390.738 89.1466 390.418 90.6133 389.778 92.6399C389.138 94.6666 388.312 96.9866 387.298 99.5999C386.285 102.16 385.138 104.853 383.858 107.68C382.632 110.507 381.432 113.173 380.258 115.68C379.085 118.187 377.992 120.4 376.978 122.32C375.965 124.187 375.218 125.493 374.738 126.24C374.312 126.827 373.938 127.173 373.618 127.28C373.298 127.387 372.765 127.44 372.018 127.44H364.898C363.778 127.44 362.845 127.253 362.098 126.88C361.405 126.453 360.818 125.92 360.338 125.28C359.858 124.64 359.458 123.92 359.138 123.12C358.818 122.267 358.525 121.387 358.258 120.48C356.712 115.147 355.352 110.587 354.178 106.8C353.058 102.96 352.098 99.7599 351.298 97.1999C350.498 94.6399 349.858 92.6133 349.378 91.1199C348.898 89.5733 348.525 88.3999 348.258 87.5999C347.992 86.7466 347.805 86.1866 347.698 85.9199C347.592 85.5999 347.538 85.3866 347.538 85.2799C347.592 84.9066 347.858 84.5066 348.338 84.0799C348.818 83.6533 349.432 83.4399 350.178 83.4399C352.632 83.4399 354.712 83.5466 356.418 83.7599C358.178 83.9199 359.618 84.2399 360.738 84.7199C361.912 85.1999 362.792 85.8666 363.378 86.7199C364.018 87.5733 364.472 88.6933 364.738 90.0799C364.792 90.4533 364.898 91.1999 365.058 92.3199C365.218 93.4399 365.378 94.7999 365.538 96.3999C365.752 97.9466 365.992 99.6799 366.258 101.6C366.525 103.467 366.765 105.36 366.978 107.28C367.245 109.147 367.485 110.96 367.698 112.72C367.965 114.48 368.205 116 368.418 117.28ZM3.28 141.84C3.33333 141.413 3.49333 141.12 3.76 140.96C4.08 140.747 4.37333 140.64 4.64 140.64C8.26667 140.64 11.6533 140.533 14.8 140.32C18 140.053 20.5067 139.92 22.32 139.92C26.8533 139.92 30.64 140.373 33.68 141.28C36.7733 142.187 39.2533 143.6 41.12 145.52C43.04 147.44 44.4 149.92 45.2 152.96C46 156 46.4 159.653 46.4 163.92C46.4 168.24 45.9467 172.48 45.04 176.64C44.1867 180.747 42.6667 184.4 40.48 187.6C38.2933 190.8 35.3333 193.387 31.6 195.36C27.92 197.28 23.2533 198.24 17.6 198.24C14.9867 198.24 12.5867 198.187 10.4 198.08C8.26667 197.973 6.42667 197.653 4.88 197.12C3.33333 196.587 2.13333 195.787 1.28 194.72C0.426665 193.653 -1.60933e-06 192.187 -1.60933e-06 190.32C-1.60933e-06 189.627 0.026665 188.587 0.0799983 187.2C0.186665 185.813 0.293332 184.16 0.399998 182.24C0.559998 180.32 0.719998 178.213 0.879998 175.92C1.09333 173.573 1.30666 171.12 1.52 168.56C1.94666 163.28 2.26666 159.067 2.48 155.92C2.74667 152.773 2.90667 150.32 2.96 148.56C3.06667 146.747 3.12 145.387 3.12 144.48C3.17333 143.573 3.22667 142.693 3.28 141.84ZM18.16 185.6C21.1467 185.6 23.52 184.96 25.28 183.68C27.0933 182.4 28.48 180.773 29.44 178.8C30.4 176.827 31.04 174.667 31.36 172.32C31.68 169.973 31.84 167.76 31.84 165.68C31.84 163.44 31.68 161.493 31.36 159.84C31.0933 158.133 30.5867 156.72 29.84 155.6C29.1467 154.48 28.16 153.653 26.88 153.12C25.6 152.533 24 152.24 22.08 152.24C21.4933 152.24 20.7467 152.267 19.84 152.32C18.9333 152.373 17.84 152.453 16.56 152.56C16.4533 154.533 16.32 156.88 16.16 159.6C16 162.267 15.8133 165.093 15.6 168.08C15.44 171.013 15.2533 174 15.04 177.04C14.8267 180.027 14.6133 182.8 14.4 185.36C15.2 185.467 15.92 185.547 16.56 185.6C17.2 185.6 17.7333 185.6 18.16 185.6ZM97.0413 192.24C97.0413 192.667 96.7746 193.227 96.2412 193.92C95.7613 194.56 95.0679 195.2 94.1613 195.84C93.3079 196.48 92.2946 197.04 91.1213 197.52C90.0013 198 88.8013 198.24 87.5213 198.24C85.5479 198.24 83.8146 197.627 82.3213 196.4C80.8279 195.12 79.4679 193.387 78.2412 191.2C77.0679 189.013 75.9746 186.427 74.9613 183.44C73.9479 180.4 72.9079 177.12 71.8412 173.6L68.8012 175.6L67.2812 196.24C67.2279 196.667 67.1212 196.987 66.9612 197.2C66.8012 197.36 66.4812 197.44 66.0012 197.44H61.6012C58.5612 197.44 56.4012 196.853 55.1212 195.68C53.8946 194.453 53.2812 192.667 53.2812 190.32C53.2812 189.573 53.3079 188.453 53.3612 186.96C53.4679 185.413 53.6012 183.627 53.7612 181.6C53.9212 179.52 54.0812 177.253 54.2412 174.8C54.4546 172.347 54.6679 169.84 54.8812 167.28C55.2546 162.16 55.5479 158.107 55.7612 155.12C56.0279 152.133 56.2146 149.787 56.3212 148.08C56.4279 146.32 56.5079 145.04 56.5612 144.24C56.6146 143.387 56.6412 142.587 56.6412 141.84C56.6412 141.04 57.0679 140.64 57.9212 140.64H62.3212C64.0279 140.64 65.3879 140.827 66.4012 141.2C67.4679 141.52 68.2946 142 68.8812 142.64C69.4679 143.28 69.8679 144.08 70.0812 145.04C70.2946 145.947 70.4012 147.013 70.4012 148.24C70.4012 149.467 70.3212 151.467 70.1613 154.24C70.0546 156.96 69.8679 160.027 69.6013 163.44C71.4146 161.2 73.5746 158.427 76.0813 155.12C78.6412 151.813 81.7346 147.733 85.3612 142.88C85.5212 142.667 85.7346 142.4 86.0012 142.08C86.3212 141.707 86.6413 141.36 86.9613 141.04C87.3346 140.72 87.7079 140.453 88.0813 140.24C88.5079 139.973 88.9079 139.84 89.2813 139.84C89.9746 139.84 90.7746 140.213 91.6812 140.96C92.5879 141.653 93.4413 142.533 94.2413 143.6C95.0412 144.613 95.7079 145.68 96.2412 146.8C96.8279 147.867 97.1213 148.773 97.1213 149.52C97.1213 151.067 95.7346 153.387 92.9613 156.48C90.1879 159.52 86.2146 163.04 81.0413 167.04C81.9479 168.587 82.9879 170.267 84.1612 172.08C85.3346 173.84 86.5079 175.653 87.6813 177.52C88.8546 179.333 90.0013 181.12 91.1213 182.88C92.2413 184.587 93.2279 186.133 94.0813 187.52C94.9879 188.853 95.7079 189.947 96.2412 190.8C96.7746 191.653 97.0413 192.133 97.0413 192.24ZM111.445 197.44C108.458 197.44 106.325 196.853 105.045 195.68C103.765 194.507 103.125 192.827 103.125 190.64C103.125 189.573 103.205 187.76 103.365 185.2C103.525 182.587 103.738 179.627 104.005 176.32C104.272 173.013 104.538 169.52 104.805 165.84C105.072 162.16 105.338 158.693 105.605 155.44C105.872 152.187 106.085 149.333 106.245 146.88C106.405 144.427 106.485 142.747 106.485 141.84C106.485 141.04 106.912 140.64 107.765 140.64H112.165C115.418 140.64 117.605 141.333 118.725 142.72C119.845 144.107 120.405 146.16 120.405 148.88C120.405 149.147 120.352 150 120.245 151.44C120.192 152.88 120.085 154.693 119.925 156.88C119.765 159.067 119.578 161.52 119.365 164.24C119.205 166.907 119.018 169.653 118.805 172.48C118.645 175.307 118.458 178.08 118.245 180.8C118.085 183.467 117.925 185.893 117.765 188.08C117.605 190.267 117.472 192.107 117.365 193.6C117.258 195.04 117.178 195.92 117.125 196.24C117.072 196.667 116.965 196.987 116.805 197.2C116.645 197.36 116.325 197.44 115.845 197.44H111.445ZM152.479 185.76C153.653 185.76 154.586 185.333 155.279 184.48C156.026 183.627 156.639 182.48 157.119 181.04C157.599 179.6 157.973 177.947 158.239 176.08C158.559 174.16 158.853 172.133 159.119 170C159.226 169.04 159.333 167.92 159.439 166.64C159.546 165.307 159.653 163.627 159.759 161.6C159.919 159.52 160.079 156.96 160.239 153.92C160.453 150.827 160.693 147.04 160.959 142.56C161.013 141.813 161.093 141.307 161.199 141.04C161.306 140.773 161.653 140.64 162.239 140.64H166.639C168.453 140.64 169.866 140.8 170.879 141.12C171.946 141.44 172.746 141.84 173.279 142.32C173.813 142.8 174.133 143.333 174.239 143.92C174.346 144.453 174.399 144.987 174.399 145.52C174.399 146.053 174.373 147.28 174.319 149.2C174.266 151.12 174.186 153.36 174.079 155.92C173.973 158.427 173.813 161.067 173.599 163.84C173.439 166.613 173.253 169.12 173.039 171.36C172.719 174.4 172.213 177.52 171.519 180.72C170.879 183.867 169.813 186.747 168.319 189.36C166.826 191.973 164.826 194.107 162.319 195.76C159.866 197.413 156.666 198.24 152.719 198.24C150.533 198.24 148.559 197.973 146.799 197.44C145.093 196.907 143.626 196.187 142.399 195.28C141.226 194.32 140.319 193.227 139.679 192C139.039 190.72 138.719 189.387 138.719 188C138.719 186.72 138.959 185.573 139.439 184.56C139.973 183.493 140.666 182.613 141.519 181.92C142.373 181.227 143.333 180.693 144.399 180.32C145.519 179.947 146.666 179.76 147.839 179.76C148.159 179.76 148.373 180.08 148.479 180.72C148.639 181.307 148.826 182 149.039 182.8C149.306 183.547 149.679 184.24 150.159 184.88C150.639 185.467 151.413 185.76 152.479 185.76ZM177.972 187.6C177.972 182.8 180.132 179.04 184.452 176.32C188.772 173.6 195.145 172.133 203.572 171.92C203.625 171.333 203.652 170.853 203.652 170.48C203.705 170.053 203.732 169.547 203.732 168.96C203.732 167.253 203.412 165.893 202.772 164.88C202.132 163.867 200.799 163.36 198.772 163.36C197.652 163.36 196.745 163.52 196.052 163.84C195.359 164.16 194.799 164.613 194.372 165.2C193.945 165.733 193.599 166.4 193.332 167.2C193.065 168 192.825 168.88 192.612 169.84C192.505 170.32 192.265 170.64 191.892 170.8C191.519 170.907 190.932 170.96 190.132 170.96C184.692 170.96 181.972 168.907 181.972 164.8C181.972 163.147 182.345 161.573 183.092 160.08C183.892 158.587 185.039 157.307 186.532 156.24C188.079 155.12 189.999 154.24 192.292 153.6C194.585 152.96 197.252 152.64 200.292 152.64C206.212 152.64 210.505 153.867 213.172 156.32C215.839 158.773 217.172 162.24 217.172 166.72C217.172 167.307 217.092 168.373 216.932 169.92C216.825 171.413 216.665 173.013 216.452 174.72C216.292 176.373 216.132 177.947 215.972 179.44C215.865 180.933 215.812 181.973 215.812 182.56C215.812 183.893 216.052 184.853 216.532 185.44C217.012 185.973 217.545 186.347 218.132 186.56C218.772 186.773 219.332 186.933 219.812 187.04C220.292 187.147 220.532 187.413 220.532 187.84C220.532 189.013 220.372 190.213 220.052 191.44C219.732 192.667 219.199 193.787 218.452 194.8C217.759 195.813 216.772 196.64 215.492 197.28C214.265 197.92 212.745 198.24 210.932 198.24C208.372 198.24 206.452 197.627 205.172 196.4C203.892 195.173 203.039 193.467 202.612 191.28C201.332 193.147 199.652 194.773 197.572 196.16C195.545 197.547 192.879 198.24 189.572 198.24C187.972 198.24 186.452 198.053 185.012 197.68C183.625 197.307 182.399 196.693 181.332 195.84C180.319 194.987 179.492 193.893 178.852 192.56C178.265 191.173 177.972 189.52 177.972 187.6ZM202.852 178.48C201.465 178.48 200.105 178.587 198.772 178.8C197.439 179.013 196.239 179.36 195.172 179.84C194.159 180.267 193.332 180.853 192.692 181.6C192.052 182.347 191.732 183.253 191.732 184.32C191.732 185.547 192.105 186.4 192.852 186.88C193.652 187.36 194.505 187.6 195.412 187.6C196.265 187.6 197.119 187.413 197.972 187.04C198.825 186.667 199.572 186.107 200.212 185.36C200.905 184.56 201.492 183.6 201.972 182.48C202.452 181.36 202.745 180.027 202.852 178.48ZM263.45 190.96C263.45 191.227 263.317 191.76 263.05 192.56C262.783 193.36 262.357 194.187 261.77 195.04C261.183 195.893 260.437 196.64 259.53 197.28C258.677 197.92 257.637 198.24 256.41 198.24C254.97 198.24 253.53 197.76 252.09 196.8C250.703 195.84 249.317 194.533 247.93 192.88C246.543 191.227 245.13 189.28 243.69 187.04C242.303 184.747 240.89 182.267 239.45 179.6C239.237 182.427 239.023 185.2 238.81 187.92C238.597 190.64 238.383 193.28 238.17 195.84C238.117 196.48 237.983 196.907 237.77 197.12C237.557 197.333 237.103 197.44 236.41 197.44H233.53C231.877 197.44 230.517 197.28 229.45 196.96C228.383 196.587 227.557 196.08 226.97 195.44C226.383 194.8 225.957 194 225.69 193.04C225.477 192.027 225.37 190.88 225.37 189.6C225.37 188.96 225.397 188.293 225.45 187.6C225.503 186.907 225.583 185.92 225.69 184.64C225.797 183.36 225.93 181.68 226.09 179.6C226.303 177.52 226.543 174.773 226.81 171.36C227.077 167.947 227.37 163.76 227.69 158.8C228.063 153.787 228.463 147.707 228.89 140.56C228.943 139.387 229.077 138.693 229.29 138.48C229.45 138.32 229.877 138.24 230.57 138.24H233.69C235.343 138.24 236.703 138.427 237.77 138.8C238.837 139.173 239.69 139.68 240.33 140.32C240.97 140.96 241.397 141.707 241.61 142.56C241.877 143.413 242.01 144.293 242.01 145.2C242.01 145.733 241.957 146.64 241.85 147.92C241.797 149.147 241.717 150.667 241.61 152.48C241.503 154.24 241.343 156.24 241.13 158.48C240.97 160.72 240.81 163.067 240.65 165.52L253.45 153.84C253.93 153.413 254.357 153.12 254.73 152.96C255.157 152.8 255.477 152.72 255.69 152.72C256.277 152.72 256.917 153.093 257.61 153.84C258.303 154.587 258.943 155.467 259.53 156.48C260.17 157.44 260.677 158.453 261.05 159.52C261.477 160.533 261.69 161.36 261.69 162C261.69 163.547 260.437 165.173 257.93 166.88C255.477 168.587 251.743 170.507 246.73 172.64C248.97 175.147 251.103 177.44 253.13 179.52C255.157 181.6 256.917 183.44 258.41 185.04C259.957 186.64 261.183 187.947 262.09 188.96C262.997 189.973 263.45 190.64 263.45 190.96ZM266.175 187.6C266.175 182.8 268.335 179.04 272.655 176.32C276.975 173.6 283.348 172.133 291.775 171.92C291.828 171.333 291.855 170.853 291.855 170.48C291.908 170.053 291.935 169.547 291.935 168.96C291.935 167.253 291.615 165.893 290.975 164.88C290.335 163.867 289.002 163.36 286.975 163.36C285.855 163.36 284.948 163.52 284.255 163.84C283.562 164.16 283.002 164.613 282.575 165.2C282.148 165.733 281.802 166.4 281.535 167.2C281.268 168 281.028 168.88 280.815 169.84C280.708 170.32 280.468 170.64 280.095 170.8C279.722 170.907 279.135 170.96 278.335 170.96C272.895 170.96 270.175 168.907 270.175 164.8C270.175 163.147 270.548 161.573 271.295 160.08C272.095 158.587 273.242 157.307 274.735 156.24C276.282 155.12 278.202 154.24 280.495 153.6C282.788 152.96 285.455 152.64 288.495 152.64C294.415 152.64 298.708 153.867 301.375 156.32C304.042 158.773 305.375 162.24 305.375 166.72C305.375 167.307 305.295 168.373 305.135 169.92C305.028 171.413 304.868 173.013 304.655 174.72C304.495 176.373 304.335 177.947 304.175 179.44C304.068 180.933 304.015 181.973 304.015 182.56C304.015 183.893 304.255 184.853 304.735 185.44C305.215 185.973 305.748 186.347 306.335 186.56C306.975 186.773 307.535 186.933 308.015 187.04C308.495 187.147 308.735 187.413 308.735 187.84C308.735 189.013 308.575 190.213 308.255 191.44C307.935 192.667 307.402 193.787 306.655 194.8C305.962 195.813 304.975 196.64 303.695 197.28C302.468 197.92 300.948 198.24 299.135 198.24C296.575 198.24 294.655 197.627 293.375 196.4C292.095 195.173 291.242 193.467 290.815 191.28C289.535 193.147 287.855 194.773 285.775 196.16C283.748 197.547 281.082 198.24 277.775 198.24C276.175 198.24 274.655 198.053 273.215 197.68C271.828 197.307 270.602 196.693 269.535 195.84C268.522 194.987 267.695 193.893 267.055 192.56C266.468 191.173 266.175 189.52 266.175 187.6ZM291.055 178.48C289.668 178.48 288.308 178.587 286.975 178.8C285.642 179.013 284.442 179.36 283.375 179.84C282.362 180.267 281.535 180.853 280.895 181.6C280.255 182.347 279.935 183.253 279.935 184.32C279.935 185.547 280.308 186.4 281.055 186.88C281.855 187.36 282.708 187.6 283.615 187.6C284.468 187.6 285.322 187.413 286.175 187.04C287.028 186.667 287.775 186.107 288.415 185.36C289.108 184.56 289.695 183.6 290.175 182.48C290.655 181.36 290.948 180.027 291.055 178.48ZM339.493 172.56C339.173 172.56 338.8 172.56 338.373 172.56C338 172.507 337.626 172.453 337.253 172.4C336.88 172.293 336.56 172.187 336.293 172.08C336.026 171.92 335.893 171.733 335.893 171.52C335.893 170.827 335.92 170.187 335.973 169.6C336.026 169.013 336.053 168.4 336.053 167.76C336.053 166.587 335.893 165.627 335.573 164.88C335.253 164.133 334.613 163.76 333.653 163.76C332.16 163.76 330.906 164.747 329.893 166.72C328.933 168.64 328.32 171.547 328.053 175.44C327.946 177.147 327.786 179.093 327.573 181.28C327.413 183.413 327.253 185.493 327.093 187.52C326.933 189.493 326.8 191.253 326.693 192.8C326.586 194.347 326.533 195.36 326.533 195.84C326.533 196.373 326.346 196.773 325.973 197.04C325.6 197.307 325.2 197.44 324.773 197.44H321.893C320.24 197.44 318.88 197.28 317.813 196.96C316.8 196.587 315.973 196.08 315.333 195.44C314.746 194.8 314.32 194.027 314.053 193.12C313.84 192.16 313.733 191.067 313.733 189.84C313.733 189.04 313.76 187.92 313.813 186.48C313.92 184.987 314.08 182.96 314.293 180.4C314.506 177.787 314.746 174.507 315.013 170.56C315.333 166.56 315.706 161.627 316.133 155.76C316.24 154.213 316.8 153.44 317.813 153.44H320.933C322.426 153.44 323.68 153.6 324.693 153.92C325.706 154.24 326.533 154.693 327.173 155.28C327.813 155.813 328.266 156.453 328.533 157.2C328.853 157.947 329.066 158.72 329.173 159.52C329.813 158.293 330.56 157.253 331.413 156.4C332.32 155.493 333.253 154.773 334.213 154.24C335.173 153.653 336.16 153.253 337.173 153.04C338.186 152.773 339.12 152.64 339.973 152.64C340.986 152.64 342 152.827 343.013 153.2C344.08 153.573 345.04 154.133 345.893 154.88C346.746 155.627 347.413 156.587 347.893 157.76C348.426 158.933 348.693 160.32 348.693 161.92C348.693 163.36 348.48 164.72 348.053 166C347.626 167.28 347.013 168.427 346.213 169.44C345.413 170.4 344.426 171.173 343.253 171.76C342.133 172.293 340.88 172.56 339.493 172.56ZM369.134 164.24C368.974 166.267 368.788 168.267 368.574 170.24C368.414 172.213 368.254 174.08 368.094 175.84C367.934 177.6 367.801 179.173 367.694 180.56C367.641 181.947 367.614 183.013 367.614 183.76C367.614 185.147 367.774 186.08 368.094 186.56C368.414 186.987 368.948 187.2 369.694 187.2C370.281 187.2 370.788 187.093 371.214 186.88C371.641 186.667 372.041 186.427 372.414 186.16C372.788 185.893 373.108 185.653 373.374 185.44C373.694 185.227 374.041 185.12 374.414 185.12C374.788 185.12 375.134 185.333 375.454 185.76C375.774 186.187 375.934 187.173 375.934 188.72C375.934 191.653 375.134 193.973 373.534 195.68C371.934 197.387 369.188 198.24 365.294 198.24C361.454 198.24 358.601 197.36 356.734 195.6C354.921 193.787 354.014 191.04 354.014 187.36C354.014 186.56 354.041 185.627 354.094 184.56C354.201 183.44 354.334 182 354.494 180.24C354.654 178.48 354.841 176.32 355.054 173.76C355.321 171.2 355.588 168.027 355.854 164.24H351.614C351.188 164.24 350.921 164.16 350.814 164C350.761 163.787 350.734 163.493 350.734 163.12L350.974 159.04C351.028 158.347 351.108 157.68 351.214 157.04C351.374 156.347 351.641 155.733 352.014 155.2C352.441 154.667 353.028 154.24 353.774 153.92C354.521 153.6 355.508 153.44 356.734 153.44C357.108 152.48 357.534 151.333 358.014 150C358.494 148.667 358.974 147.387 359.454 146.16C359.934 144.88 360.388 143.813 360.814 142.96C361.294 142.107 361.721 141.68 362.094 141.68H364.414C366.654 141.68 368.201 142.373 369.054 143.76C369.908 145.147 370.334 146.8 370.334 148.72C370.334 149.787 370.254 151.36 370.094 153.44H378.494C379.348 153.44 379.774 153.813 379.774 154.56L379.454 158.88C379.348 160.48 378.894 161.787 378.094 162.8C377.348 163.76 375.774 164.24 373.374 164.24H369.134ZM381.487 187.6C381.487 182.8 383.647 179.04 387.967 176.32C392.287 173.6 398.661 172.133 407.088 171.92C407.141 171.333 407.167 170.853 407.167 170.48C407.221 170.053 407.247 169.547 407.247 168.96C407.247 167.253 406.927 165.893 406.287 164.88C405.647 163.867 404.314 163.36 402.288 163.36C401.167 163.36 400.261 163.52 399.567 163.84C398.874 164.16 398.314 164.613 397.887 165.2C397.461 165.733 397.114 166.4 396.847 167.2C396.581 168 396.341 168.88 396.127 169.84C396.021 170.32 395.781 170.64 395.407 170.8C395.034 170.907 394.447 170.96 393.647 170.96C388.207 170.96 385.487 168.907 385.487 164.8C385.487 163.147 385.861 161.573 386.607 160.08C387.407 158.587 388.554 157.307 390.047 156.24C391.594 155.12 393.514 154.24 395.807 153.6C398.101 152.96 400.767 152.64 403.807 152.64C409.727 152.64 414.021 153.867 416.688 156.32C419.354 158.773 420.688 162.24 420.688 166.72C420.688 167.307 420.608 168.373 420.448 169.92C420.341 171.413 420.181 173.013 419.967 174.72C419.807 176.373 419.648 177.947 419.488 179.44C419.381 180.933 419.328 181.973 419.328 182.56C419.328 183.893 419.568 184.853 420.048 185.44C420.528 185.973 421.061 186.347 421.647 186.56C422.288 186.773 422.848 186.933 423.328 187.04C423.808 187.147 424.048 187.413 424.048 187.84C424.048 189.013 423.888 190.213 423.567 191.44C423.247 192.667 422.714 193.787 421.967 194.8C421.274 195.813 420.287 196.64 419.007 197.28C417.781 197.92 416.261 198.24 414.447 198.24C411.887 198.24 409.968 197.627 408.687 196.4C407.407 195.173 406.554 193.467 406.127 191.28C404.847 193.147 403.167 194.773 401.087 196.16C399.061 197.547 396.394 198.24 393.087 198.24C391.487 198.24 389.967 198.053 388.527 197.68C387.141 197.307 385.914 196.693 384.847 195.84C383.834 194.987 383.007 193.893 382.367 192.56C381.781 191.173 381.487 189.52 381.487 187.6ZM406.368 178.48C404.981 178.48 403.621 178.587 402.288 178.8C400.954 179.013 399.754 179.36 398.687 179.84C397.674 180.267 396.847 180.853 396.207 181.6C395.567 182.347 395.247 183.253 395.247 184.32C395.247 185.547 395.621 186.4 396.367 186.88C397.167 187.36 398.021 187.6 398.927 187.6C399.781 187.6 400.634 187.413 401.487 187.04C402.341 186.667 403.087 186.107 403.727 185.36C404.421 184.56 405.007 183.6 405.487 182.48C405.967 181.36 406.261 180.027 406.368 178.48ZM433.286 198.24C431.099 198.24 429.552 197.707 428.646 196.64C427.792 195.573 427.366 194.267 427.366 192.72C427.366 189.467 428.086 187.067 429.526 185.52C431.019 183.973 433.126 183.2 435.846 183.2C437.019 183.2 437.979 183.413 438.726 183.84C439.526 184.267 440.139 184.88 440.566 185.68C441.046 186.427 441.366 187.333 441.526 188.4C441.739 189.413 441.846 190.533 441.846 191.76C441.846 194.32 441.552 196.827 440.966 199.28C440.432 201.733 439.686 203.92 438.726 205.84C437.766 207.76 436.619 209.307 435.286 210.48C433.952 211.653 432.512 212.24 430.966 212.24C430.166 212.24 429.499 212.08 428.966 211.76C428.486 211.493 428.112 211.12 427.846 210.64C427.579 210.16 427.392 209.627 427.286 209.04C427.232 208.453 427.206 207.893 427.206 207.36C427.206 207.04 427.499 206.613 428.086 206.08C428.726 205.547 429.419 204.907 430.166 204.16C430.912 203.413 431.606 202.533 432.246 201.52C432.886 200.56 433.232 199.467 433.286 198.24Z" fill="white"/>
</svg>
