<svg width="324" height="52" viewBox="0 0 324 52" fill="none" xmlns="http://www.w3.org/2000/svg">
<rect x="9" width="306" height="41" rx="20.5" fill="white"/>
<path d="M55.0524 32C54.7404 32 54.5844 31.844 54.5844 31.532V12.452C54.5844 12.14 54.7404 11.984 55.0524 11.984H61.0644C62.3364 11.984 63.5844 12.14 64.8084 12.452C66.0564 12.74 67.1844 13.256 68.1924 14C69.2004 14.72 70.0044 15.704 70.6044 16.952C71.2044 18.2 71.5044 19.784 71.5044 21.704C71.5044 25.328 70.5444 27.956 68.6244 29.588C66.7284 31.196 64.1124 32 60.7764 32H55.0524ZM58.7964 28.112H61.2084C63.0564 28.112 64.4964 27.584 65.5284 26.528C66.5844 25.472 67.1124 23.912 67.1124 21.848C67.1124 19.688 66.5844 18.164 65.5284 17.276C64.4724 16.364 62.9844 15.908 61.0644 15.908H58.7964V28.112ZM81.929 31.532V12.452C81.929 12.14 82.085 11.984 82.397 11.984H82.757C83.885 11.984 84.725 12.26 85.277 12.812C85.853 13.34 86.141 14.276 86.141 15.62V31.532C86.141 31.844 85.985 32 85.673 32H82.397C82.085 32 81.929 31.844 81.929 31.532ZM107.539 28.724C107.539 28.22 107.707 27.968 108.043 27.968C108.163 27.968 108.271 28.004 108.367 28.076C108.703 28.316 109.039 28.508 109.375 28.652C109.711 28.796 110.095 28.868 110.527 28.868C111.247 28.868 111.811 28.688 112.219 28.328C112.627 27.968 112.831 27.38 112.831 26.564V12.452C112.831 12.14 112.987 11.984 113.299 11.984H113.659C114.811 11.984 115.663 12.26 116.215 12.812C116.767 13.34 117.043 14.276 117.043 15.62V26.708C117.043 28.532 116.587 29.936 115.675 30.92C114.787 31.88 113.491 32.36 111.787 32.36C110.587 32.36 109.579 32.024 108.763 31.352C107.947 30.656 107.539 29.78 107.539 28.724ZM131.75 27.392L130.346 31.532C130.25 31.844 130.07 32 129.806 32H126.422C126.278 32 126.182 31.952 126.134 31.856C126.086 31.736 126.074 31.628 126.098 31.532L132.794 12.38C132.89 12.116 133.07 11.984 133.334 11.984H134.918C135.926 11.984 136.706 12.2 137.258 12.632C137.834 13.064 138.35 13.928 138.806 15.224L144.638 31.532C144.686 31.628 144.674 31.736 144.602 31.856C144.554 31.952 144.446 32 144.278 32H140.822C140.486 32 140.258 31.844 140.138 31.532L138.734 27.392H131.75ZM133.01 23.792H137.51L135.242 17.06L133.01 23.792ZM158.148 25.556V31.532C158.148 31.844 157.992 32 157.68 32H154.404C154.092 32 153.936 31.844 153.936 31.532V12.452C153.936 12.14 154.092 11.984 154.404 11.984H154.764C155.892 11.984 156.732 12.26 157.284 12.812C157.86 13.34 158.148 14.276 158.148 15.62V20.156L164.556 12.452C164.844 12.14 165.12 11.984 165.384 11.984H168.948C169.092 11.984 169.176 12.044 169.2 12.164C169.248 12.26 169.236 12.356 169.164 12.452L163.152 19.616L170.208 31.532C170.256 31.628 170.256 31.736 170.208 31.856C170.184 31.952 170.1 32 169.956 32H166.104C165.744 32 165.48 31.844 165.312 31.532L160.272 23.072L158.148 25.556ZM183.908 27.392L182.504 31.532C182.408 31.844 182.228 32 181.964 32H178.58C178.436 32 178.34 31.952 178.292 31.856C178.244 31.736 178.232 31.628 178.256 31.532L184.952 12.38C185.048 12.116 185.228 11.984 185.492 11.984H187.076C188.084 11.984 188.864 12.2 189.416 12.632C189.992 13.064 190.508 13.928 190.964 15.224L196.796 31.532C196.844 31.628 196.832 31.736 196.76 31.856C196.712 31.952 196.604 32 196.436 32H192.98C192.644 32 192.416 31.844 192.296 31.532L190.892 27.392H183.908ZM185.168 23.792H189.668L187.4 17.06L185.168 23.792ZM210.306 25.376V31.532C210.306 31.844 210.15 32 209.838 32H206.562C206.25 32 206.094 31.844 206.094 31.532V12.452C206.094 12.14 206.25 11.984 206.562 11.984H213.51C216.222 11.984 218.166 12.596 219.342 13.82C220.542 15.044 221.142 16.628 221.142 18.572C221.142 20.036 220.794 21.308 220.098 22.388C219.426 23.468 218.454 24.272 217.182 24.8L221.25 31.532C221.322 31.628 221.334 31.736 221.286 31.856C221.238 31.952 221.142 32 220.998 32H217.29C216.858 32 216.558 31.844 216.39 31.532L213.042 25.376H210.306ZM210.306 21.488H213.906C214.362 21.488 214.818 21.416 215.274 21.272C215.754 21.128 216.15 20.852 216.462 20.444C216.774 20.012 216.93 19.4 216.93 18.608C216.93 17.696 216.642 17.024 216.066 16.592C215.514 16.136 214.794 15.908 213.906 15.908H210.306V21.488ZM235.473 15.908H230.145C229.833 15.908 229.677 15.752 229.677 15.44V12.452C229.677 12.14 229.833 11.984 230.145 11.984H243.141C244.797 11.984 245.625 12.788 245.625 14.396V15.296C245.625 15.704 245.433 15.908 245.049 15.908H239.685V31.532C239.685 31.844 239.529 32 239.217 32H235.941C235.629 32 235.473 31.844 235.473 31.532V15.908ZM258.102 27.392L256.698 31.532C256.602 31.844 256.422 32 256.158 32H252.774C252.63 32 252.534 31.952 252.486 31.856C252.438 31.736 252.426 31.628 252.45 31.532L259.146 12.38C259.242 12.116 259.422 11.984 259.686 11.984H261.27C262.278 11.984 263.058 12.2 263.61 12.632C264.186 13.064 264.702 13.928 265.158 15.224L270.99 31.532C271.038 31.628 271.026 31.736 270.954 31.856C270.906 31.952 270.798 32 270.63 32H267.174C266.838 32 266.61 31.844 266.49 31.532L265.086 27.392H258.102ZM259.362 23.792H263.862L261.594 17.06L259.362 23.792Z" fill="#E33C3C"/>
</svg>
