<svg width="540" height="173" viewBox="0 0 540 173" fill="none" xmlns="http://www.w3.org/2000/svg">
<path d="M1.78814e-07 0.899899H19.5V29.7999L30.2 0.899899H51.2L37.8 35.7999L50.5 72.8999H29.5L19.5 42.3999V72.8999H1.78814e-07V0.899899ZM52.043 0.899899H99.943L96.943 16.8999H77.043V27.8999H95.743L92.743 43.8999H77.043V56.8999H100.643L97.643 72.8999H57.543V14.5999L52.043 0.899899ZM124.641 56.5999C127.174 56.5999 129.074 56.2332 130.341 55.4999C131.607 54.7666 132.241 53.5666 132.241 51.8999C132.241 50.7666 131.941 49.8666 131.341 49.1999C130.741 48.5332 129.674 47.8666 128.141 47.1999L117.541 42.2999C113.607 40.4999 110.574 38.0999 108.441 35.0999C106.307 32.0999 105.241 27.7332 105.241 21.9999C105.241 14.6666 107.141 9.1999 110.941 5.5999C114.807 1.93323 121.174 0.066565 130.041 -0.000100851C133.707 -0.000100851 137.041 0.166566 140.041 0.499899C143.041 0.833232 145.441 1.1999 147.241 1.5999C149.041 1.93323 149.941 2.0999 149.941 2.0999L147.941 18.1999C147.941 18.1999 147.107 18.0999 145.441 17.8999C143.841 17.6999 141.841 17.5332 139.441 17.3999C137.041 17.1999 134.707 17.0999 132.441 17.0999C130.041 17.0999 128.207 17.4666 126.941 18.1999C125.741 18.8666 125.141 20.1666 125.141 22.0999C125.141 23.1666 125.607 24.0666 126.541 24.7999C127.474 25.4666 128.774 26.1666 130.441 26.8999L138.941 30.5999C143.474 32.5999 146.774 35.0999 148.841 38.0999C150.907 41.0332 151.941 45.2332 151.941 50.6999C151.941 58.0999 150.007 63.7999 146.141 67.7999C142.274 71.7999 135.907 73.8332 127.041 73.8999C122.641 73.8999 118.541 73.5999 114.741 72.9999C110.941 72.4666 107.574 71.8332 104.641 71.0999L106.641 54.9999C106.641 54.9999 107.441 55.1332 109.041 55.3999C110.707 55.6666 112.907 55.9332 115.641 56.1999C118.374 56.4666 121.374 56.5999 124.641 56.5999ZM153.508 0.899899H201.408L198.408 16.8999H178.508V27.8999H197.208L194.208 43.8999H178.508V56.8999H202.108L199.108 72.8999H159.008V14.5999L153.508 0.899899ZM251.029 16.8999H237.829V72.8999H218.229V16.8999H203.629V0.899899H254.029L251.029 16.8999ZM269.777 63.1999L267.877 72.8999H246.977L261.377 9.8999L259.077 0.0998979H289.277L304.977 72.8999H284.277L282.377 63.1999H269.777ZM271.777 47.6999H280.277L276.077 21.4999L271.777 47.6999ZM332.884 0.899899C338.751 0.899899 343.651 1.66657 347.584 3.1999C351.518 4.66657 354.451 7.16657 356.384 10.6999C358.384 14.1666 359.384 18.9332 359.384 24.9999C359.384 30.0666 358.618 34.2332 357.084 37.4999C355.551 40.6999 353.218 43.2666 350.084 45.1999L362.284 72.8999H340.584L332.684 49.4999H329.484V72.8999H309.984V14.5999L304.484 0.899899H332.884ZM329.484 36.0999C332.551 36.0999 334.818 35.3332 336.284 33.7999C337.751 32.2666 338.484 29.5666 338.484 25.6999C338.484 22.6332 338.218 20.3666 337.684 18.8999C337.151 17.3666 336.218 16.3332 334.884 15.7999C333.618 15.2666 331.818 14.9999 329.484 14.9999V36.0999ZM386.085 63.1999L384.185 72.8999H363.285L377.685 9.8999L375.385 0.0998979H405.585L421.285 72.8999H400.585L398.685 63.1999H386.085ZM388.085 47.6999H396.585L392.385 21.4999L388.085 47.6999ZM445.07 63.1999L443.17 72.8999H422.27L436.67 9.8999L434.37 0.0998979H464.57L480.27 72.8999H459.57L457.67 63.1999H445.07ZM447.07 47.6999H455.57L451.37 21.4999L447.07 47.6999ZM505.977 0.899899L520.077 41.9999V0.899899H539.077V72.8999H515.677L502.877 35.4999V72.8999H483.877V11.1999L479.777 0.899899H505.977ZM11.9863 172.9V114.6L6.48633 100.9H35.2863C41.2863 100.9 46.253 101.733 50.1863 103.4C54.1197 105 57.053 107.733 58.9863 111.6C60.9197 115.467 61.8863 120.733 61.8863 127.4C61.8863 136.6 59.6863 143.233 55.2863 147.3C50.8863 151.367 44.2197 153.4 35.2863 153.4H31.4863V172.9H11.9863ZM31.4863 139.1C34.6863 139.1 37.053 138.233 38.5863 136.5C40.1863 134.767 40.9863 131.667 40.9863 127.2C40.9863 123.8 40.6863 121.233 40.0863 119.5C39.553 117.767 38.5863 116.6 37.1863 116C35.853 115.333 33.953 115 31.4863 115V139.1ZM63.4199 100.9H111.32L108.32 116.9H88.4199V127.9H107.12L104.12 143.9H88.4199V156.9H112.02L109.02 172.9H68.9199V114.6L63.4199 100.9ZM139.718 100.9L153.818 142V100.9H172.818V172.9H149.418L136.618 135.5V172.9H117.618V111.2L113.518 100.9H139.718ZM206.587 100.9C213.454 100.9 218.987 101.967 223.187 104.1C227.387 106.167 230.454 109.733 232.387 114.8C234.32 119.8 235.287 126.7 235.287 135.5C235.287 144.967 234.32 152.433 232.387 157.9C230.454 163.367 227.387 167.233 223.187 169.5C218.987 171.767 213.454 172.9 206.587 172.9H182.787V114.6L177.287 100.9H206.587ZM205.387 156.9C207.52 156.9 209.22 156.267 210.487 155C211.82 153.667 212.787 151.467 213.387 148.4C213.987 145.267 214.287 140.967 214.287 135.5C214.287 130.5 214.02 126.667 213.487 124C212.954 121.267 212.054 119.4 210.787 118.4C209.52 117.4 207.72 116.9 205.387 116.9H202.287V156.9H205.387ZM241.748 100.9H261.248V172.9H241.748V100.9ZM295.064 100.9C301.93 100.9 307.464 101.967 311.664 104.1C315.864 106.167 318.93 109.733 320.864 114.8C322.797 119.8 323.764 126.7 323.764 135.5C323.764 144.967 322.797 152.433 320.864 157.9C318.93 163.367 315.864 167.233 311.664 169.5C307.464 171.767 301.93 172.9 295.064 172.9H271.264V114.6L265.764 100.9H295.064ZM293.864 156.9C295.997 156.9 297.697 156.267 298.964 155C300.297 153.667 301.264 151.467 301.864 148.4C302.464 145.267 302.764 140.967 302.764 135.5C302.764 130.5 302.497 126.667 301.964 124C301.43 121.267 300.53 119.4 299.264 118.4C297.997 117.4 296.197 116.9 293.864 116.9H290.764V156.9H293.864ZM330.225 100.9H349.725V172.9H330.225V100.9ZM358.74 100.9H378.24V129.8L388.94 100.9H409.94L396.54 135.8L409.24 172.9H388.24L378.24 142.4V172.9H358.74V100.9ZM434.083 163.2L432.183 172.9H411.283L425.683 109.9L423.383 100.1H453.583L469.283 172.9H448.583L446.683 163.2H434.083ZM436.083 147.7H444.583L440.383 121.5L436.083 147.7ZM494.991 100.9L509.091 142V100.9H528.091V172.9H504.691L491.891 135.5V172.9H472.891V111.2L468.791 100.9H494.991Z" fill="white"/>
</svg>
