<svg width="496" height="60" viewBox="0 0 496 60" fill="none" xmlns="http://www.w3.org/2000/svg">
<path d="M360.675 2H353.067L353.067 30.0585H368.418L368.418 22.0717H360.675V2Z" fill="white"/>
<path d="M380.179 6.76604H378.685C377.496 6.76604 376.375 7.00377 375.356 7.44528C374.337 7.88679 373.42 8.49811 372.673 9.24528C371.892 10.0264 371.281 10.9434 370.839 11.9623C370.398 12.9811 370.194 11.1019 370.194 12.2566V16.1283C370.194 17.317 370.398 21.4377 370.839 22.4566C371.281 23.4755 371.892 24.3925 372.673 25.1396C373.42 25.9208 374.337 26.5321 375.356 26.9736C376.375 27.4151 377.496 27.6189 378.685 27.6189H380.179C381.334 27.6189 382.454 27.4151 383.473 26.9736C384.492 26.5321 385.409 25.9208 386.19 25.1396C386.937 24.3925 387.549 23.4755 387.99 22.4566C388.432 21.4377 388.669 20.317 388.669 19.1283V15.2566C388.669 14.1019 388.432 12.9811 387.99 11.9623C387.549 10.9434 386.937 10.0264 386.19 9.24528C385.409 8.49811 384.492 7.88679 383.473 7.44528C382.454 7.00377 381.334 6.76604 380.179 6.76604ZM380.892 12.8792L381.13 21.4377V21.6755H377.734L377.768 21.4377L378.073 12.8453V12.7094H380.892V12.8792Z" fill="white"/>
<path d="M402.847 12.0642L405.632 8.22641L408.892 3.77736H402.711L402.1 4.62641L398.772 9.17736V4.08302H392.76V24.6302H398.772V17.6679L399.077 17.2264L402.983 23.2717L403.085 23.4415L403.221 23.6453L403.866 24.6302H411.032L408.247 20.3509L402.847 12.0642Z" fill="white"/>
<path d="M432.699 24.0189L428.012 8.66792L427.265 6.2566H420.948L419.963 9.48302L416.737 20.0453L414.597 27.1094H422.442L423.767 22.7962H428.114L428.725 24.6981L429.439 27.1094H433.616L432.699 24.0189ZM423.393 18.7887L425.159 13.0491L426.925 18.7887H423.393Z" fill="white"/>
<path d="M443.473 7.51321H437.462V28.366H449.586V23.3736H443.473V7.51321Z" fill="white"/>
<path d="M375.686 48.6415H366.924L366.89 50.5094V51.2566H362.61L362.644 50.9849L363.018 40.083V39.9132H367.263L367.161 40.8981L366.957 42.2906V42.5623H375.686C375.618 41.1358 375.278 39.8113 374.667 38.5887C374.056 37.366 373.274 36.2792 372.323 35.3623C371.373 34.4453 370.252 33.7321 368.995 33.1887C367.705 32.6792 366.38 32.4075 364.954 32.4075H363.833C362.339 32.4075 360.912 32.7132 359.622 33.2566C358.331 33.834 357.176 34.6151 356.225 35.566C355.24 36.5509 354.459 37.7057 353.916 38.9962C353.339 40.2868 353.067 41.6792 353.067 43.1396V48.0302C353.067 49.5245 353.339 50.9509 353.916 52.2415C354.459 53.5321 355.24 54.6868 356.225 55.6377C357.176 56.6226 358.331 57.4038 359.622 57.9472C360.912 58.5245 362.339 58.7962 363.833 58.7962H364.954C366.38 58.7962 367.705 58.5585 368.995 58.0151C370.252 57.4717 371.373 56.7585 372.323 55.8415C373.274 54.9245 374.056 53.8377 374.667 52.6151C375.278 51.3925 375.618 50.0679 375.686 48.6415Z" fill="white"/>
<path d="M388.712 42.2396H385.757V34.2924H379.746V55.1792H385.757V47.2321H388.712V54.7377H394.723V34.7679H388.712V42.2396Z" fill="white"/>
<path d="M416.567 50.283L411.88 34.9321L411.133 32.5208H404.816L403.831 35.7472L400.605 46.3094L398.465 53.3736H406.31L407.635 49.0604H411.982L412.593 50.9623L413.306 53.3736H417.484L416.567 50.283ZM407.261 45.0528L409.027 39.3132L410.793 45.0528H407.261Z" fill="white"/>
<path d="M430.601 45.4491L426.322 36.7207H421.33V54.5849H426.322V45.8566L430.601 54.5509V54.5849H436.579V34.4792H430.601V45.4491Z" fill="white"/>
<path d="M458.544 45.8509H449.884V49.3491H451.582V50.7075H448.185L448.219 50.4698L448.525 41.8774V41.7415H451.887L451.785 42.4887L451.616 43.6094V43.8132H458.51C458.442 42.7264 458.17 41.6736 457.695 40.6887C457.219 39.7377 456.608 38.8887 455.861 38.1415C455.114 37.4283 454.231 36.8509 453.212 36.4434C452.193 36.0358 451.14 35.7981 450.019 35.7981H449.136C447.948 35.7981 446.827 36.0358 445.808 36.4774C444.789 36.9189 443.872 37.5302 443.125 38.2774C442.344 39.0585 441.733 39.9755 441.291 40.9943C440.85 42.0132 440.646 43.134 440.646 44.2887V48.1604C440.646 49.3491 440.85 50.4698 441.291 51.4887C441.733 52.5075 442.344 53.4245 443.125 54.1717C443.872 54.9528 444.789 55.5642 445.808 56.0057C446.827 56.4472 447.948 56.6509 449.136 56.6509H450.019C451.174 56.6509 452.295 56.4472 453.314 56.0057C454.333 55.5642 455.25 54.9528 456.031 54.1717C456.778 53.4245 457.389 52.5075 457.865 51.4887C458.306 50.4698 458.544 49.3491 458.544 48.1604V45.8509Z" fill="white"/>
<path d="M468.519 45.2396H471.032V40.2472H468.519V37.2924H474.191V32.3H461.421V37.2924H462.542V53.1868H474.938V47.1755H468.519V45.2396Z" fill="white"/>
<path d="M493.47 52.683L491.331 48.4038C492.214 47.7924 492.893 47.0113 493.436 46.0604C493.98 45.1094 494.251 44.0226 494.251 42.8679C494.251 41.9509 494.048 41.0679 493.708 40.2528C493.368 39.4377 492.893 38.7245 492.282 38.1132C491.67 37.5019 490.957 37.0264 490.142 36.6868C489.327 36.3472 488.444 36.1434 487.527 36.1434H479.138V43.5811H478.018V49.5925H479.138V57.0302H485.15V49.5925H485.217L488.07 55.366L488.919 57.0302H495.644L493.47 52.683ZM485.387 45.517V41.0679H487.663L487.765 41.8491L487.901 43.1057L488.138 45.2113L488.172 45.517H485.387Z" fill="white"/>
<path d="M307.243 28.3809V19.7582L316.067 15.4468L324.184 18.321L326.302 26.5845L321.361 33.4108H312.537L307.243 28.3809Z" fill="white"/>
<path d="M301.949 43.8337L299.832 49.5822L307.596 53.8935L323.126 55.3307L331.244 52.4564V45.2708L324.185 38.8037H307.596L301.949 43.8337Z" fill="white"/>
<path fill-rule="evenodd" clip-rule="evenodd" d="M293.456 40.0974L289.356 41.7747L286.067 28.3832L296.655 8.62276L315.361 0L336.89 10.0599L346.067 26.9461L341.605 42.9754L337.663 41.3624L340.067 26.9467L333.714 14.7312L315.361 6.1084L300.185 12.9347L292.42 29.821L293.456 40.0974ZM294.71 44.4444L291.027 48.5148L307.243 58.5629L324.185 60L339.353 49.0199L336.353 46.3535L324.185 54.6114L307.244 53.1743L294.71 44.4444Z" fill="white"/>
<path fill-rule="evenodd" clip-rule="evenodd" d="M294.71 44.4445L307.244 53.1742L324.185 54.6113L336.353 46.3532L339.353 49.0199L324.185 60L307.244 58.5628L291.028 48.5147L294.71 44.4445Z" fill="white"/>
<path fill-rule="evenodd" clip-rule="evenodd" d="M54.6153 0C54.8191 0.0861935 55.109 0.0940292 55.297 0.188058C54.6075 8.93278 49.2008 13.3208 39.2964 12.6313V51.4262C46.3956 49.7571 50.8542 45.1575 54.1844 39.6725C54.4743 39.7744 54.7407 39.8919 55.0228 40.0094C52.8523 49.0519 47.9706 55.9552 39.5393 58.7448C34.5962 60.1738 29.3808 60.3862 24.3379 59.3638C20.0729 58.4958 16.0792 56.6145 12.6939 53.8788C7.99249 50.0784 4.63878 44.7187 4.0746 36.8124C3.89869 34.1891 4.10991 31.5542 4.70146 28.9923C5.70467 24.7982 7.65615 20.8899 10.4059 17.5678C12.9931 14.4674 15.9782 11.7221 19.2838 9.40292C15.1936 8.5645 10.6645 8.87009 7.58503 10.4529C5.07336 11.8424 2.95452 13.8453 1.42611 16.2749C1.22238 16.5648 0.885442 17.1838 0.681712 17.2309C0.477982 17.2779 0.211566 17.2309 0 17.2309C0.846263 11.401 3.24401 7.16189 7.15406 4.32535C11.0641 1.4888 16.5178 0.0470146 23.2174 0.493654C30.8573 0.995143 37.2356 3.3067 44.374 4.36452C45.8889 4.63945 47.4361 4.68961 48.9657 4.5134C51.8806 4.0746 53.2832 2.24103 54.5605 0.0940292C54.584 0.0626862 54.5761 0 54.6153 0ZM12.9682 27.3077C12.2395 36.2091 15.3503 42.3132 19.9107 46.231C20.8028 45.4751 21.5194 44.5339 22.0107 43.4729C22.516 42.1193 22.74 40.6768 22.6689 39.2337V9.90441C22.3134 9.87424 21.9601 9.8219 21.6111 9.7477C17.3014 13.9712 13.6264 19.3544 12.9682 27.3077ZM31.6173 11.4559V22.904C31.6173 26.767 31.8446 30.6535 31.2412 34.0308C30.0737 40.5658 25.9129 44.0214 21.8383 47.618C25.239 50.6191 30.5438 52.3194 37.1572 51.7944V12.5372C35.308 12.169 33.4979 11.7537 31.6173 11.4246C31.633 11.3384 31.6017 11.3932 31.6173 11.4559V11.4559Z" fill="white"/>
<path fill-rule="evenodd" clip-rule="evenodd" d="M63.2896 2.57025C63.9757 2.50463 64.6637 2.67344 65.2415 3.04913C65.8192 3.42482 66.2526 3.98522 66.471 4.63889C67.4426 7.18552 66.8079 11.2758 64.6844 12.1926C63.9425 12.4827 63.1272 12.5282 62.3576 12.3224C61.5879 12.1166 60.9042 11.6703 60.4061 11.0486C59.795 10.043 59.4976 8.87809 59.552 7.70268C59.552 4.85046 60.3356 2.57808 63.2896 2.57025Z" fill="white"/>
<path fill-rule="evenodd" clip-rule="evenodd" d="M76.7906 17.7009C77.4959 16.5177 78.0914 15.2092 79.3059 14.5196C79.8659 14.2587 80.4857 14.153 81.1005 14.2137C81.7153 14.2744 82.3025 14.4991 82.8007 14.8644C83.6396 15.5696 84.291 16.4714 84.6969 17.4894C86.4678 21.4778 86.8439 28.2635 85.6529 33.3176C85.0809 35.7154 83.9212 37.9799 82.1816 38.8575C81.5391 39.164 80.8205 39.2747 80.1155 39.1758C79.4105 39.0769 78.7501 38.7727 78.2168 38.3012C77.3413 37.2741 76.7545 36.0329 76.5164 34.7046C76.4459 36.1463 76.5164 37.7135 76.5164 39.1944C73.9932 38.8121 71.4503 38.574 68.9 38.4814V37.3374H70.2869C70.3575 26.6102 70.2869 15.7577 70.2869 4.98347H68.8608V3.86295C71.4354 3.77687 74.001 3.51506 76.5399 3.07938C76.8063 3.03236 76.7671 3.07938 76.7828 3.38497C76.9238 5.68085 76.7828 8.04726 76.7828 10.3196L76.7906 17.7009ZM76.7906 21.4856C76.7201 23.0528 76.7515 24.902 76.7515 26.9001C76.7515 28.6788 76.7515 30.5359 76.7906 32.2911C76.8049 33.1129 76.8967 33.9314 77.0649 34.7359C77.2294 35.4254 77.5899 36.303 78.2716 36.256C78.9533 36.209 79.0552 35.2139 79.1414 34.493C79.356 31.8868 79.4083 29.2699 79.2981 26.6572V21.3916C79.3211 20.5564 79.2792 19.7207 79.1727 18.892C79.0395 17.9673 78.8358 17.1289 78.0914 17.27C76.916 17.505 76.8768 20.0908 76.7906 21.4856Z" fill="white"/>
<path fill-rule="evenodd" clip-rule="evenodd" d="M204.357 13.7125C204.435 16.6117 204.498 19.6755 204.514 22.5356H203.918C203.213 20.13 202.351 17.505 200.58 15.9457C199.703 15.1621 197.697 14.308 197.078 15.8203C196.829 16.448 196.771 17.1348 196.911 17.7953C197.05 18.4557 197.381 19.0605 197.861 19.5345C198.227 19.818 198.609 20.0796 199.005 20.3181C200.172 21.0429 201.271 21.8716 202.288 22.7942C203.637 24.1809 204.543 25.9374 204.89 27.8404C205.285 30.1591 205.253 32.5305 204.796 34.8377C204.349 36.8202 203.393 38.6929 201.481 39.3198C200.936 39.5244 200.362 39.6433 199.781 39.6724C199.053 39.6166 198.356 39.3588 197.767 38.928C197.179 38.5754 196.631 38.2698 196.067 37.878C195.503 38.2698 194.938 38.7556 194.335 39.2336C194.172 39.4185 193.963 39.5567 193.729 39.6338C193.494 39.7109 193.244 39.7242 193.003 39.6724C193.003 36.5381 192.831 33.2784 192.846 30.1598H193.277C193.622 31.1001 193.873 32.0404 194.241 32.918C194.892 34.6002 195.944 36.0983 197.305 37.2825C197.654 37.5686 198.038 37.8083 198.449 37.9956C198.911 38.23 199.42 38.3585 199.938 38.3717C200.372 38.3014 200.768 38.0795 201.055 37.7453C201.342 37.4112 201.501 36.9863 201.505 36.5459C201.701 34.3441 200.431 33.5527 199.154 32.628C198.245 31.9933 197.328 31.296 196.404 30.6456C196.081 30.455 195.77 30.2457 195.471 30.0187C194.849 29.3986 194.335 28.6781 193.951 27.8874C192.752 25.5367 192.548 21.5483 193.363 18.5707C193.857 16.7841 194.688 14.9349 196.239 14.167C197.212 13.7534 198.301 13.6979 199.311 14.0103C200.163 14.3043 200.969 14.7214 201.701 15.2483C202.422 14.7625 203.103 14.2061 203.832 13.6812L204.357 13.7125Z" fill="white"/>
<path fill-rule="evenodd" clip-rule="evenodd" d="M146.333 37.6116C146.764 37.6821 147.336 37.6116 147.822 37.6116V38.787H138.897V37.6116H139.829V21.799C139.876 20.9325 139.876 20.0641 139.829 19.1976C139.751 18.414 139.555 17.505 138.928 17.458C138.145 17.4032 137.863 18.32 137.69 18.9468C137.486 19.7166 137.352 20.5034 137.291 21.2976C137.149 23.0214 137.291 24.9882 137.291 26.7121V37.6116C137.619 37.636 137.949 37.636 138.278 37.6116V38.787H129.243V37.6116H130.599V15.7263H129.243V14.4256C132.009 14.3707 134.415 13.9398 137.196 13.9006C137.275 15.4051 137.196 17.0349 137.196 18.602C138.043 16.5647 139.054 13.9946 141.592 13.7987C144.805 13.548 145.722 16.2748 146.082 19.0252C146.279 21.0326 146.352 23.0502 146.302 25.0666L146.333 37.6116Z" fill="white"/>
<path fill-rule="evenodd" clip-rule="evenodd" d="M164.386 28.2089H155.681C155.681 31.1081 155.579 34.5324 156.613 36.507C156.743 36.7901 156.935 37.0401 157.175 37.2382C157.416 37.4364 157.698 37.5775 158 37.651C158.215 37.7302 158.435 37.7931 158.658 37.8391C160.022 37.9253 161.189 36.7107 161.848 35.8253C162.58 34.7636 163.163 33.6061 163.579 32.3854C163.752 32.6439 164.081 32.785 164.104 33.0671C164.044 33.3069 163.949 33.5366 163.822 33.7488C162.545 36.5618 161.064 39.6335 157.17 39.6335C155.568 39.6545 154.006 39.1294 152.742 38.1447C150.611 36.413 149.467 33.4902 149.02 30.0346C148.582 26.5221 148.922 22.9562 150.016 19.5896C151.011 16.8392 152.594 14.0418 156.174 13.7989C156.937 13.7416 157.703 13.8445 158.424 14.1009C159.145 14.3573 159.804 14.7615 160.359 15.2877C161.344 16.2456 162.123 17.3949 162.647 18.6649C163.921 21.6798 164.515 24.9384 164.386 28.2089V28.2089ZM158 17.4269C158 16.4317 157.843 15.3191 157.217 15.0135C156.057 14.465 155.838 16.3142 155.759 17.3642C155.524 20.3966 155.759 24.15 155.665 27.0257H158.016C157.898 24.0246 158.149 20.5925 158 17.4582V17.4269Z" fill="white"/>
<path fill-rule="evenodd" clip-rule="evenodd" d="M49.6005 14.2376V19.2212C50.5173 17.035 51.4028 14.0887 54.5292 14.4257C55.0489 14.5028 55.5342 14.7318 55.924 15.0839C57.977 17.0271 58.2121 23.0764 56.1669 25.1058C55.938 25.3377 55.6624 25.5183 55.3585 25.6358C55.0546 25.7533 54.7292 25.8051 54.4039 25.7875C54.0104 25.7346 53.6315 25.6033 53.2897 25.4014C52.9478 25.1996 52.6499 24.9312 52.4136 24.6122C51.6072 23.316 51.2187 21.8033 51.3009 20.279C51.3009 19.8402 51.4106 19.2995 51.4576 18.8215C51.5046 18.3436 51.6614 17.8264 51.2461 17.5835C50.674 17.9126 50.533 18.6883 50.3763 19.3544C49.9574 21.8069 49.8024 24.2972 49.914 26.7827V37.3061C50.5017 37.3766 51.2225 37.3061 51.8651 37.3061V38.4501H41.7648V37.3375H43.136C43.1987 30.2853 43.136 23.1469 43.136 16.0633H41.7648V14.8253C44.3741 14.6294 46.9677 14.4178 49.6005 14.2376Z" fill="white"/>
<path fill-rule="evenodd" clip-rule="evenodd" d="M66.6041 14.2376C66.753 21.7991 66.6041 29.6271 66.6668 37.3061C67.1731 37.334 67.6806 37.334 68.1869 37.3061V38.4501H58.5176V37.3375H59.881C59.9515 30.2853 59.881 23.1704 59.881 16.1025H58.5176V14.8253C61.3933 14.8096 63.9243 14.457 66.6041 14.2376Z" fill="white"/>
<path fill-rule="evenodd" clip-rule="evenodd" d="M97.9942 16.1025H96.5132V14.8253C99.3184 14.8253 101.701 14.3473 104.529 14.3395V37.3375H106.096V38.4815C103.469 38.5573 100.851 38.8191 98.2606 39.2651C98.1901 37.7684 98.2606 36.1308 98.2606 34.5636C97.2263 36.6636 96.239 38.9595 93.5592 39.2024C90.4248 39.4845 89.5786 37.0241 89.1084 34.3991C88.6383 31.7741 88.7323 28.6006 88.7323 25.4271V16.1025H87.3689V14.8253C89.9468 14.7709 92.5203 14.5852 95.0793 14.269C95.2752 14.269 95.3614 14.1123 95.3927 14.4805C95.5181 16.0869 95.3927 18.1555 95.3927 19.66V33.5293C95.3927 34.6341 95.3379 36.0759 96.5994 35.8252C97.6494 35.6058 97.9158 33.1532 97.9864 31.9073C98.0961 30.011 97.9864 28.1696 97.9864 26.6417L97.9942 16.1025Z" fill="white"/>
<path fill-rule="evenodd" clip-rule="evenodd" d="M124.283 37.3375H125.772V38.4815H116.823V37.3375H117.717C117.771 32.5106 117.756 27.151 117.717 22.0734C117.717 21.2898 117.717 20.3887 117.662 19.5973C117.607 18.8059 117.45 17.8264 116.792 17.7715C116.008 17.701 115.703 18.5551 115.523 19.1663C114.911 21.1879 115.092 24.1107 115.092 26.7122V37.3375H116.079V38.4815H107.068V37.3375H108.431V16.1025H107.068V14.8253C109.865 14.7783 112.247 14.3395 115.092 14.3395V18.8921C115.93 16.8548 116.894 14.6764 119.268 14.269C120.198 14.1062 121.155 14.2932 121.956 14.794C123.123 15.5775 123.687 17.2779 123.977 19.0096C124.225 20.9686 124.316 22.9442 124.252 24.9178C124.291 29.2588 124.283 33.5293 124.283 37.3375Z" fill="white"/>
<path fill-rule="evenodd" clip-rule="evenodd" d="M165.554 14.4258H174.471V15.7265H173.578C174.683 21.2116 175.827 26.5869 176.986 31.9857C177.355 30.2227 177.707 28.4832 178.068 26.6809C178.135 26.4388 178.187 26.1928 178.225 25.9444C178.169 25.5136 178.075 25.0887 177.942 24.675C177.347 21.713 176.767 18.6493 176.179 15.7265H175.004V14.4258H184.258V15.7265H182.746C183.796 21 184.901 26.2265 185.966 31.4921C186.687 28.1619 187.455 24.3537 188.168 20.8041C188.491 19.5507 188.636 18.2583 188.599 16.9646C188.544 16.181 188.301 15.609 187.361 15.7265V14.4258H191.569V15.7265C191.353 15.7305 191.141 15.7841 190.95 15.8832C189.586 16.5806 189.281 19.2761 188.936 20.9922C187.753 26.9003 186.585 33.0357 185.371 38.795H180.912C180.155 35.2376 179.403 31.6671 178.656 28.0835C177.872 31.6018 177.159 35.2298 176.399 38.795H171.697C170.13 31.0846 168.438 23.4369 166.839 15.7265H165.507V14.5198C165.523 14.4728 165.523 14.4336 165.554 14.4258Z" fill="white"/>
<path fill-rule="evenodd" clip-rule="evenodd" d="M216.118 28.4438V30.2382C216.001 30.2382 215.868 30.1442 215.75 30.0815C215.345 29.8186 214.877 29.6665 214.395 29.6404C213.912 29.6142 213.431 29.715 213 29.9326C210.861 31.3666 210.829 37.7684 214.081 37.7684C214.811 37.7396 215.518 37.5031 216.118 37.0867V38.8575C215.433 39.2549 214.648 39.4456 213.857 39.4067C213.066 39.3678 212.303 39.1009 211.66 38.6381C209.568 36.8046 209.646 31.2568 211.511 29.102C212.065 28.4597 212.834 28.0395 213.674 27.9188C214.522 27.8525 215.372 28.035 216.118 28.4438V28.4438Z" fill="white"/>
<path fill-rule="evenodd" clip-rule="evenodd" d="M220.365 28.1303C220.874 28.1005 221.383 28.1862 221.854 28.381C224.988 29.8228 224.863 37.9172 221.697 39.4373C221.165 39.6607 220.583 39.7378 220.012 39.6606C219.44 39.5835 218.899 39.3549 218.445 38.9985C216.502 37.3608 216.424 31.8131 217.983 29.5564C218.244 29.1517 218.595 28.8125 219.008 28.5652C219.421 28.3179 219.885 28.1691 220.365 28.1303V28.1303ZM219.715 29.9325C217.764 30.9512 217.638 37.2041 219.895 37.9799C220.31 38.0963 220.749 38.0963 221.164 37.9799C222.888 37.2746 223.249 32.7456 222.16 30.8258C221.984 30.4641 221.698 30.1675 221.344 29.9787C220.989 29.79 220.583 29.7189 220.185 29.7758C220.022 29.8087 219.865 29.8614 219.715 29.9325V29.9325Z" fill="white"/>
<path fill-rule="evenodd" clip-rule="evenodd" d="M230.803 30.489C231.065 29.7773 231.449 29.117 231.939 28.5379C232.142 28.3664 232.382 28.2426 232.639 28.1755C232.897 28.1084 233.166 28.0997 233.428 28.15C233.689 28.2004 233.936 28.3084 234.15 28.4664C234.364 28.6243 234.54 28.8281 234.666 29.0629C235.23 30.2304 235.034 32.2756 235.034 34.1013V39.5001H233.467V31.6644C233.467 30.8808 233.467 29.7054 232.84 29.6819C232.213 29.6584 231.947 30.4655 231.759 30.7946C231.571 31.1237 231.524 31.3118 231.414 31.539C231.276 31.7718 231.163 32.0187 231.077 32.2756C231.03 32.8728 231.03 33.4727 231.077 34.0699V39.4688H229.431V31.633C229.431 30.8494 229.502 29.6819 228.852 29.6506C228.201 29.6192 227.661 30.9748 227.425 31.5076C227.288 31.742 227.173 31.9886 227.081 32.2442C227.034 32.8414 227.034 33.4414 227.081 34.0386V39.4375H225.443V28.3185H226.806C226.806 29.008 226.877 29.6506 226.869 30.3636C227.433 29.4782 227.692 28.1853 229 28.0991C230.309 28.0129 230.795 29.0707 230.803 30.489Z" fill="white"/>
<path fill-rule="evenodd" clip-rule="evenodd" d="M207.147 34.979C209.419 34.5558 209.599 38.7401 207.797 39.2181C206.637 39.5237 205.908 38.3875 205.814 37.4551C205.76 37.0727 205.791 36.683 205.903 36.3135C206.015 35.944 206.207 35.6035 206.465 35.3159C206.655 35.1405 206.892 35.0235 207.147 34.979V34.979Z" fill="white"/>
<rect x="259.067" y="4" width="3" height="52" fill="white"/>
</svg>
