<svg width="354" height="50" viewBox="0 0 354 50" fill="none" xmlns="http://www.w3.org/2000/svg">
<path fill-rule="evenodd" clip-rule="evenodd" d="M38.7185 3.33687C38.8899 3.32001 39.0618 3.36399 39.2041 3.46111C38.7072 9.66194 34.8782 12.7567 27.9094 12.2823V39.7851C32.9468 38.5991 36.1094 35.3575 38.47 31.427L39.0573 31.6641C37.4648 38.136 34.0085 42.9702 28.0223 44.9129C24.5188 45.9275 20.8217 46.0786 17.2471 45.3534C14.2454 44.7454 11.4311 43.4331 9.03582 41.5245C7.21175 40.063 5.72314 38.2264 4.67083 36.1394C3.61852 34.0523 3.0271 31.7634 2.93664 29.4278C2.81536 27.5708 2.96758 25.7061 3.38843 23.8933C4.10429 20.922 5.48706 18.1526 7.43196 15.795C9.25066 13.5953 11.3463 11.6402 13.6667 9.97819C10.8942 9.33921 7.99029 9.60033 5.37631 10.7236C3.59643 11.7143 2.09352 13.1356 1.00523 14.8575C0.869697 15.0608 0.632507 15.5013 0.485675 15.5352C0.324621 15.5559 0.161842 15.5597 0 15.5465C0.16224 13.7526 0.69709 12.0124 1.57034 10.437C2.44359 8.86167 3.63602 7.48592 5.07135 6.39775C8.43861 4.20449 12.4621 3.24651 16.4565 3.687C21.878 4.03714 26.3959 5.67488 31.4672 6.42034C32.5396 6.62161 33.6363 6.65969 34.7201 6.53329C36.7758 6.21703 37.7584 4.91813 38.6733 3.39334C38.6959 3.38205 38.6846 3.33687 38.7185 3.33687ZM9.19394 22.6848C8.67438 28.9986 10.8769 33.3019 14.1072 36.103C14.7368 35.5618 15.2482 34.8966 15.6094 34.149C15.9603 33.1839 16.1177 32.1592 16.0725 31.1333V10.3509C15.8179 10.3307 15.5651 10.293 15.3157 10.238C11.7838 13.4705 9.59829 17.9141 9.19394 22.6848ZM22.4088 11.4578V19.5674C22.5425 22.2055 22.4556 24.8502 22.149 27.4738C21.3132 32.1046 18.3653 34.5556 15.4964 37.1082C17.9022 39.2655 21.6747 40.395 26.362 40.0449V12.1581C25.0405 11.9096 23.7642 11.6159 22.4314 11.3787C22.4201 11.3674 22.3975 11.4126 22.4088 11.4578Z" fill="#0066B3"/>
<path fill-rule="evenodd" clip-rule="evenodd" d="M44.863 5.15526C45.3506 5.10522 45.8406 5.22361 46.2516 5.49075C46.6626 5.75788 46.9697 6.15765 47.1219 6.62358C47.8109 8.43074 47.3591 11.3335 45.8456 11.9773C45.3206 12.1842 44.7429 12.2169 44.1978 12.0705C43.6528 11.924 43.1693 11.6063 42.8186 11.1641C42.3904 10.4415 42.186 9.60826 42.2313 8.76958C42.2313 6.77041 42.7621 5.15526 44.863 5.15526Z" fill="#0066B2"/>
<path fill-rule="evenodd" clip-rule="evenodd" d="M54.4295 15.8852C54.8085 14.9843 55.4254 14.2034 56.2141 13.6263C56.6159 13.4309 57.064 13.3506 57.5086 13.3945C57.9532 13.4384 58.377 13.6046 58.7329 13.8748C59.3274 14.3713 59.7893 15.0079 60.0769 15.7271C61.366 19.3249 61.6011 23.216 60.7546 26.9428C60.6338 27.7312 60.353 28.4866 59.9296 29.1625C59.5062 29.8384 58.949 30.4207 58.2924 30.8734C57.8371 31.0934 57.3268 31.1733 56.8261 31.103C56.3254 31.0326 55.8569 30.8151 55.48 30.4781C54.8467 29.767 54.4106 28.9025 54.2149 27.9706V31.1445C52.4268 30.8715 50.624 30.7056 48.816 30.6475V29.8343H49.8213V6.89459H48.7935V6.10396C50.6117 6.03623 52.4231 5.84376 54.2149 5.52792C54.407 5.52792 54.3844 5.52792 54.3957 5.74252C54.4973 7.36897 54.3957 9.05189 54.3957 10.6557L54.4295 15.8852ZM54.4295 18.5621V26.2199C54.4484 26.8094 54.524 27.3957 54.6554 27.9706C54.7684 28.4563 55.0169 29.1001 55.5025 29.1001C55.9882 29.1001 56.056 28.3546 56.1238 27.8464C56.2705 26.0054 56.3045 24.1571 56.2254 22.3119V18.4943C56.2388 17.8871 56.2124 17.2796 56.1463 16.6759C56.0447 16.0208 55.9092 15.4334 55.3783 15.5464C54.5199 15.7384 54.4973 17.5794 54.4521 18.5621H54.4295Z" fill="#0066B2"/>
<path fill-rule="evenodd" clip-rule="evenodd" d="M144.856 13.0503C144.912 15.1059 144.957 17.2858 144.969 19.3076H144.573C144.209 17.5671 143.39 15.9539 142.201 14.6315C141.58 14.0781 140.157 13.5021 139.717 14.5525C139.538 14.995 139.493 15.4801 139.587 15.9479C139.682 16.4157 139.911 16.8455 140.247 17.1842C140.485 17.3875 140.801 17.5456 141.061 17.7263C141.905 18.2423 142.703 18.8319 143.444 19.4883C144.401 20.4714 145.042 21.7183 145.285 23.0687C145.567 24.7116 145.544 26.3926 145.217 28.0271C145.135 28.7146 144.875 29.3688 144.463 29.9253C144.051 30.4818 143.501 30.9215 142.868 31.201C142.482 31.3398 142.079 31.4234 141.671 31.4494C141.152 31.412 140.654 31.2279 140.236 30.9186C139.818 30.6701 139.434 30.4555 139.039 30.1731C138.632 30.4555 138.226 30.7943 137.808 31.1332C137.693 31.267 137.544 31.3671 137.377 31.4228C137.21 31.4785 137.031 31.4877 136.859 31.4494C136.859 29.1905 136.735 26.9315 136.746 24.6726H137.062C137.299 25.339 137.48 26.0054 137.74 26.6266C138.202 27.8183 138.946 28.8802 139.909 29.7213C140.157 29.9246 140.43 30.0954 140.722 30.2296C141.046 30.4 141.406 30.4892 141.772 30.4894C142.085 30.4483 142.371 30.295 142.579 30.0581C142.787 29.8212 142.902 29.5169 142.902 29.2018C143.048 27.6318 142.145 27.0784 141.219 26.4346C140.575 25.9828 139.92 25.4858 139.265 25.0227C139.039 24.8872 138.824 24.7404 138.61 24.5822C138.146 24.1493 137.763 23.6367 137.48 23.0687C136.622 20.9713 136.475 18.6502 137.062 16.4613C137.172 15.8297 137.41 15.2273 137.762 14.6912C138.114 14.1551 138.571 13.6966 139.107 13.3439C139.774 13.0958 140.505 13.0759 141.185 13.2875C141.787 13.4904 142.354 13.7837 142.868 14.1572C143.387 13.807 143.873 13.423 144.381 13.0277L144.856 13.0503Z" fill="#DB1F26"/>
<path fill-rule="evenodd" clip-rule="evenodd" d="M103.731 29.9812H104.781V30.8058H98.4563V30.0038H99.1227V18.7881C99.1566 18.1749 99.1566 17.5603 99.1227 16.9471C99.1227 16.4049 98.9307 15.7385 98.4902 15.7046C98.0497 15.6708 97.7335 16.3259 97.6092 16.7664C97.464 17.3022 97.3695 17.8505 97.3268 18.4041C97.2252 19.6352 97.3268 21.0245 97.3268 22.2443V29.9812H98.0271V30.8058H91.6117V30.0038H92.6169V14.4735H91.6569V13.5586C93.6222 13.5586 95.3277 13.2085 97.3043 13.1859C97.3043 14.2589 97.3043 15.4449 97.3043 16.5179C97.9029 15.0834 98.6257 13.265 100.422 13.1294C102.681 12.9487 103.347 14.8914 103.607 16.8341C103.744 18.2566 103.797 19.6861 103.765 21.1148L103.731 29.9812Z" fill="#DB1F26"/>
<path d="M43.1266 38.451L41.7584 34.5488H41.7352C41.7816 35.1261 41.7816 35.6802 41.7816 36.1882V38.451H41.0859V33.7869H42.1758L43.4745 37.5043H43.4976L44.8426 33.7869H45.9325V38.451H45.1905V36.142C45.1905 35.9111 45.1905 35.611 45.2137 35.2415C45.2368 34.8721 45.2368 34.6412 45.2368 34.5719H45.2137L43.7991 38.4741H43.1266V38.451Z" fill="#0066B2"/>
<path d="M49.2957 38.4504L49.1566 37.9655H49.1334C48.9711 38.1734 48.7856 38.335 48.6232 38.4043C48.4609 38.4735 48.229 38.5197 47.9507 38.5197C47.6029 38.5197 47.3246 38.4273 47.1391 38.2426C46.9536 38.0579 46.8376 37.7808 46.8376 37.4576C46.8376 37.0881 46.9768 36.8111 47.2551 36.6263C47.5333 36.4416 47.9507 36.3493 48.5073 36.3262L49.1102 36.3031V36.1184C49.1102 35.8875 49.0638 35.7258 48.9479 35.6104C48.8319 35.4949 48.6696 35.4488 48.4609 35.4488C48.2754 35.4488 48.1131 35.4719 47.9275 35.518C47.7652 35.5642 47.6029 35.6335 47.4406 35.7028L47.1855 35.1717C47.371 35.0793 47.5797 34.987 47.8116 34.9408C48.0435 34.8946 48.2522 34.8715 48.4609 34.8715C48.9015 34.8715 49.2493 34.9639 49.4812 35.1717C49.7131 35.3564 49.8291 35.6797 49.8291 36.0953V38.4735H49.2957V38.4504ZM48.1826 37.9425C48.4609 37.9425 48.6696 37.8732 48.8319 37.7116C48.9943 37.5499 49.087 37.3421 49.087 37.065V36.7649L48.6232 36.788C48.2754 36.8111 48.0203 36.8572 47.858 36.9727C47.6957 37.0881 47.6261 37.2498 47.6261 37.4576C47.6261 37.6192 47.6725 37.7346 47.7652 37.827C47.8348 37.8963 47.9739 37.9425 48.1826 37.9425Z" fill="#0066B2"/>
<path d="M52.2177 37.8962C52.4032 37.8962 52.5888 37.8731 52.7743 37.8038V38.358C52.6815 38.4042 52.5888 38.4273 52.4496 38.4504C52.3105 38.4734 52.1713 38.4965 52.0322 38.4965C51.3133 38.4965 50.9655 38.1271 50.9655 37.3651V35.4718H50.4785V35.1485L50.9887 34.8714L51.2438 34.1326H51.7076V34.9176H52.7279V35.4949H51.7076V37.3882C51.7076 37.5729 51.7539 37.7115 51.8467 37.7808C51.9394 37.85 52.0554 37.8962 52.2177 37.8962Z" fill="#0066B2"/>
<path d="M55.6965 38.4504L55.5573 37.9655H55.5342C55.3718 38.1734 55.1863 38.335 55.024 38.4043C54.8617 38.4735 54.6298 38.5197 54.3515 38.5197C54.0037 38.5197 53.7254 38.4273 53.5399 38.2426C53.3544 38.0579 53.2384 37.7808 53.2384 37.4576C53.2384 37.0881 53.3775 36.8111 53.6558 36.6263C53.9341 36.4416 54.3515 36.3493 54.908 36.3262L55.511 36.3031V36.1184C55.511 35.8875 55.4646 35.7258 55.3486 35.6104C55.2327 35.4949 55.0704 35.4488 54.8617 35.4488C54.6761 35.4488 54.5138 35.4719 54.3283 35.518C54.166 35.5642 54.0037 35.6335 53.8413 35.7028L53.5862 35.1717C53.7718 35.0793 53.9805 34.987 54.2124 34.9408C54.4443 34.8946 54.653 34.8715 54.8617 34.8715C55.3023 34.8715 55.6501 34.9639 55.882 35.1717C56.1139 35.3564 56.2298 35.6797 56.2298 36.0953V38.4735H55.6965V38.4504ZM54.5602 37.9425C54.8385 37.9425 55.0472 37.8732 55.2095 37.7116C55.3718 37.5499 55.4646 37.3421 55.4646 37.065V36.7649L55.0008 36.788C54.653 36.8111 54.3979 36.8572 54.2356 36.9727C54.0732 37.0881 54.0037 37.2498 54.0037 37.4576C54.0037 37.6192 54.05 37.7346 54.1428 37.827C54.2355 37.8963 54.3747 37.9425 54.5602 37.9425Z" fill="#0066B2"/>
<path d="M59.0585 38.4503V33.7862H59.8237V37.8038H61.818V38.4503H59.0585Z" fill="#0066B2"/>
<path d="M65.6913 36.6721C65.6913 37.2494 65.5522 37.6881 65.2507 38.0113C64.9493 38.3346 64.5319 38.4962 63.9985 38.4962C63.6738 38.4962 63.3724 38.427 63.1173 38.2653C62.8622 38.1268 62.6767 37.8959 62.5376 37.6188C62.3984 37.3417 62.3289 37.0185 62.3289 36.649C62.3289 36.0718 62.468 35.6331 62.7695 35.3098C63.0709 34.9866 63.4883 34.825 64.0217 34.825C64.5319 34.825 64.9493 34.9866 65.2507 35.3098C65.5522 35.6331 65.6913 36.118 65.6913 36.6721ZM63.1173 36.6721C63.1173 37.4803 63.4188 37.8959 64.0217 37.8959C64.6246 37.8959 64.9261 37.4803 64.9261 36.6721C64.9261 35.864 64.6246 35.4715 64.0217 35.4715C63.697 35.4715 63.4651 35.5869 63.326 35.7947C63.1869 36.0025 63.1173 36.2796 63.1173 36.6721Z" fill="#0066B2"/>
<path d="M67.2921 36.5801L67.7095 36.049L68.7762 34.9176H69.6342L68.1965 36.4415L69.7038 38.4503H68.8226L67.6863 36.9033L67.2689 37.2497V38.4503H66.5269V33.4861H67.2689V35.9105L67.2921 36.5801Z" fill="#0066B2"/>
<path d="M72.5319 38.4504L72.3928 37.9655H72.3696C72.2073 38.1734 72.0218 38.335 71.8595 38.4043C71.6971 38.4735 71.4652 38.5197 71.1869 38.5197C70.8391 38.5197 70.5608 38.4273 70.3753 38.2426C70.1898 38.0579 70.0739 37.7808 70.0739 37.4576C70.0739 37.0881 70.213 36.8111 70.4913 36.6263C70.7695 36.4416 71.187 36.3493 71.7435 36.3262L72.3464 36.3031V36.1184C72.3464 35.8875 72.3001 35.7258 72.1841 35.6104C72.0682 35.4949 71.9058 35.4488 71.6971 35.4488C71.5116 35.4488 71.3493 35.4719 71.1638 35.518C71.0014 35.5642 70.8391 35.6335 70.6768 35.7028L70.4217 35.1717C70.6072 35.0793 70.8159 34.987 71.0478 34.9408C71.2797 34.8946 71.4884 34.8715 71.6971 34.8715C72.1377 34.8715 72.4856 34.9639 72.7175 35.1717C72.9494 35.3564 73.0653 35.6797 73.0653 36.0953V38.4735H72.5319V38.4504ZM71.4188 37.9425C71.6971 37.9425 71.9058 37.8732 72.0682 37.7116C72.2305 37.5499 72.3232 37.3421 72.3232 37.065V36.7649L71.8595 36.788C71.5116 36.8111 71.2565 36.8572 71.0942 36.9727C70.9319 37.0881 70.8623 37.2498 70.8623 37.4576C70.8623 37.6192 70.9087 37.7346 71.0014 37.827C71.071 37.8963 71.2101 37.9425 71.4188 37.9425Z" fill="#0066B2"/>
<path d="M74.8733 38.4503H74.1312V33.4861H74.8733V38.4503Z" fill="#0066B2"/>
<path d="M79.7677 38.4503L78.3995 34.5481H78.3764C78.4227 35.1254 78.4227 35.6795 78.4227 36.1875V38.4503H77.7271V33.7862H78.817L80.1156 37.5036H80.1387L81.4837 33.7862H82.5736V38.4503H81.8316V36.1413C81.8316 35.9104 81.8316 35.6103 81.8548 35.2408C81.8779 34.8714 81.8779 34.6405 81.8779 34.5712H81.8548L80.4402 38.4734H79.7677V38.4503Z" fill="#0066B2"/>
<path d="M85.2626 38.5197C84.7061 38.5197 84.2887 38.3581 83.964 38.0348C83.6626 37.7116 83.5002 37.2729 83.5002 36.7187C83.5002 36.1415 83.6394 35.6797 83.9408 35.3564C84.2191 35.0331 84.6365 34.8715 85.1235 34.8715C85.5873 34.8715 85.9583 35.0101 86.2366 35.2871C86.5149 35.5642 86.654 35.9567 86.654 36.4647V36.8803H84.2887C84.2887 37.2267 84.3814 37.4807 84.567 37.6654C84.7525 37.8501 84.9844 37.9425 85.309 37.9425C85.5177 37.9425 85.7032 37.9194 85.8888 37.8732C86.0743 37.827 86.2598 37.7577 86.4685 37.6654V38.2657C86.283 38.3581 86.0975 38.4043 85.9119 38.4504C85.7264 38.4966 85.5177 38.5197 85.2626 38.5197ZM85.1235 35.4257C84.8916 35.4257 84.6829 35.4949 84.5438 35.6566C84.4046 35.8182 84.3119 36.026 84.2887 36.3262H85.8888C85.8888 36.026 85.8192 35.8182 85.6801 35.6566C85.5641 35.4949 85.3786 35.4257 85.1235 35.4257Z" fill="#0066B2"/>
<path d="M90.6207 38.4504H89.8554V36.2799C89.8554 36.0028 89.8091 35.795 89.6931 35.6796C89.5772 35.5411 89.4148 35.4718 89.1598 35.4718C88.8351 35.4718 88.6032 35.5641 88.4641 35.7489C88.3249 35.9336 88.2322 36.2568 88.2322 36.6955V38.4504H87.4901V34.9176H88.0698L88.1858 35.3794H88.2322C88.3481 35.2178 88.4873 35.0793 88.696 34.9869C88.8815 34.8945 89.1134 34.8484 89.3453 34.8484C90.2033 34.8484 90.6207 35.2871 90.6207 36.1414V38.4504Z" fill="#0066B2"/>
<path d="M91.3151 40.0202C91.0832 40.0202 90.8977 39.9971 90.7585 39.951V39.3506C90.8977 39.3968 91.06 39.3968 91.1991 39.3968C91.5238 39.3968 91.6861 39.2121 91.6861 38.8426V34.8943H92.4282V38.8888C92.4282 39.2583 92.3354 39.5353 92.1499 39.7201C91.9412 39.9279 91.6629 40.0202 91.3151 40.0202ZM91.6398 33.9707C91.6398 33.8322 91.6861 33.7398 91.7557 33.6705C91.8253 33.6013 91.9412 33.5551 92.0804 33.5551C92.2195 33.5551 92.3123 33.6013 92.3818 33.6705C92.4514 33.7398 92.4978 33.8553 92.4978 33.9707C92.4978 34.1092 92.4514 34.2016 92.3818 34.2709C92.3123 34.3401 92.1963 34.3863 92.0804 34.3863C91.9412 34.3863 91.8485 34.3401 91.7557 34.2709C91.6629 34.2016 91.6398 34.1092 91.6398 33.9707Z" fill="#0066B2"/>
<path d="M95.7196 38.4504L95.5804 37.9655H95.5572C95.3949 38.1734 95.2094 38.335 95.0471 38.4043C94.8847 38.4735 94.6528 38.5197 94.3746 38.5197C94.0267 38.5197 93.7485 38.4273 93.5629 38.2426C93.3774 38.0579 93.2615 37.7808 93.2615 37.4576C93.2615 37.0881 93.4006 36.8111 93.6789 36.6263C93.9572 36.4416 94.3746 36.3493 94.9311 36.3262L95.534 36.3031V36.1184C95.534 35.8875 95.4877 35.7258 95.3717 35.6104C95.2558 35.4949 95.0934 35.4488 94.8847 35.4488C94.6992 35.4488 94.5369 35.4719 94.3514 35.518C94.1891 35.5642 94.0267 35.6335 93.8644 35.7028L93.6093 35.1717C93.7948 35.0793 94.0035 34.987 94.2354 34.9408C94.4673 34.8946 94.676 34.8715 94.8847 34.8715C95.3253 34.8715 95.6732 34.9639 95.9051 35.1717C96.137 35.3564 96.2529 35.6797 96.2529 36.0953V38.4735H95.7196V38.4504ZM94.6065 37.9425C94.8847 37.9425 95.0934 37.8732 95.2558 37.7116C95.4181 37.5499 95.5109 37.3421 95.5109 37.065V36.7649L95.0471 36.788C94.6992 36.8111 94.4441 36.8572 94.2818 36.9727C94.1195 37.0881 94.0499 37.2498 94.0499 37.4576C94.0499 37.6192 94.0963 37.7346 94.1891 37.827C94.2818 37.8963 94.4209 37.9425 94.6065 37.9425Z" fill="#0066B2"/>
<path d="M100.429 38.4504H99.6635V36.2799C99.6635 36.0028 99.6171 35.795 99.5012 35.6796C99.3853 35.5411 99.2229 35.4718 98.9678 35.4718C98.6432 35.4718 98.4113 35.5641 98.2722 35.7489C98.133 35.9336 98.0403 36.2568 98.0403 36.6955V38.4504H97.2982V34.9176H97.8779L97.9939 35.3794H98.0403C98.1562 35.2178 98.2954 35.0793 98.5041 34.9869C98.6896 34.8945 98.9215 34.8484 99.1534 34.8484C100.011 34.8484 100.429 35.2871 100.429 36.1414V38.4504Z" fill="#0066B2"/>
<path d="M104.486 34.9173V35.3329L103.883 35.4484C103.93 35.5176 103.976 35.61 104.022 35.7255C104.069 35.8409 104.069 35.9564 104.069 36.0718C104.069 36.4412 103.953 36.7183 103.698 36.9261C103.443 37.1339 103.095 37.2494 102.654 37.2494C102.538 37.2494 102.446 37.2494 102.353 37.2263C102.19 37.3186 102.098 37.4341 102.098 37.5726C102.098 37.665 102.144 37.7112 102.214 37.7574C102.283 37.8035 102.422 37.8266 102.631 37.8266H103.257C103.651 37.8266 103.953 37.919 104.138 38.0806C104.347 38.2422 104.44 38.4962 104.44 38.7964C104.44 39.1889 104.278 39.5122 103.953 39.72C103.628 39.9278 103.141 40.0432 102.515 40.0432C102.028 40.0432 101.657 39.9509 101.402 39.7893C101.147 39.6276 101.031 39.3736 101.031 39.0504C101.031 38.8426 101.101 38.6579 101.24 38.4962C101.379 38.3577 101.564 38.2422 101.819 38.1961C101.727 38.1499 101.634 38.0806 101.564 37.9883C101.495 37.8959 101.472 37.8035 101.472 37.6881C101.472 37.5495 101.518 37.4341 101.588 37.3417C101.657 37.2494 101.773 37.157 101.912 37.0647C101.727 36.9954 101.588 36.8569 101.472 36.6721C101.356 36.4874 101.309 36.2796 101.309 36.0487C101.309 35.6562 101.425 35.3791 101.68 35.1482C101.912 34.9404 102.26 34.825 102.724 34.825C102.817 34.825 102.933 34.825 103.049 34.848C103.164 34.8711 103.234 34.8711 103.304 34.8942H104.486V34.9173ZM101.68 39.0042C101.68 39.1658 101.75 39.2813 101.889 39.3736C102.028 39.466 102.237 39.5122 102.515 39.5122C102.933 39.5122 103.234 39.4429 103.443 39.3275C103.651 39.212 103.744 39.0504 103.744 38.8657C103.744 38.704 103.698 38.6117 103.582 38.5424C103.466 38.4731 103.257 38.45 102.979 38.45H102.399C102.19 38.45 102.005 38.4962 101.889 38.6117C101.75 38.6809 101.68 38.8195 101.68 39.0042ZM102.005 36.0487C102.005 36.2796 102.051 36.4412 102.167 36.5567C102.283 36.6721 102.446 36.7414 102.654 36.7414C103.095 36.7414 103.304 36.5105 103.304 36.0487C103.304 35.8178 103.257 35.6331 103.141 35.5176C103.025 35.4022 102.863 35.3329 102.654 35.3329C102.446 35.3329 102.26 35.4022 102.167 35.5176C102.075 35.6331 102.005 35.8178 102.005 36.0487Z" fill="#0066B2"/>
<path d="M105.856 36.5801L106.274 36.049L107.34 34.9176H108.198L106.761 36.4415L108.268 38.4503H107.387L106.251 36.9033L105.833 37.2497V38.4503H105.091V33.4861H105.833V35.9105L105.856 36.5801Z" fill="#0066B2"/>
<path d="M111.119 38.4504L110.98 37.9655H110.956C110.794 38.1734 110.609 38.335 110.446 38.4043C110.284 38.4735 110.052 38.5197 109.774 38.5197C109.426 38.5197 109.148 38.4273 108.962 38.2426C108.777 38.0579 108.661 37.7808 108.661 37.4576C108.661 37.0881 108.8 36.8111 109.078 36.6263C109.356 36.4416 109.774 36.3493 110.33 36.3262L110.933 36.3031V36.1184C110.933 35.8875 110.887 35.7258 110.771 35.6104C110.655 35.4949 110.493 35.4488 110.284 35.4488C110.098 35.4488 109.936 35.4719 109.751 35.518C109.588 35.5642 109.426 35.6335 109.264 35.7028L109.008 35.1717C109.194 35.0793 109.403 34.987 109.635 34.9408C109.867 34.8946 110.075 34.8715 110.284 34.8715C110.725 34.8715 111.072 34.9639 111.304 35.1717C111.536 35.3564 111.652 35.6797 111.652 36.0953V38.4735H111.119V38.4504ZM109.982 37.9425C110.261 37.9425 110.469 37.8732 110.632 37.7116C110.794 37.5499 110.887 37.3421 110.887 37.065V36.7649L110.423 36.788C110.075 36.8111 109.82 36.8572 109.658 36.9727C109.495 37.0881 109.426 37.2498 109.426 37.4576C109.426 37.6192 109.472 37.7346 109.565 37.827C109.658 37.8963 109.797 37.9425 109.982 37.9425Z" fill="#0066B2"/>
<path d="M115.202 38.4501L115.086 37.9883H115.062C114.947 38.1499 114.807 38.2884 114.622 38.3808C114.436 38.4731 114.204 38.5193 113.949 38.5193C113.509 38.5193 113.207 38.4039 112.999 38.1961C112.79 37.9883 112.674 37.665 112.674 37.2263V34.9173H113.439V37.0878C113.439 37.3648 113.486 37.5496 113.602 37.6881C113.717 37.8266 113.88 37.8959 114.135 37.8959C114.46 37.8959 114.691 37.8035 114.831 37.6188C114.97 37.4341 115.062 37.1109 115.062 36.6721V34.9173H115.828V38.4501H115.202Z" fill="#0066B2"/>
<path d="M118.655 38.4503V33.7862H119.421V38.4503H118.655Z" fill="#0066B2"/>
<path d="M123.709 38.4504H122.944V36.2799C122.944 36.0028 122.898 35.795 122.782 35.6796C122.666 35.5411 122.503 35.4718 122.248 35.4718C121.924 35.4718 121.692 35.5641 121.553 35.7489C121.414 35.9336 121.321 36.2568 121.321 36.6955V38.4504H120.579V34.9176H121.158L121.274 35.3794H121.321C121.437 35.2178 121.576 35.0793 121.785 34.9869C121.97 34.8945 122.202 34.8484 122.434 34.8484C123.292 34.8484 123.709 35.2871 123.709 36.1414V38.4504Z" fill="#0066B2"/>
<path d="M125.94 38.5194C125.499 38.5194 125.151 38.3578 124.896 38.0345C124.641 37.7113 124.525 37.2725 124.525 36.6953C124.525 36.1181 124.641 35.6563 124.896 35.333C125.151 35.0098 125.499 34.8481 125.94 34.8481C126.404 34.8481 126.751 35.0098 127.006 35.3561H127.053C127.006 35.1021 127.006 34.8943 127.006 34.7558V33.4627H127.772V38.427H127.192L127.053 37.9652H127.006C126.775 38.3347 126.427 38.5194 125.94 38.5194ZM126.148 37.896C126.45 37.896 126.682 37.8036 126.821 37.642C126.96 37.4573 127.03 37.1802 127.03 36.7877V36.6953C127.03 36.2566 126.96 35.9333 126.821 35.7486C126.682 35.5639 126.45 35.4715 126.148 35.4715C125.893 35.4715 125.685 35.587 125.545 35.7948C125.406 36.0026 125.337 36.3028 125.337 36.7184C125.337 37.1109 125.406 37.4111 125.545 37.6189C125.661 37.8036 125.87 37.896 126.148 37.896Z" fill="#0066B2"/>
<path d="M131.988 36.6721C131.988 37.2494 131.849 37.6881 131.548 38.0113C131.246 38.3346 130.829 38.4962 130.295 38.4962C129.971 38.4962 129.669 38.427 129.414 38.2653C129.159 38.1268 128.974 37.8959 128.834 37.6188C128.695 37.3417 128.626 37.0185 128.626 36.649C128.626 36.0718 128.765 35.6331 129.066 35.3098C129.368 34.9866 129.785 34.825 130.319 34.825C130.829 34.825 131.246 34.9866 131.548 35.3098C131.849 35.6331 131.988 36.118 131.988 36.6721ZM129.414 36.6721C129.414 37.4803 129.716 37.8959 130.319 37.8959C130.921 37.8959 131.223 37.4803 131.223 36.6721C131.223 35.864 130.921 35.4715 130.319 35.4715C129.994 35.4715 129.762 35.5869 129.623 35.7947C129.484 36.0025 129.414 36.2796 129.414 36.6721Z" fill="#0066B2"/>
<path d="M135.979 38.4504H135.213V36.2799C135.213 36.0028 135.167 35.795 135.051 35.6796C134.935 35.5411 134.773 35.4718 134.518 35.4718C134.193 35.4718 133.961 35.5641 133.822 35.7489C133.683 35.9336 133.59 36.2568 133.59 36.6955V38.4504H132.848V34.9176H133.428L133.544 35.3794H133.59C133.706 35.2178 133.845 35.0793 134.054 34.9869C134.24 34.8945 134.471 34.8484 134.703 34.8484C135.561 34.8484 135.979 35.2871 135.979 36.1414V38.4504Z" fill="#0066B2"/>
<path d="M138.575 38.5197C138.019 38.5197 137.601 38.3581 137.277 38.0348C136.952 37.7116 136.813 37.2729 136.813 36.7187C136.813 36.1415 136.952 35.6797 137.253 35.3564C137.532 35.0331 137.949 34.8715 138.436 34.8715C138.9 34.8715 139.271 35.0101 139.549 35.2871C139.827 35.5642 139.967 35.9567 139.967 36.4647V36.8803H137.601C137.601 37.2267 137.694 37.4807 137.88 37.6654C138.065 37.8501 138.297 37.9425 138.622 37.9425C138.83 37.9425 139.016 37.9194 139.201 37.8732C139.387 37.827 139.572 37.7577 139.781 37.6654V38.2657C139.596 38.3581 139.41 38.4043 139.225 38.4504C139.039 38.4966 138.807 38.5197 138.575 38.5197ZM138.436 35.4257C138.204 35.4257 137.996 35.4949 137.856 35.6566C137.717 35.8182 137.625 36.026 137.601 36.3262H139.201C139.201 36.026 139.132 35.8182 138.993 35.6566C138.854 35.4949 138.668 35.4257 138.436 35.4257Z" fill="#0066B2"/>
<path d="M143.19 37.4344C143.19 37.7808 143.074 38.0347 142.819 38.2195C142.564 38.4042 142.216 38.4965 141.729 38.4965C141.265 38.4965 140.871 38.4273 140.592 38.2887V37.6422C141.01 37.8269 141.404 37.9193 141.752 37.9193C142.216 37.9193 142.448 37.7808 142.448 37.5037C142.448 37.4113 142.424 37.3421 142.378 37.2728C142.332 37.2035 142.239 37.1573 142.123 37.0881C142.007 37.0188 141.845 36.9495 141.636 36.8803C141.219 36.7186 140.94 36.557 140.801 36.4185C140.662 36.2568 140.592 36.049 140.592 35.795C140.592 35.4949 140.708 35.264 140.963 35.1023C141.219 34.9407 141.543 34.8484 141.961 34.8484C142.378 34.8484 142.772 34.9407 143.143 35.1023L142.888 35.6565C142.494 35.4949 142.192 35.4256 141.914 35.4256C141.52 35.4256 141.311 35.5411 141.311 35.7719C141.311 35.8874 141.358 35.9798 141.474 36.049C141.566 36.1183 141.798 36.2337 142.146 36.3723C142.448 36.4877 142.656 36.5801 142.795 36.6724C142.935 36.7648 143.027 36.8803 143.097 36.9957C143.166 37.1112 143.19 37.2728 143.19 37.4344Z" fill="#0066B2"/>
<path d="M143.955 33.9707C143.955 33.8322 144.001 33.7398 144.071 33.6705C144.14 33.6013 144.256 33.5551 144.395 33.5551C144.534 33.5551 144.627 33.6013 144.697 33.6705C144.766 33.7398 144.813 33.8553 144.813 33.9707C144.813 34.1092 144.766 34.2016 144.697 34.2709C144.627 34.3401 144.511 34.3863 144.395 34.3863C144.256 34.3863 144.163 34.3401 144.071 34.2709C144.001 34.2016 143.955 34.1092 143.955 33.9707ZM144.766 38.4501H144.024V34.9174H144.766V38.4501Z" fill="#0066B2"/>
<path d="M148.059 38.4504L147.92 37.9655H147.897C147.734 38.1734 147.549 38.335 147.387 38.4043C147.224 38.4735 146.992 38.5197 146.714 38.5197C146.366 38.5197 146.088 38.4273 145.903 38.2426C145.717 38.0579 145.601 37.7808 145.601 37.4576C145.601 37.0881 145.74 36.8111 146.018 36.6263C146.297 36.4416 146.714 36.3493 147.271 36.3262L147.874 36.3031V36.1184C147.874 35.8875 147.827 35.7258 147.711 35.6104C147.595 35.4949 147.433 35.4488 147.224 35.4488C147.039 35.4488 146.876 35.4719 146.691 35.518C146.529 35.5642 146.366 35.6335 146.204 35.7028L145.949 35.1717C146.134 35.0793 146.343 34.987 146.575 34.9408C146.807 34.8946 147.016 34.8715 147.224 34.8715C147.665 34.8715 148.013 34.9639 148.245 35.1717C148.477 35.3564 148.592 35.6797 148.592 36.0953V38.4735H148.059V38.4504ZM146.923 37.9425C147.201 37.9425 147.41 37.8732 147.572 37.7116C147.735 37.5499 147.827 37.3421 147.827 37.065V36.7649L147.363 36.788C147.016 36.8111 146.761 36.8572 146.598 36.9727C146.436 37.0881 146.366 37.2498 146.366 37.4576C146.366 37.6192 146.413 37.7346 146.505 37.827C146.598 37.8963 146.737 37.9425 146.923 37.9425Z" fill="#0066B2"/>
<path fill-rule="evenodd" clip-rule="evenodd" d="M116.529 23.3514H110.35C110.35 25.4071 110.283 27.8693 111.017 29.236C111.109 29.4362 111.246 29.6132 111.416 29.7539C111.586 29.8946 111.785 29.9955 111.999 30.0492C112.15 30.1025 112.305 30.144 112.462 30.1735C112.925 30.1343 113.372 29.9846 113.765 29.737C114.158 29.4894 114.486 29.151 114.721 28.7503C115.242 27.9979 115.657 27.1768 115.953 26.3106C116.077 26.4914 116.314 26.593 116.325 26.7963C116.286 26.9687 116.217 27.133 116.122 27.282C115.218 29.2699 114.168 31.4498 111.412 31.4498C110.273 31.4741 109.162 31.0984 108.272 30.3881C106.693 28.8777 105.752 26.821 105.64 24.639C105.323 22.1441 105.562 19.6099 106.341 17.2184C107.041 15.2757 108.159 13.2878 110.689 13.1184C111.229 13.0787 111.772 13.1527 112.281 13.3355C112.791 13.5184 113.257 13.8061 113.648 14.1801C114.347 14.8559 114.9 15.6667 115.275 16.5633C116.179 18.7086 116.607 21.0246 116.529 23.3514ZM112.011 15.7049C112.011 15.0046 111.898 14.2139 111.446 13.9993C110.621 13.604 110.463 14.9255 110.407 15.6371C110.237 17.7944 110.407 20.4487 110.407 22.493H112.067C111.92 20.3583 112.067 17.9751 111.999 15.7162L112.011 15.7049Z" fill="#DB1F26"/>
<path fill-rule="evenodd" clip-rule="evenodd" d="M35.1599 13.4233V16.9585C35.8037 15.4112 36.4362 13.3216 38.65 13.5701C39.0213 13.6178 39.3686 13.7796 39.644 14.0332C41.101 15.4112 41.2591 19.6806 39.8134 21.1489C39.6481 21.3096 39.4515 21.4347 39.2358 21.5163C39.0201 21.5979 38.79 21.6343 38.5597 21.6233C38.2814 21.5875 38.0134 21.4949 37.7724 21.3511C37.5315 21.2073 37.3227 21.0154 37.1591 20.7875C36.5796 19.8718 36.303 18.797 36.3685 17.7153C36.3887 17.371 36.4264 17.0279 36.4814 16.6875C36.4814 16.3825 36.617 15.9759 36.3233 15.8065C35.9167 16.0437 35.815 16.5858 35.7134 17.0602C35.4178 18.7981 35.308 20.5625 35.3858 22.3236V29.7781H36.7638V30.5913H29.6029V29.7781H30.5743V14.6996H29.5803V13.8412C31.4553 13.7056 33.2963 13.5475 35.1599 13.4233Z" fill="#0066B2"/>
<path fill-rule="evenodd" clip-rule="evenodd" d="M47.2116 13.4233C47.3133 18.7883 47.2116 24.334 47.2116 29.7781H48.3411V30.5913H41.5642V29.7781H42.5356C42.5921 24.8084 42.5356 19.7371 42.5356 14.7222H41.4513V13.8186C43.5182 13.8299 45.3141 13.5814 47.2116 13.4233Z" fill="#0066B2"/>
<path fill-rule="evenodd" clip-rule="evenodd" d="M69.4628 14.7446H68.4123V13.841C70.4002 13.841 72.0944 13.5022 74.0597 13.4909V29.8006H75.1892V30.6138C73.3382 30.6569 71.4926 30.8305 69.6661 31.1333V27.824C68.9319 29.3149 68.2316 30.9413 66.2776 31.1108C64.0865 31.3141 63.4539 29.5747 63.1264 27.7223C62.8556 25.6142 62.7649 23.4869 62.8553 21.3634V14.7446H61.8953V13.841C63.7232 13.8053 65.5479 13.6733 67.3619 13.4457C67.4975 13.4457 67.5539 13.3328 67.5765 13.6039C67.6669 14.7333 67.5765 16.2017 67.5765 17.2747V27.1011C67.5765 27.8804 67.5765 28.9083 68.4349 28.7276C69.2933 28.5468 69.3724 26.83 69.4176 25.9603C69.4966 24.6163 69.4176 23.3061 69.4176 22.2218L69.4628 14.7446Z" fill="#0066B2"/>
<path fill-rule="evenodd" clip-rule="evenodd" d="M88.0989 29.8005H89.1493V30.6137H82.8129V29.8005H83.4454V17.2181C83.4454 16.6534 83.2986 15.9757 82.8355 15.9305C82.3724 15.8853 82.0562 16.4953 81.9319 16.9132C81.5918 18.6951 81.4817 20.5134 81.6044 22.3234V29.857H82.3046V30.6702H75.9231V29.857H76.8831V14.7446H75.9231V13.841C77.8997 13.841 79.5939 13.4908 81.5705 13.4908V16.676C82.1691 15.2302 82.8468 13.6942 84.5297 13.4005C85.1901 13.2886 85.8687 13.4211 86.4385 13.7732C87.2877 14.5465 87.8022 15.6201 87.873 16.7663C88.0611 18.1699 88.1366 19.5863 88.0989 21.0019V29.8005Z" fill="#0066B2"/>
<path fill-rule="evenodd" clip-rule="evenodd" d="M117.353 13.5586H123.678V14.4734H123.046C123.825 18.3475 124.638 22.1765 125.451 26.0054C125.711 24.763 125.971 23.5205 126.219 22.2442C126.274 22.0753 126.312 21.9012 126.332 21.7247C126.291 21.4191 126.227 21.117 126.14 20.8211C125.711 18.7203 125.305 16.5517 124.887 14.4734H124.051V13.5586H130.613V14.4734H129.484C130.229 18.212 131.008 21.928 131.743 25.6553C132.251 23.2947 132.793 20.5952 133.301 18.0765C133.532 17.1883 133.635 16.2717 133.606 15.3544C133.606 14.8123 133.403 14.3944 132.737 14.4734V13.5586H135.718V14.4734C135.565 14.4808 135.416 14.5193 135.278 14.5864C134.306 15.0834 134.148 16.9922 133.843 18.212C133.008 22.4024 132.16 26.7509 131.325 30.8283H128.162C127.62 28.3095 127.1 25.7795 126.581 23.2382C126.016 25.7343 125.519 28.3095 124.988 30.8283H121.6C120.47 25.3616 119.341 19.9401 118.211 14.4734H117.263V13.6263C117.263 13.6263 117.33 13.5586 117.353 13.5586Z" fill="#DB1F26"/>
<path fill-rule="evenodd" clip-rule="evenodd" d="M153.202 22.7187V23.9837C153.104 23.9678 153.011 23.9291 152.931 23.8707C152.643 23.6835 152.311 23.5756 151.968 23.5577C151.625 23.5399 151.283 23.6128 150.977 23.7691C149.464 24.7856 149.441 29.3148 151.745 29.3374C152.267 29.3144 152.771 29.1462 153.202 28.8517V30.1054C152.717 30.3884 152.16 30.525 151.599 30.499C151.038 30.4729 150.497 30.2853 150.04 29.9586C148.549 28.6484 148.605 24.7178 149.927 23.1818C150.317 22.7178 150.863 22.4125 151.463 22.3233C152.068 22.288 152.671 22.4251 153.202 22.7187Z" fill="#DB1F26"/>
<path fill-rule="evenodd" clip-rule="evenodd" d="M156.207 22.4927C156.566 22.4697 156.925 22.5276 157.258 22.6621C159.517 23.69 159.392 29.439 157.145 30.5007C156.775 30.6547 156.371 30.7076 155.974 30.654C155.577 30.6005 155.201 30.4423 154.886 30.1957C153.508 29.0663 153.463 25.1018 154.558 23.498C154.736 23.2138 154.978 22.975 155.264 22.8005C155.55 22.626 155.873 22.5206 156.207 22.4927ZM155.744 23.769C154.355 24.4919 154.276 28.9194 155.88 29.4164C156.172 29.4956 156.48 29.4956 156.772 29.4164C157.992 28.9194 158.252 25.7004 157.483 24.3451C157.351 24.0957 157.143 23.8942 156.89 23.7686C156.637 23.6431 156.351 23.5998 156.072 23.6448C155.957 23.6689 155.846 23.7108 155.744 23.769Z" fill="#DB1F26"/>
<path fill-rule="evenodd" clip-rule="evenodd" d="M163.605 24.1646C163.788 23.6555 164.064 23.1846 164.418 22.7754C164.679 22.5599 165.014 22.4567 165.351 22.4885C165.688 22.5203 165.998 22.6844 166.214 22.9448C166.267 23.0071 166.312 23.0754 166.349 23.1481C166.65 24.3164 166.738 25.5292 166.609 26.7286V30.5462H165.48V25.023C165.48 24.4696 165.48 23.6338 165.039 23.6112C164.599 23.5886 164.407 24.1421 164.271 24.4018C164.183 24.5744 164.103 24.7516 164.034 24.9327C163.929 25.0946 163.846 25.2692 163.785 25.4523C163.752 25.877 163.752 26.3038 163.785 26.7286V30.5462H162.656V25.023C162.656 24.447 162.656 23.6338 162.238 23.6112C161.82 23.5886 161.402 24.5487 161.233 24.9327C161.131 25.0947 161.051 25.2694 160.996 25.4523C160.962 25.877 160.962 26.3038 160.996 26.7286V30.5462H159.866V22.6399H160.826C160.854 23.1251 160.854 23.6116 160.826 24.0969C161.233 23.4644 161.413 22.5495 162.34 22.493C163.266 22.4365 163.593 23.1594 163.605 24.1646Z" fill="#DB1F26"/>
<path fill-rule="evenodd" clip-rule="evenodd" d="M146.832 27.3496C148.447 27.0446 148.571 30.0151 147.295 30.3427C146.47 30.5686 145.951 29.7554 145.883 29.1003C145.849 28.8279 145.873 28.5514 145.953 28.2888C146.033 28.0262 146.167 27.7832 146.346 27.5755C146.487 27.4623 146.654 27.3848 146.832 27.3496Z" fill="#DB1F26"/>
<rect x="178.333" y="6" width="1.66667" height="40" fill="#434A53"/>
<rect x="290" y="6" width="1.66667" height="40" fill="#434A53"/>
<path d="M219.79 8.33334H199.445C196.966 8.33334 195 10.5559 195 13.3768V35.5167C195 38.2521 196.966 40.4747 199.445 40.5602H219.875C222.354 40.5602 224.32 38.3376 224.32 35.5167V13.3768C224.235 10.6414 222.183 8.33334 219.79 8.33334ZM201.753 37.9957H200.642C199.274 37.9957 198.248 36.799 198.248 35.2603V35.0038V14.5735V13.4623C198.334 12.0091 199.274 10.8123 200.642 10.8123H202.864C204.916 10.8123 206.54 12.7784 206.54 15.0864C206.54 16.1977 206.113 17.2235 205.514 17.9928L199.787 24.404L205.172 30.4733C205.856 31.2426 206.284 32.2684 206.284 33.4651C206.284 36.0296 204.232 37.9957 201.753 37.9957ZM218.422 37.9957H208.335C208.335 37.9957 209.532 35.2603 209.532 33.5506C209.532 31.4991 208.934 29.6184 207.908 28.3362L204.489 24.4895L207.993 20.4718C209.019 19.3605 209.703 17.48 209.703 15.2574C209.703 13.5478 209.276 12.0091 208.592 10.8978H211.071C213.122 10.8978 214.746 12.8639 214.746 15.1719C214.746 16.2832 214.319 17.309 213.721 18.0783L208.079 24.404L219.79 37.5683C219.362 37.8247 218.85 37.9957 218.422 37.9957ZM220.901 33.8926L212.438 24.4895L216.456 20.0444C217.311 18.9331 217.824 17.2235 217.824 15.3429C217.824 13.6332 217.396 12.0091 216.713 10.8978L218.508 10.9833C219.875 10.9833 220.987 12.18 220.987 13.7187L220.901 33.8926Z" fill="#00529B"/>
<path d="M242.272 22.9508C242.443 22.7799 242.614 22.5234 242.87 22.2669C243.127 22.0105 243.298 21.6686 243.469 21.2412C243.64 20.8138 243.81 20.3863 243.981 19.9589C244.152 19.446 244.152 18.9331 244.152 18.4202C244.152 17.3945 243.981 16.3687 243.64 15.4284C243.298 14.4881 242.785 13.7187 242.101 13.0349C241.417 12.351 240.562 11.8381 239.536 11.4107C238.511 10.9833 237.314 10.8123 235.946 10.8123H232.014H230.988H226.97V15.7703V32.8667V37.9102H236.801C238.254 37.9102 239.451 37.7392 240.562 37.3118C241.588 36.8844 242.528 36.286 243.212 35.5167C243.896 34.7474 244.409 33.8925 244.751 32.8667C245.093 31.841 245.264 30.8152 245.264 29.7039C245.264 28.1652 244.922 26.7975 244.323 25.6862C243.896 24.4895 243.127 23.5492 242.272 22.9508ZM237.912 15.8558C238.254 16.0267 238.511 16.1977 238.767 16.3687C239.365 16.967 239.622 17.6509 239.622 18.5057C239.622 19.2751 239.536 19.8735 239.28 20.3863C239.023 20.8992 238.853 21.2412 238.596 21.4976H231.757V15.5138H236.032C236.801 15.5138 237.399 15.5993 237.912 15.8558ZM237.228 26.1136C238.511 26.1136 239.365 26.4556 239.964 27.1394C240.562 27.8233 240.819 28.6781 240.819 29.6184C240.819 30.5587 240.477 31.4136 239.878 32.0974C239.194 32.7813 238.169 33.1232 236.715 33.1232H236.203H231.757V26.0282H237.228V26.1136Z" fill="#00529B"/>
<path d="M262.189 26.2846C262.959 25.7717 263.557 25.0878 264.07 24.3185C264.583 23.5492 264.925 22.7798 265.181 21.925C265.438 21.0702 265.523 20.1299 265.523 19.1896C265.523 17.9928 265.352 16.8815 265.01 15.8558C264.668 14.83 264.07 13.9751 263.386 13.2058C262.617 12.4365 261.762 11.9236 260.651 11.4962C259.539 11.0687 258.257 10.8978 256.889 10.8978H256.718H247.144H247.059V37.9102H251.76V27.9088H254.325L260.736 37.9957H266.207L259.539 27.5668C260.565 27.2249 261.42 26.883 262.189 26.2846ZM256.804 15.5138C257.06 15.5138 257.402 15.5138 257.659 15.5993C258.514 15.7703 259.197 16.0267 259.71 16.5396C260.394 17.2235 260.822 18.0783 260.822 19.1041C260.822 19.617 260.736 20.1299 260.565 20.6428C260.394 21.1557 260.138 21.5831 259.881 21.925C259.539 22.2669 259.112 22.6089 258.599 22.8653C258.086 23.1218 257.488 23.2072 256.718 23.2072H251.76V15.5138H256.804Z" fill="#00529B"/>
<path d="M267.917 10.8978C267.831 10.8978 267.831 10.8978 267.746 10.8978V20.8138V27.9088V37.9102H272.533V10.8978H267.917Z" fill="#00529B"/>
<path d="M328.333 0C314.524 0 303.333 11.191 303.333 25C303.333 38.809 314.524 50 328.333 50C342.142 50 353.333 38.809 353.333 25C353.333 11.191 342.142 0 328.333 0ZM328.333 44.1647C317.762 44.1647 309.189 35.5915 309.189 25.02C309.189 14.4484 317.762 5.8753 328.333 5.8753C338.905 5.8753 347.478 14.4484 347.478 25.02C347.498 35.5915 338.925 44.1647 328.333 44.1647Z" fill="#BDBCBF"/>
<path d="M346.319 26.8785C344.041 30.2158 341.942 33.3933 339.704 36.4708C338.026 38.769 335.727 40.4477 333.429 42.0863C332.13 43.0256 330.871 44.0448 329.692 45.1239C328.673 46.0432 328.173 47.2622 328.353 48.6811C328.353 48.761 328.333 48.8409 328.313 49.0208C327.954 48.741 327.614 48.5212 327.334 48.2414C326.415 47.3022 325.436 46.4029 324.656 45.3437C323.077 43.1655 323.157 40.8473 324.456 38.5692C325.136 37.3901 325.915 36.291 326.735 35.1919C328.273 33.0935 329.932 31.0552 330.871 28.5772C331.531 28.8969 331.91 29.5364 331.691 30.2558C331.511 30.8553 331.191 31.4349 330.851 31.9744C330.472 32.574 329.952 33.0935 329.612 33.713C328.653 35.4716 329.672 37.3301 331.651 37.51C332.87 37.6099 334.009 37.2702 335.068 36.7106C336.966 35.6915 338.325 34.1127 339.564 32.4141C340.703 30.8953 341.763 29.2966 343.301 28.1375C343.801 27.7578 344.32 27.3981 344.88 27.1383C345.28 26.9984 345.759 26.9984 346.319 26.8785Z" fill="#2B3684"/>
<path d="M342.702 27.8377C342.442 28.0376 342.202 28.1575 342.022 28.3573C340.963 29.6163 339.904 30.8953 338.885 32.1743C337.826 33.5132 336.767 34.8121 335.328 35.7514C334.289 36.4308 333.19 36.8705 331.931 36.8505C330.252 36.8305 329.433 35.3517 330.332 33.9129C330.752 33.2334 331.311 32.6539 331.731 31.9744C332.03 31.4948 332.31 30.9352 332.39 30.3757C332.59 29.0567 331.951 28.0975 330.592 27.518C330.412 27.9177 330.252 28.2974 330.072 28.697C329.193 30.7154 327.894 32.494 326.555 34.2326C325.955 35.012 325.416 35.8313 324.796 36.5907C324.656 36.7706 324.297 36.9704 324.097 36.9304C322.558 36.5108 321.119 35.8713 319.72 34.8921C321.699 31.5348 324.536 29.2566 328.054 27.7978C333.07 25.7194 338.985 26.1191 342.702 27.8377Z" fill="#128D45"/>
<path d="M317.582 33.1535C316.363 32.0144 315.444 30.7754 314.724 29.4165C313.186 26.5388 312.566 23.4812 312.946 20.2438C312.986 19.944 313.026 19.7242 313.405 19.7242C318.182 19.7042 322.778 20.5635 327.114 22.6019C327.174 22.6219 327.214 22.6819 327.314 22.7618C323.058 25.2798 319.68 28.5372 317.582 33.1535Z" fill="#128D45"/>
<path d="M329.573 22.7018C331.611 21.7026 333.729 21.0032 335.907 20.5036C338.326 19.964 340.764 19.7442 343.222 19.7242C343.681 19.7242 343.921 19.8441 343.941 20.3237C344.081 22.4021 344.001 24.4404 343.361 26.4588C343.242 26.8585 343.042 26.8785 342.702 26.7386C341.003 26.0991 339.245 25.6595 337.426 25.5396C336.247 25.4596 335.048 25.4796 333.869 25.4596C333.649 25.4596 333.389 25.4596 333.21 25.3397C332.031 24.4804 330.832 23.6011 329.573 22.7018Z" fill="#128D45"/>
<path d="M335.328 13.749C330.572 13.749 325.895 13.749 321.119 13.749C321.119 12.8897 321.099 12.0703 321.139 11.231C321.139 11.1111 321.379 10.9512 321.519 10.8913C323.657 10.0319 325.776 9.19262 327.934 8.37327C328.114 8.31332 328.353 8.31332 328.533 8.37327C330.672 9.19262 332.81 10.0319 334.948 10.8913C335.108 10.9512 335.328 11.1111 335.328 11.231C335.348 12.0703 335.328 12.9096 335.328 13.749Z" fill="#D9252A"/>
<path d="M317.742 14.6483C318.002 14.6483 318.202 14.6483 318.402 14.6483C321.299 14.6483 324.197 14.6683 327.115 14.6283C327.674 14.6283 327.874 14.7682 327.854 15.3478C327.814 17.526 327.834 19.6843 327.834 22.0024C324.597 20.4637 321.259 19.4844 317.742 19.0648C317.742 17.6259 317.742 16.1871 317.742 14.6483Z" fill="#D9252A"/>
<path d="M338.705 19.0847C335.248 19.5244 331.93 20.4636 328.733 22.0024C328.693 21.7026 328.653 21.4828 328.653 21.263C328.653 19.2846 328.653 17.3062 328.653 15.3078C328.653 14.8881 328.733 14.6483 329.233 14.6483C332.33 14.6683 335.408 14.6683 338.505 14.6683C338.565 14.6683 338.625 14.6883 338.745 14.7082C338.705 16.1271 338.705 17.546 338.705 19.0847Z" fill="#D9252A"/>
<path d="M310.348 27.0384C311.187 26.8186 312.766 27.498 313.166 28.3773C315.264 33.0736 318.761 36.251 323.677 37.8098C323.777 37.8298 323.857 37.9097 323.877 37.9097C323.437 39.1487 323.018 40.3677 322.578 41.6467C321.839 41.1271 321.039 40.5875 320.26 39.988C317.982 38.2094 316.163 35.9912 314.604 33.5931C313.186 31.4149 311.767 29.2166 310.348 27.0384Z" fill="#2B3684"/>
<path d="M332.01 25.5396C326.435 26.7586 321.978 29.4564 318.961 34.2726C318.321 34.0927 318.341 33.753 318.581 33.2734C320.48 29.1767 323.577 26.199 327.374 23.8409C328.194 23.3413 328.813 23.3213 329.552 23.8809C330.332 24.4604 331.191 24.98 332.01 25.5396Z" fill="#128D45"/>
<path d="M332.35 43.745C331.931 45.6435 330.652 46.8026 328.953 47.8617C329.413 45.7634 330.892 44.7642 332.35 43.745Z" fill="#2B3684"/>
<path d="M313.725 42.4461L313.445 42.1863L313.945 41.6267L312.906 41.7266L312.526 41.3869L313.585 41.327L313.725 39.988L314.085 40.3278L313.965 41.307L314.225 41.287L314.644 40.8274L314.924 41.0872L313.725 42.4461Z" fill="black"/>
<path d="M311.567 39.9081L312.246 40.6075L312.526 40.3477L311.907 39.7083L312.146 39.4884L312.766 40.1479L313.106 39.8282L312.406 39.0887L312.646 38.8689L313.605 39.8481L312.266 41.1071L311.327 40.1279L311.567 39.9081Z" fill="black"/>
<path d="M310.268 38.829L309.928 38.3893L311.367 37.2502L311.587 37.53L310.607 38.3094C310.587 38.3294 310.547 38.3693 310.488 38.4093C310.428 38.4493 310.388 38.4893 310.368 38.5092L311.806 37.8298L312.046 38.1295L311.047 39.3686C311.067 39.3486 311.107 39.3086 311.167 39.2686C311.227 39.2287 311.247 39.1887 311.287 39.1687L312.266 38.3893L312.486 38.6691L311.047 39.8082L310.707 39.3686L311.627 38.2095L310.268 38.829Z" fill="black"/>
<path d="M309.169 36.6907L309.708 37.51L310.028 37.2902L309.528 36.5508L309.788 36.371L310.288 37.1104L310.687 36.8506L310.128 35.9913L310.408 35.8114L311.167 36.9705L309.628 37.9697L308.889 36.8306L309.169 36.6907Z" fill="black"/>
<path d="M308.669 36.4708L308.469 36.1111L309.249 34.8521L308.11 35.4716L307.93 35.1519L309.548 34.2726L309.728 34.6123L308.929 35.8913L310.088 35.2718L310.268 35.5915L308.669 36.4708Z" fill="black"/>
<path d="M307.21 33.5132L307.51 33.3733L307.73 33.8729L309.109 33.2534L309.269 33.6131L307.89 34.2326L308.11 34.7322L307.81 34.8721L307.21 33.5132Z" fill="black"/>
<path d="M306.95 31.7946L307.27 32.7138L307.63 32.5739L307.33 31.7346L307.63 31.6347L307.93 32.474L308.369 32.3142L308.029 31.3549L308.349 31.235L308.809 32.554L307.07 33.1735L306.631 31.8945L306.95 31.7946Z" fill="black"/>
<path d="M306.251 30.3158C306.271 30.2358 306.291 30.1759 306.331 30.1159C306.371 30.076 306.411 30.016 306.451 29.996C306.491 29.9561 306.551 29.9361 306.631 29.9161C306.711 29.8961 306.811 29.8961 306.89 29.9161C306.99 29.9361 307.05 29.996 307.11 30.076C307.13 29.9761 307.15 29.9161 307.21 29.8561C307.27 29.7962 307.35 29.7562 307.47 29.7362L307.59 29.6963C307.67 29.6763 307.73 29.6563 307.75 29.6363C307.79 29.6163 307.83 29.5764 307.83 29.5364L307.87 29.5164L307.97 29.9361C307.93 29.9561 307.91 29.9761 307.89 29.9761C307.85 29.996 307.79 30.016 307.75 30.036L307.59 30.076C307.47 30.1159 307.41 30.1559 307.37 30.1959C307.35 30.2358 307.35 30.3158 307.37 30.4157L307.47 30.7754L308.169 30.5956L308.269 30.9553L306.491 31.4149L306.271 30.5556C306.251 30.4956 306.251 30.3957 306.251 30.3158ZM306.711 31.0152L307.19 30.8953L307.09 30.4956C307.07 30.4157 307.05 30.3557 307.01 30.3158C306.95 30.2558 306.89 30.2358 306.791 30.2558C306.691 30.2758 306.611 30.3358 306.591 30.4157C306.571 30.4557 306.591 30.5156 306.611 30.5956L306.711 31.0152Z" fill="black"/>
<path d="M307.79 28.8969L307.869 29.2766L306.071 29.6363L305.991 29.2566L307.79 28.8969Z" fill="black"/>
<path d="M305.831 28.2974L305.771 27.8577L307.51 26.9584L307.57 27.3781L307.21 27.558L307.31 28.2374L307.71 28.3173L307.77 28.717L305.831 28.2974ZM306.97 28.1575L306.91 27.6978L306.231 28.0176L306.97 28.1575Z" fill="black"/>
<path d="M305.652 26.8585L305.632 26.4588L306.871 25.6595L305.592 25.7194L305.572 25.3597L307.41 25.2798L307.43 25.6595L306.171 26.4788L307.47 26.4189L307.49 26.7786L305.652 26.8585Z" fill="black"/>
<path d="M305.711 23.0616C305.771 22.9417 305.851 22.8417 305.971 22.7618C306.071 22.7019 306.171 22.6619 306.271 22.6419C306.371 22.6219 306.491 22.6219 306.571 22.6219C306.81 22.6419 307.01 22.7019 307.19 22.8218C307.41 22.9616 307.51 23.1815 307.49 23.4612L307.43 24.2606L305.591 24.1407L305.651 23.3413C305.651 23.2214 305.671 23.1415 305.711 23.0616ZM305.931 23.781L307.13 23.8609L307.15 23.5012C307.17 23.3214 307.09 23.1815 306.91 23.1015C306.81 23.0616 306.691 23.0216 306.571 23.0216C306.391 23.0016 306.231 23.0216 306.131 23.0816C306.031 23.1415 305.971 23.2414 305.951 23.4213L305.931 23.781Z" fill="black"/>
<path d="M306.291 20.8833L306.151 21.8426L306.531 21.9025L306.671 21.0232L306.99 21.0632L306.85 21.9425L307.31 22.0224L307.47 21.0232L307.79 21.0832L307.57 22.4621L305.751 22.1823L305.951 20.8434L306.291 20.8833Z" fill="black"/>
<path d="M307.35 20.4037C307.43 20.4037 307.51 20.4037 307.55 20.3837C307.63 20.3437 307.71 20.2438 307.73 20.0839C307.75 19.984 307.75 19.9241 307.75 19.8641C307.73 19.7442 307.69 19.6843 307.57 19.6643C307.51 19.6443 307.45 19.6643 307.41 19.7042C307.37 19.7442 307.31 19.8241 307.27 19.9241L307.19 20.1039C307.11 20.2838 307.03 20.4037 306.95 20.4636C306.831 20.5635 306.691 20.6035 306.511 20.5436C306.351 20.5036 306.231 20.4237 306.151 20.2638C306.071 20.1239 306.051 19.944 306.111 19.7042C306.151 19.5044 306.251 19.3645 306.371 19.2446C306.511 19.1247 306.671 19.1047 306.851 19.1447L306.771 19.5044C306.671 19.4844 306.571 19.5244 306.511 19.6043C306.471 19.6643 306.431 19.7242 306.411 19.8241C306.391 19.9241 306.391 20.004 306.411 20.0839C306.431 20.1439 306.491 20.2038 306.551 20.2038C306.611 20.2238 306.671 20.2038 306.711 20.1439C306.731 20.1039 306.791 20.044 306.851 19.9241L306.99 19.6243C307.05 19.4844 307.13 19.4045 307.19 19.3445C307.29 19.2646 307.43 19.2246 307.59 19.2646C307.75 19.3046 307.87 19.4045 307.95 19.5444C308.03 19.7042 308.03 19.8841 307.99 20.1239C307.93 20.3637 307.83 20.5236 307.69 20.6435C307.55 20.7634 307.39 20.7834 307.21 20.7434L307.35 20.4037Z" fill="black"/>
<path d="M306.651 18.1055L306.791 17.6859L308.749 17.6459L308.629 18.0456H308.229L308.01 18.6851L308.329 18.9249L308.21 19.3046L306.651 18.1055ZM307.73 18.4852L307.87 18.0456H307.11L307.73 18.4852Z" fill="black"/>
<path d="M309.088 17.6259C309.088 17.546 309.088 17.4861 309.049 17.4461C309.009 17.4061 308.969 17.3462 308.889 17.3262L308.809 17.526L308.469 17.3861L308.609 17.0264L308.909 17.1463C308.969 17.1663 309.009 17.1863 309.069 17.2263C309.128 17.2662 309.168 17.3062 309.188 17.3662C309.208 17.4261 309.228 17.4861 309.228 17.546C309.228 17.606 309.228 17.6459 309.208 17.6659L309.088 17.6259Z" fill="black"/>
<path d="M309.209 14.7282C309.249 14.8681 309.209 15.028 309.129 15.2078L308.949 15.5476L309.548 15.8473L309.368 16.1871L307.73 15.3477L308.089 14.6483C308.169 14.4884 308.289 14.3685 308.409 14.3286C308.549 14.2686 308.689 14.2886 308.869 14.3885C309.069 14.4684 309.169 14.5883 309.209 14.7282ZM308.489 14.6883C308.429 14.7082 308.389 14.7682 308.349 14.8481L308.189 15.1479L308.669 15.3877L308.829 15.0879C308.869 15.008 308.889 14.9481 308.869 14.8681C308.849 14.8082 308.809 14.7482 308.709 14.7082C308.609 14.6683 308.549 14.6683 308.489 14.6883Z" fill="black"/>
<path d="M309.548 12.7498L309.049 13.5891L309.388 13.789L309.848 13.0296L310.128 13.1895L309.668 13.9488L310.068 14.1887L310.607 13.3094L310.887 13.4892L310.168 14.6883L308.589 13.729L309.289 12.5699L309.548 12.7498Z" fill="black"/>
<path d="M310.248 11.211L310.568 10.7714L312.046 11.8705L311.827 12.1503L310.827 11.4109C310.807 11.3909 310.767 11.3509 310.707 11.311C310.648 11.271 310.608 11.251 310.588 11.231L311.627 12.4301L311.407 12.7298L309.968 12.0903C309.988 12.1103 310.028 12.1503 310.088 12.1703C310.148 12.2102 310.188 12.2302 310.208 12.2502L311.207 12.9896L310.987 13.2694L309.508 12.1703L309.848 11.7106L311.207 12.3102L310.248 11.211Z" fill="black"/>
<path d="M311.947 9.49243C312.046 9.51242 312.126 9.55238 312.206 9.61234C312.286 9.69227 312.346 9.77221 312.346 9.85214C312.346 9.89211 312.346 9.95206 312.326 10.032C312.406 9.99203 312.506 9.97205 312.586 9.97205C312.666 9.99203 312.766 10.032 312.826 10.092C312.906 10.1719 312.966 10.2518 312.986 10.3517C313.006 10.4117 313.006 10.4716 313.006 10.5516C313.006 10.6315 312.986 10.6915 312.946 10.7714C312.906 10.8513 312.846 10.9113 312.786 10.9912L312.226 11.6107L310.847 10.3917L311.447 9.73224C311.647 9.55238 311.787 9.49243 311.947 9.49243ZM311.367 10.3318L311.667 10.6115L311.967 10.2718C312.026 10.2119 312.046 10.1519 312.066 10.092C312.086 10.032 312.046 9.97205 311.987 9.93208C311.927 9.87213 311.867 9.85214 311.787 9.89211C311.727 9.9121 311.687 9.97205 311.627 10.032L311.367 10.3318ZM311.907 10.7914L312.266 11.1111L312.566 10.7714C312.626 10.7115 312.646 10.6515 312.666 10.6115C312.686 10.5316 312.666 10.4517 312.566 10.3717C312.486 10.3118 312.426 10.2918 312.346 10.3318C312.306 10.3517 312.246 10.3917 312.206 10.4517L311.907 10.7914Z" fill="black"/>
<path d="M312.606 8.57314L312.926 8.27338L314.664 9.17266L314.364 9.45243L314.005 9.27258L313.505 9.73221L313.665 10.0919L313.365 10.3717L312.606 8.57314ZM313.365 9.43245L313.705 9.11271L313.045 8.75299L313.365 9.43245Z" fill="black"/>
<path d="M313.665 7.61394L313.985 7.35414L315.364 7.9137L314.564 6.9145L314.844 6.69467L315.983 8.13352L315.684 8.37333L314.285 7.81378L315.104 8.83296L314.804 9.05279L313.665 7.61394Z" fill="black"/>
<path d="M316.583 6.19504C316.483 6.11511 316.383 6.07514 316.263 6.09512C316.203 6.11511 316.123 6.13509 316.063 6.17506C315.943 6.25499 315.863 6.3749 315.843 6.51479C315.823 6.65467 315.883 6.83453 316.003 7.01439C316.123 7.19424 316.263 7.31415 316.403 7.33413C316.543 7.35412 316.663 7.33413 316.783 7.2542C316.882 7.17426 316.962 7.09432 316.982 6.9944C317.002 6.89448 317.002 6.77458 316.942 6.67466L316.583 6.91447L316.403 6.63469L317.042 6.21503L317.582 7.03437L317.362 7.17426L317.202 6.9944C317.182 7.11431 317.162 7.19424 317.142 7.2542C317.082 7.35412 317.002 7.45404 316.882 7.53397C316.683 7.67386 316.463 7.71383 316.243 7.65388C316.023 7.59392 315.823 7.45404 315.663 7.19424C315.504 6.95443 315.444 6.69464 315.484 6.45483C315.524 6.21503 315.663 6.01519 315.883 5.8753C316.083 5.75539 316.263 5.69544 316.463 5.71543C316.643 5.73541 316.802 5.81535 316.902 5.95523L316.583 6.19504Z" fill="black"/>
<path d="M317.003 5.25581L317.342 5.07596L317.882 6.07516C317.942 6.19506 318.002 6.25501 318.062 6.29498C318.142 6.35493 318.262 6.35493 318.401 6.29498C318.541 6.21504 318.601 6.13511 318.601 6.0152C318.601 5.95525 318.561 5.85533 318.501 5.75541L317.962 4.75621L318.302 4.57635L318.841 5.57556C318.941 5.75541 318.981 5.8953 318.981 6.0152C318.981 6.23503 318.841 6.43487 318.541 6.57476C318.262 6.71464 318.022 6.73463 317.822 6.61472C317.722 6.55477 317.622 6.43487 317.522 6.25501L317.003 5.25581Z" fill="black"/>
<path d="M318.761 4.35654L319.141 4.19667L320.32 5.09595L319.8 3.9169L320.14 3.77701L320.86 5.47565L320.5 5.63552L319.301 4.73624L319.82 5.93528L319.481 6.07517L318.761 4.35654Z" fill="black"/>
<path d="M321.079 3.43725L321.499 3.29736L322.698 4.83613L322.298 4.95604L322.058 4.63629L321.419 4.85612V5.2558L321.039 5.3757L321.079 3.43725ZM321.419 4.53637L321.859 4.39648L321.419 3.77698V4.53637Z" fill="black"/>
<path d="M322.458 3.01761L322.858 2.91769L323.857 3.99683L323.557 2.73783L323.897 2.6579L324.316 4.45646L323.937 4.5364L322.918 3.43727L323.217 4.71625L322.878 4.79619L322.458 3.01761Z" fill="black"/>
<path d="M326.215 2.3981C326.355 2.41808 326.455 2.49802 326.555 2.59794C326.635 2.67787 326.675 2.77779 326.715 2.87771C326.755 2.97763 326.775 3.07755 326.775 3.17747C326.795 3.41728 326.775 3.63711 326.695 3.81696C326.595 4.05677 326.395 4.19666 326.115 4.21664L325.316 4.29658L325.116 2.45805L325.915 2.37811C326.035 2.37811 326.135 2.37811 326.215 2.3981ZM325.536 2.73782L325.676 3.93687L326.035 3.8969C326.215 3.87691 326.335 3.77699 326.375 3.59714C326.395 3.49722 326.415 3.37731 326.395 3.23743C326.375 3.05757 326.335 2.91768 326.255 2.81776C326.195 2.71784 326.055 2.67787 325.895 2.69786L325.536 2.73782Z" fill="black"/>
<path d="M327.614 2.25824H328.054L328.753 4.07679H328.333L328.193 3.69709L327.514 3.71707L327.394 4.09677H326.994L327.614 2.25824ZM327.614 3.41731L328.094 3.39733L327.854 2.6779L327.614 3.41731Z" fill="black"/>
<path d="M330.392 2.65789L329.413 2.59794L329.393 2.99762L330.292 3.05757L330.272 3.37732L329.373 3.31737L329.353 3.79698L330.372 3.85694L330.352 4.19666L328.953 4.11673L329.053 2.2782L330.392 2.35813V2.65789Z" fill="black"/>
<path d="M332.03 2.59794C332.09 2.63791 332.15 2.67788 332.19 2.75781C332.23 2.81777 332.25 2.85773 332.25 2.91769C332.25 2.97764 332.27 3.03759 332.25 3.11753C332.23 3.19746 332.21 3.2774 332.15 3.35733C332.09 3.43727 332.01 3.47724 331.91 3.49722C331.99 3.53719 332.05 3.59714 332.07 3.65709C332.09 3.71705 332.11 3.81697 332.09 3.95686L332.07 4.07676C332.05 4.15669 332.05 4.21665 332.05 4.25662C332.05 4.29658 332.07 4.33655 332.11 4.37652V4.41649L331.69 4.35654C331.69 4.31657 331.69 4.2766 331.67 4.25662C331.67 4.19666 331.67 4.15669 331.67 4.09674L331.69 3.93687C331.71 3.81697 331.69 3.73703 331.67 3.69706C331.65 3.65709 331.571 3.61713 331.471 3.61713L331.091 3.55717L330.991 4.2766L330.611 4.21665L330.871 2.3981L331.75 2.51801C331.87 2.53799 331.97 2.55797 332.03 2.59794ZM331.211 2.75781L331.131 3.25741L331.551 3.31737C331.631 3.33735 331.69 3.33735 331.73 3.31737C331.81 3.29738 331.85 3.23743 331.87 3.11753C331.89 2.99762 331.87 2.93767 331.79 2.87772C331.75 2.85773 331.69 2.83775 331.611 2.81777L331.211 2.75781Z" fill="black"/>
<path d="M333.329 2.79779L333.749 2.89771L333.969 4.83616L333.569 4.73624L333.529 4.33656L332.87 4.17669L332.67 4.51642L332.27 4.4165L333.329 2.79779ZM333.05 3.9169L333.509 4.01682L333.449 3.25742L333.05 3.9169Z" fill="black"/>
<path d="M334.149 4.89607L334.728 3.13748L335.088 3.25739L334.868 3.91686L335.548 4.13668L335.768 3.47721L336.127 3.59711L335.548 5.35571L335.188 5.2358L335.448 4.45643L334.768 4.2366L334.509 5.01598L334.149 4.89607Z" fill="black"/>
<path d="M338.505 4.63631L338.365 4.93608L337.866 4.69627L337.226 6.07516L336.866 5.91529L337.506 4.53639L337.006 4.29659L337.146 3.99683L338.505 4.63631Z" fill="black"/>
<path d="M339.824 5.73542L338.965 5.2558L338.765 5.59553L339.544 6.03518L339.385 6.31495L338.605 5.8753L338.365 6.29497L339.265 6.79457L339.105 7.07435L337.886 6.39489L338.785 4.77618L339.964 5.43566L339.824 5.73542Z" fill="black"/>
<path d="M341.343 6.37491C341.383 6.43486 341.403 6.49482 341.423 6.57475C341.423 6.6347 341.423 6.69466 341.423 6.75461C341.403 6.81456 341.383 6.87451 341.343 6.93446C341.303 7.0144 341.223 7.07435 341.143 7.11432C341.063 7.15429 340.963 7.17427 340.863 7.1343C340.923 7.21424 340.943 7.27419 340.923 7.35413C340.923 7.43406 340.883 7.514 340.803 7.61392L340.743 7.71384C340.704 7.79378 340.664 7.83374 340.664 7.85373C340.644 7.8937 340.644 7.93366 340.664 7.97363L340.644 8.0136L340.284 7.77379C340.304 7.73382 340.304 7.69386 340.324 7.67387C340.344 7.6339 340.364 7.57395 340.404 7.53398L340.504 7.3941C340.564 7.29418 340.604 7.21424 340.584 7.17427C340.564 7.11432 340.524 7.05437 340.444 6.99442L340.124 6.79458L339.724 7.3941L339.405 7.19426L340.424 5.65549L341.163 6.15509C341.223 6.25501 341.303 6.31496 341.343 6.37491ZM340.524 6.17507L340.244 6.59474L340.584 6.83454C340.644 6.87451 340.703 6.91448 340.763 6.91448C340.843 6.93446 340.903 6.8945 340.963 6.79458C341.023 6.69466 341.043 6.61472 341.003 6.55477C340.983 6.5148 340.943 6.47483 340.883 6.43486L340.524 6.17507Z" fill="black"/>
<path d="M343.042 7.63393L342.842 7.89372L342.402 7.55399L341.463 8.73305L341.163 8.49324L342.102 7.31418L341.663 6.97445L341.863 6.71466L343.042 7.63393Z" fill="black"/>
<path d="M342.302 9.45247L342.022 9.19268L343.241 7.81378L343.521 8.07357L342.302 9.45247Z" fill="black"/>
<path d="M343.861 8.35333L344.141 8.63311L343.761 10.052L344.66 9.13271L344.92 9.3925L343.621 10.6915L343.341 10.4117L343.721 8.95285L342.802 9.87212L342.542 9.61232L343.861 8.35333Z" fill="black"/>
<path d="M345.6 11.0712C345.679 10.9713 345.699 10.8513 345.66 10.7314C345.64 10.6715 345.6 10.6115 345.56 10.5516C345.46 10.4317 345.34 10.3717 345.2 10.3717C345.06 10.3717 344.9 10.4517 344.72 10.5916C344.54 10.7314 344.46 10.8713 344.46 11.0112C344.46 11.1511 344.5 11.271 344.58 11.3709C344.66 11.4709 344.76 11.5308 344.86 11.5508C344.96 11.5708 345.08 11.5508 345.18 11.4709L344.9 11.1511L345.14 10.9513L345.64 11.5308L344.88 12.1703L344.72 11.9705L344.88 11.7906C344.76 11.7906 344.68 11.7706 344.62 11.7506C344.5 11.7107 344.401 11.6307 344.301 11.5308C344.141 11.3509 344.081 11.1311 344.101 10.9113C344.121 10.6715 344.261 10.4717 344.48 10.2718C344.7 10.072 344.94 9.99203 345.18 9.99203C345.42 9.99203 345.64 10.1119 345.799 10.3118C345.959 10.4916 346.019 10.6715 346.019 10.8513C346.019 11.0312 345.959 11.1911 345.839 11.331L345.6 11.0712Z" fill="black"/>
<path d="M346.819 12.7499C346.899 12.6499 346.938 12.55 346.918 12.4301C346.899 12.3702 346.879 12.2902 346.839 12.2303C346.759 12.1104 346.639 12.0304 346.499 12.0304C346.359 12.0104 346.179 12.0704 345.999 12.2103C345.819 12.3302 345.719 12.4701 345.699 12.61C345.679 12.7498 345.699 12.8698 345.779 12.9897C345.859 13.0896 345.939 13.1695 346.059 13.1895C346.159 13.2095 346.279 13.2095 346.379 13.1495L346.139 12.7898L346.399 12.61L346.839 13.2495L346.019 13.809L345.879 13.6092L346.039 13.4493C345.919 13.4293 345.839 13.4093 345.779 13.3893C345.679 13.3494 345.58 13.2495 345.48 13.1295C345.34 12.9297 345.3 12.7099 345.34 12.4901C345.38 12.2502 345.54 12.0704 345.779 11.8905C346.019 11.7307 346.259 11.6507 346.499 11.6907C346.739 11.7307 346.938 11.8506 347.098 12.0704C347.238 12.2702 347.298 12.4501 347.278 12.6299C347.258 12.8098 347.178 12.9697 347.058 13.0896L346.819 12.7499Z" fill="black"/>
<path d="M348.038 13.6091L348.258 13.9888L346.979 15.4676L346.779 15.1079L347.038 14.8082L346.699 14.2087L346.299 14.2886L346.099 13.9289L348.038 13.6091ZM347.019 14.1487L347.258 14.5684L347.778 14.0088L347.019 14.1487Z" fill="black"/>
<path d="M348.717 14.8681L348.877 15.2078L347.498 15.8473L347.878 16.6866L347.578 16.8265L347.018 15.6475L348.717 14.8681Z" fill="black"/>
<path d="M347.398 17.1263C347.438 17.1863 347.498 17.2262 347.558 17.2262C347.618 17.2462 347.678 17.2262 347.758 17.2062L347.678 17.0064L348.018 16.8665L348.158 17.2262L347.858 17.3461C347.798 17.3661 347.738 17.3861 347.678 17.3861C347.618 17.3861 347.558 17.3861 347.498 17.3661C347.438 17.3461 347.378 17.3062 347.338 17.2662C347.298 17.2262 347.258 17.1863 347.258 17.1663L347.398 17.1263Z" fill="black"/>
<path d="M350.216 18.8649C350.216 19.0048 350.176 19.1247 350.076 19.2247C350.016 19.3046 349.916 19.3845 349.836 19.4445C349.736 19.5044 349.656 19.5444 349.557 19.5644C349.317 19.6243 349.117 19.6443 348.917 19.6044C348.657 19.5444 348.497 19.3845 348.417 19.1048L348.198 18.3454L349.956 17.8258L350.176 18.5852C350.196 18.6851 350.216 18.785 350.216 18.8649ZM349.736 18.2654L348.577 18.6052L348.677 18.9449C348.737 19.1247 348.857 19.2247 349.037 19.2247C349.137 19.2247 349.257 19.2247 349.397 19.1847C349.577 19.1247 349.696 19.0648 349.776 18.9848C349.856 18.9049 349.876 18.765 349.816 18.6052L349.736 18.2654Z" fill="black"/>
<path d="M350.596 20.2238L350.675 20.6435L348.997 21.6427L348.917 21.243L349.257 21.0432L349.117 20.3837L348.717 20.3437L348.637 19.9441L350.596 20.2238ZM349.456 20.4237L349.556 20.8833L350.216 20.5036L349.456 20.4237Z" fill="black"/>
<path d="M350.855 21.6427L350.895 22.0424L349.696 22.9217L350.975 22.7818L351.015 23.1415L349.177 23.3613L349.137 22.9816L350.356 22.0823L349.057 22.2422L349.017 21.8825L350.855 21.6427Z" fill="black"/>
<path d="M351.095 25.6795H350.775V25.1199L349.257 25.1399V24.7602L350.775 24.7402V24.1807H351.095V25.6795Z" fill="black"/>
<path d="M350.935 27.1983C350.895 27.2582 350.855 27.3182 350.795 27.3581C350.755 27.3981 350.695 27.4181 350.635 27.4381C350.575 27.458 350.516 27.458 350.436 27.458C350.356 27.458 350.256 27.4181 350.176 27.3781C350.096 27.3182 350.036 27.2582 350.016 27.1383C349.976 27.2182 349.916 27.2782 349.856 27.2982C349.796 27.3381 349.696 27.3381 349.556 27.3381H349.436C349.356 27.3381 349.297 27.3381 349.257 27.3381C349.217 27.3381 349.177 27.3581 349.137 27.3981H349.097L349.137 26.9784C349.177 26.9784 349.217 26.9584 349.237 26.9584C349.297 26.9584 349.336 26.9584 349.396 26.9584L349.576 26.9784C349.696 26.9784 349.776 26.9784 349.816 26.9385C349.856 26.8985 349.876 26.8385 349.896 26.7186L349.916 26.3389L349.197 26.279L349.217 25.8993L351.055 26.0392L350.995 26.9185C350.995 27.0384 350.975 27.1383 350.935 27.1983ZM350.735 26.3789L350.236 26.3389L350.196 26.7586C350.196 26.8385 350.196 26.8985 350.216 26.9385C350.236 27.0184 350.316 27.0584 350.416 27.0584C350.536 27.0584 350.595 27.0384 350.655 26.9784C350.675 26.9385 350.695 26.8785 350.695 26.7986L350.735 26.3789Z" fill="black"/>
<path d="M350.815 28.4972L350.735 28.9368L348.817 29.2766L348.877 28.8569L349.277 28.797L349.376 28.1375L349.017 27.9576L349.077 27.558L350.815 28.4972ZM349.696 28.2974L349.616 28.757L350.376 28.6371L349.696 28.2974Z" fill="black"/>
<path d="M350.576 29.9161L350.476 30.3157L349.057 30.7154L350.296 31.0352L350.216 31.3749L348.437 30.9153L348.537 30.5356L349.996 30.1359L348.737 29.8161L348.817 29.4764L350.576 29.9161Z" fill="black"/>
<path d="M348.777 31.6747C348.697 31.6547 348.617 31.6547 348.577 31.6747C348.477 31.7147 348.417 31.7946 348.357 31.9545C348.317 32.0344 348.317 32.1143 348.317 32.1743C348.317 32.2942 348.357 32.3741 348.457 32.3941C348.517 32.4141 348.577 32.3941 348.617 32.3542C348.657 32.3142 348.717 32.2342 348.777 32.1343L348.877 31.9545C348.977 31.7746 349.077 31.6747 349.137 31.6147C349.257 31.5348 349.397 31.5148 349.576 31.5748C349.736 31.6347 349.836 31.7347 349.896 31.8745C349.956 32.0344 349.956 32.2143 349.876 32.4341C349.816 32.6139 349.716 32.7538 349.556 32.8538C349.397 32.9537 349.257 32.9737 349.057 32.9137L349.177 32.574C349.277 32.594 349.377 32.574 349.457 32.514C349.496 32.4741 349.536 32.3941 349.576 32.3142C349.616 32.2143 349.616 32.1343 349.596 32.0744C349.576 32.0144 349.536 31.9545 349.477 31.9345C349.417 31.9145 349.357 31.9345 349.317 31.9745C349.277 31.9944 349.237 32.0744 349.157 32.1743L348.977 32.4541C348.897 32.574 348.817 32.6539 348.737 32.7139C348.617 32.7938 348.477 32.7938 348.337 32.7538C348.178 32.6939 348.078 32.594 347.998 32.4341C347.938 32.2742 347.938 32.0744 348.018 31.8546C348.098 31.6347 348.218 31.4549 348.357 31.3749C348.497 31.275 348.677 31.255 348.857 31.335L348.777 31.6747Z" fill="black"/>
<path d="M348.957 34.6723L348.737 35.1719L347.058 34.4125L347.198 34.0928L348.337 34.6123C348.377 34.6323 348.417 34.6523 348.477 34.6723C348.537 34.6923 348.577 34.7123 348.617 34.7322L347.358 33.773L347.518 33.4333L349.077 33.753C349.037 33.733 348.997 33.7131 348.937 33.6931C348.877 33.6731 348.837 33.6531 348.797 33.6331L347.658 33.1135L347.798 32.7938L349.476 33.5532L349.237 34.0728L347.778 33.793L348.957 34.6723Z" fill="black"/>
<path d="M346.699 35.012L346.878 34.6723L348.497 35.5316L348.317 35.8713L346.699 35.012Z" fill="black"/>
<path d="M346.978 37.0304C347.098 37.0704 347.218 37.0504 347.318 36.9904C347.378 36.9505 347.418 36.8905 347.458 36.8306C347.538 36.7107 347.558 36.5708 347.498 36.4309C347.458 36.291 347.338 36.1711 347.138 36.0512C346.939 35.9313 346.779 35.8913 346.639 35.9313C346.499 35.9712 346.399 36.0512 346.339 36.1511C346.279 36.251 346.239 36.3709 346.259 36.4709C346.279 36.5708 346.339 36.6707 346.419 36.7506L346.639 36.3909L346.899 36.5508L346.499 37.2103L345.66 36.6907L345.799 36.4709L346.019 36.5508C345.979 36.4509 345.959 36.3509 345.959 36.291C345.959 36.1711 345.999 36.0512 346.079 35.9313C346.199 35.7314 346.379 35.5916 346.619 35.5516C346.859 35.5116 347.098 35.5516 347.338 35.7115C347.598 35.8713 347.758 36.0712 347.818 36.291C347.878 36.5308 347.838 36.7506 347.698 36.9904C347.578 37.1903 347.418 37.3102 347.258 37.3701C347.078 37.4301 346.919 37.4101 346.759 37.3501L346.978 37.0304Z" fill="black"/>
<path d="M346.239 38.9689C346.179 39.0088 346.099 39.0288 346.039 39.0288C345.979 39.0288 345.919 39.0288 345.859 39.0088C345.799 38.9888 345.739 38.9689 345.679 38.9289C345.599 38.8689 345.559 38.809 345.519 38.729C345.479 38.6491 345.479 38.5492 345.499 38.4493C345.419 38.4892 345.34 38.5092 345.28 38.5092C345.2 38.5092 345.12 38.4493 345.02 38.3693L344.92 38.2894C344.86 38.2295 344.8 38.2095 344.78 38.1895C344.74 38.1695 344.7 38.1695 344.66 38.1895L344.62 38.1695L344.88 37.8298C344.92 37.8498 344.96 37.8498 344.98 37.8697C345.02 37.8897 345.08 37.9297 345.12 37.9497L345.26 38.0496C345.36 38.1095 345.439 38.1495 345.479 38.1495C345.539 38.1495 345.599 38.0896 345.659 38.0096L345.879 37.7099L345.3 37.2702L345.519 36.9705L346.998 38.0696L346.479 38.769C346.379 38.8689 346.319 38.9289 346.239 38.9689ZM346.499 38.1695L346.099 37.8697L345.859 38.2095C345.819 38.2694 345.779 38.3294 345.779 38.3693C345.759 38.4493 345.799 38.5092 345.879 38.5892C345.959 38.6491 346.059 38.6691 346.119 38.6491C346.159 38.6291 346.199 38.5892 346.259 38.5292L346.499 38.1695Z" fill="black"/>
<path d="M345.44 40.008L345.14 40.3278L343.341 39.5884L343.621 39.2686L343.981 39.4285L344.44 38.9289L344.241 38.5892L344.5 38.2894L345.44 40.008ZM344.6 39.2286L344.281 39.5884L344.98 39.8881L344.6 39.2286Z" fill="black"/>
<path d="M343.401 40.3278C343.342 40.2678 343.282 40.2478 343.222 40.2478C343.122 40.2278 343.022 40.2878 342.902 40.3877C342.842 40.4477 342.782 40.5076 342.762 40.5676C342.702 40.6675 342.722 40.7674 342.782 40.8274C342.822 40.8673 342.882 40.8873 342.942 40.8673C343.002 40.8473 343.082 40.8074 343.182 40.7474L343.362 40.6475C343.541 40.5476 343.661 40.4876 343.761 40.4676C343.901 40.4477 344.041 40.4876 344.161 40.6275C344.281 40.7474 344.321 40.8873 344.321 41.0472C344.301 41.2071 344.221 41.3669 344.041 41.5268C343.901 41.6667 343.741 41.7466 343.561 41.7666C343.381 41.7866 343.242 41.7266 343.102 41.5867L343.362 41.327C343.441 41.4069 343.541 41.4269 343.641 41.3869C343.701 41.3669 343.781 41.327 343.841 41.267C343.921 41.2071 343.961 41.1271 343.981 41.0472C344.001 40.9672 343.981 40.9073 343.941 40.8673C343.901 40.8274 343.841 40.8074 343.781 40.8274C343.741 40.8473 343.661 40.8673 343.541 40.9473L343.262 41.1071C343.142 41.1871 343.022 41.227 342.942 41.227C342.802 41.247 342.682 41.1871 342.562 41.0672C342.442 40.9473 342.402 40.8074 342.422 40.6275C342.442 40.4477 342.542 40.2878 342.702 40.1279C342.882 39.968 343.062 39.8681 343.222 39.8481C343.401 39.8282 343.561 39.8881 343.681 40.028L343.401 40.3278Z" fill="black"/>
<path d="M341.703 41.0871L342.002 40.8473L343.201 42.2462L342.902 42.486L341.703 41.0871Z" fill="black"/>
</svg>
